<?xml version="1.0" encoding="UTF-8"?>
<svg id="Layer_1" data-name="Layer 1" xmlns="http://www.w3.org/2000/svg" viewBox="0 0 436.85 510.33">
  <defs>
    <style>
      .cls-1 {
        fill: none;
      }

      .cls-2 {
        fill: #fcfbf9;
        stroke: #000;
        stroke-miterlimit: 10;
        stroke-width: .7px;
      }
    </style>
  </defs>
  <path class="cls-2" d="M436.5.35v509.63H.35V.35h21.74v10.73c-3.13,2.46-5.13,6.28-5.13,10.57,0,7.45,6.04,13.49,13.49,13.49s13.48-6.04,13.48-13.49c0-4.29-2-8.11-5.12-10.57V.35h25.05v10.73c-3.13,2.46-5.13,6.28-5.13,10.57,0,7.45,6.04,13.49,13.49,13.49s13.48-6.04,13.48-13.49c0-4.29-2-8.11-5.12-10.57V.35h25.06v10.73c-3.13,2.46-5.13,6.28-5.13,10.57,0,7.45,6.04,13.49,13.49,13.49s13.48-6.04,13.48-13.49c0-4.29-2-8.11-5.12-10.57V.35h25.05v10.73c-3.13,2.46-5.13,6.28-5.13,10.57,0,7.45,6.04,13.49,13.49,13.49s13.48-6.04,13.48-13.49c0-4.29-2-8.11-5.12-10.57V.35h25.06v10.73c-3.13,2.46-5.13,6.28-5.13,10.57,0,7.45,6.04,13.49,13.49,13.49s13.48-6.04,13.48-13.49c0-4.29-2-8.11-5.12-10.57V.35h25.05v10.73c-3.13,2.46-5.13,6.28-5.13,10.57,0,7.45,6.04,13.49,13.49,13.49s13.48-6.04,13.48-13.49c0-4.29-2-8.11-5.12-10.57V.35h25.05v10.73c-3.13,2.46-5.13,6.28-5.13,10.57,0,7.45,6.04,13.49,13.49,13.49s13.48-6.04,13.48-13.49c0-4.29-2-8.11-5.12-10.57V.35h25.06v10.73c-3.13,2.46-5.13,6.28-5.13,10.57,0,7.45,6.04,13.49,13.49,13.49s13.48-6.04,13.48-13.49c0-4.29-2-8.11-5.12-10.57V.35h25.05v10.73c-3.13,2.46-5.13,6.28-5.13,10.57,0,7.45,6.04,13.49,13.49,13.49s13.48-6.04,13.48-13.49c0-4.29-2-8.11-5.12-10.57V.35h25.05v10.73c-3.13,2.46-5.13,6.28-5.13,10.57,0,7.45,6.04,13.49,13.49,13.49s13.48-6.04,13.48-13.49c0-4.29-2-8.11-5.12-10.57V.35h21.73Z"/>
  <g>
    <path class="cls-1" d="M459.25,463.63c2.64.28,2.31-.57,3.73-1.93,2.57-2.45,2.67-3.75,4.55-6.46.48-.69,1.42-1.27,1.92-1.92.55-.73,3.02-4.14,3.18-4.75s-.23-1.2-.2-1.25c.05-.06.97-.25,1.45-.59.99-.71,4.86-5.31,5.75-6.49,1.88-2.49,3.08-5.52,5.17-7.79,2.26-2.46,4.5-5.85,6.73-8.86.56-.75,1.05-.05.34-1.46,1.26.12,1.82-.86,2.52-1.68l.36.96c.24-.54.14-1.22.32-1.72.66-1.9,4.4-6.05,6.06-7.38.23-.19,2.06-1.42,2.26-1.21.52.54-1.08,1.44-1.3,1.7-2.21,2.7-4.41,5.58-6.61,8.26-.44.54-1.37.52-1.59.83-.2.28.08.71.01.99-.1.41-2.06,2.17-2.5,2.74-1.75,2.21-2.85,4.43-4.66,6.63-2.6,3.16-4.76,6.69-7.36,9.9-3.67,4.53-7.88,9.51-11.12,14.3-1.22,1.8-1.92,3.47-3.26,5.13-.58.71-1.47,1.11-1.92,1.68-.37.47-.41,1.13-.7,1.46-.36.42-1.59.95-2.3,1.77-2.65,3.08-4.53,6.65-7.06,9.66-1.76,2.1-2.83,2.73-4.39,5.15-.13.21-.61.15-.84.72-.92,2.24-1.2,9.73.18,11.7,2.61,3.72,9.85,3.79,14.03,3.47,4.52-.34,9.08-.98,13.67-.95,1.1,0,3.53.03,4.48.32.29.09,1.62.7,1.75.89.08.12.79,2.5.83,2.77.29,1.92-.27,4.39-1.56,5.85-1.91,2.14-3.72,3.1-5.99,4.57-1.78,1.15-3.72,3-5.58,4.01-1.2.66-3.08,1-4.12,1.64-.46.28-1.52,1.22-2.09,1.49-.68.32-1.86.39-2.48.65-4.58,1.95-8.8,4.56-12.98,7.17-3.61,2.26-7.25,3.73-9.06,7.97-.72,1.69-.53,2.4-.76,4.04-.06.41-1.22,2.98.49,2.17s1.26-2.85,1.97-4.26c.46-.91,1.65-.85,1.39-2.09,2.01.39.39.72.16,1.26-1.11,2.58-2.7,7.02-3.45,9.73-1.1,3.98-.36,7.23-1.63,11.08-2.48,7.47-4.32,9.64-9.84,14.87-3.77,3.57-9.03,7.79-14.07,9.2-1.3.36-2.42.52-3.79.41l2.79-.68c.23-.38,1.05-.59,1.18-.76.03-.04.15-.94.11-.96-.08-.04-1.62-.25-1.81-.25-1.9,0-8.79.57-10.5.97-.21.05-.08.48-.51.5-1.19.04-1.77-.69-1.98-.74-1.19-.28-2.85-.16-4.44-.56-6.15-1.55-10.27-4.69-15.24-8.27-6.11-4.41-10.06-8.14-14.56-14.23-1.82-2.46-2.85-5.44-4.62-7.86-.35-.48-.26-1.28-1.16-1.24-.65.03-.44,2.91-.35,3.47.35,2.05.8,4.49,1.37,6.54s1.66,3.92,2.28,5.88c.03.09.45,1.36-.08,1.04-.97-.96-.94-2.4-1.38-3.42-.22-.51-.86-.92-1.08-1.58-.39-1.15-1.26-3.99-1.35-5.12-.08-1.06.49-.79.46-.91-.17-.55-.8-.98-.94-1.94-.41-2.86.19-6.19-.32-9.27-.12-.72-.51-1.19-.64-1.76-.05-.21-.2-1.12.22-1.06.28.59.58,2.49.84,2.88.23.36,1.18.34,1.29.51.17.25-.05,2.34.13,3.1.22.9,1.16,1.98,1.59,2.72,3.58,6.07,7.64,11.99,12.78,17.09,1.89,1.87,3.9,2.74,5.99,4.21,1.91,1.35,8.35,6.56,9.99,7.04.4.12.79.15,1.21.11l-.24-.96c1.41-.54,1.11.52,1.75,1.13,3.35,3.15,11.74,1.98,15.88,1.51,3.75-.42,8.6-.35,11.61-3.02.86-.76,2.57-4,3.14-4.29.53-.28,1.35-.12.95.35-.05.06-.78.36-1.19.85-.36.43-.79.96-.73,1.55,1.11,1.05,4.56-3.68,5.26-4.45.39-.42,1.04-.67,1.33-1.07.38-.54.24-1.22.72-1.68.05,1,1.15,1.26,1.74.66.13-.14.09-.56.29-.79,1.47-1.73,2.29-4.44,3.2-6.63.42-1.02,1.49-2.83,1.74-3.78.3-1.19.11-2.81.59-4.08-.36-.06-.57.02-.85.22-.98.68-2.26,5.9-2.81,7.27-.16.39-.56.62-.71.97-.25.62-1.31,3.79-1.46,3.94-.31.33-1.74.76-2.1.17.02-.68,2.1-3.55,2.46-4.49,1-2.61,1.6-5.83,2.71-8.57.73-1.8,2.94-5.25,3.19-7.14.08-.61-.23-1.19-.22-1.85.02-1.02.56-2.32.67-3.43.1-.9-.19-2.85-.08-3.54.03-.17,1.16-2.81,1.34-3.11.56-.97,1.33-1.24,1.98-1.79,2.14-1.8,5.08-4.03,7.57-5.5,8.56-5.07,18.1-7.78,26.17-14.07,1.03-.8,4.27-3.2,4.76-4.11.65-1.21,1-5.28.4-6.53-.36-.75-2.73-1.18-3.58-1.22-3.42-.16-8.33.85-11.99.98-5.11.18-13.73.65-17.16-3.73-2.05-2.62-2.25-5.7-2.19-8.87.02-.77.83-2.38-.77-2.01-1.41.33.05,2.13-.17,2.36-.52.55-1.82-.67-2.72-.63-.54.02-1.86.53-2.03,1.04-.2.59.18,1.45-.76,1.76l.24-1.2c-3.07-.46-7.48.45-6.99-4.05-.67-.55-1.59,0-2.14-.13-.43-.11-4.04-2.26-4.52-2.68-1.57-1.41-3.58-3.87-5.33-4.99-2.46-1.58-2.85-.25-3.56,1.91-.83,2.54-.43,3.44-.49,5.99-.12,4.9-2.67,14.39-6.24,17.93-2.01,2-4,2.7-6.38,4-.53.29-1.16,1.09-1.43,1.21-.34.15-.59-.56-.59-.6.01-.31,4.59-2.67,5.33-3.24,1.47-1.13,4.16-4.02,4.95-5.67,1.08-2.24,3.06-7.43,3.38-9.83.13-.95-.44-1.37-.5-2.14-.15-2.31.3-4.68.51-6.94.53-.69.94-4.09,1.47-4.41.27-.17,3.06-.07,3.55.09,1.78.58,5.72,4.87,6.97,6.46,1.22.32,3.37,2.13,4.48,2.24.33.03.52-.2.66-.45.08-.14.85-2.85.86-3,.03-.55-.53-.78-.4-1.3.42-1.61,1.93-.15,1.55-1.28-.53-1.58-1.79-.49-2.64-.3-1.33.29-2.04-.48-2.83-1.42-1-1.18-4.47-9.07-4.75-10.6-.18-.99-.08-2.19.06-3.18.8.92.65,2.35,1.22,3.34.14.24.48.69.71.26.16-2.14,1.19-3.96,1.31-6.12.09-1.63-.44-3.19-.36-4.57.03-.57,1.04-1.75-.23-2.03-.5-.11-1.25.33-1.08-.48.55-.07,1.24.11,1.76,0,.21-.05.08-.51.51-.5,2.09.04.09,2.95-.08,4.25-.25,1.87.32,3.64.21,5.49-.12,1.98-1.25,3.53-.63,5.44.23.69.82,1.44,1.05,2.07.33.91.37,1.96.74,2.86.82,2,2.2,3.71,4.61,3.33.91-.14,3.07-1.36,3.82-1.96.62-.5,1.26-1.68,1.7-1.89s1.06-.1,1.5-.35c.8-.46,2.23-3.57,2.81-4.44,4.35-6.48,9.61-12.34,14.15-18.66,1.39-1.94,2.48-3.04,3.78-5.15,1.37-2.22,3.44-3.99,5.09-5.95,2.93-3.48,6.89-7.05,9.59-10.8.84-1.16,1.52-2.84,2.4-4.07,2.17-3.02,5.64-6,7.3-9.25.99-1.94,1.63-4.65,2.9-6.45.35-.5.97-.63,1.24-1.16.64-1.22-.13-1.02,1.04-2.08.16-.14.19-.53.26-.57.29-.18.93.12.93.33,0,.11-1.01,1.62-1.19,1.92-.36.58-1.17.63-.72,1.56-1.55-.21-.73.38-.96,1.27-.07.27-.63.26-.7.54-.05.22.24.66.17,1.13s-.74,1.11-.68,1.49c.08.6,1,0,1.12-.19.38-.55.08-1.76,1.03-.77l-10.08,13.21c-.04.48,1.84,2.96,2.29,3.47,1.25,1.42,2.72,2.24,3.96,3.59-.78.93-3.85-1.75-4.44-2.39-.84-.93-1.88-3.77-3.22-2.74-.56.43-3.92,4.41-4.44,5.15-.28.4-.91,1.56-.86,2.02s.58.73.78,1.15c.74,1.54,1.44,2.64,2.67,3.93.7.73,1.92,1.2,2.31,2.24-.79.6-3.85-2.11-4.31-2.81-.56-.86-1.65-4.52-3.24-3.18-.38.32-1.64,2.28-2.15,2.89-.26.3-.71.44-.95.73-.89,1.09-2.63,3.14-1.68,4.52.79,1.13,2.3,2.63,3.32,3.63.79.78,2.07,1.13,2.29,2.63-2.95-1.12-5.01-3.77-6.83-6.22-.21.5-1.7.89-1.76.97-.15.18.08.96-.15,1.41s-.91.38-1.03.52c-.16.2-.19,1.17-.86,1.78-.8.73-1.36.28-1.6.44-.51.35.26,2.31.11,3l4.45,4.2c-.31.4-.48.47-.96.24s-2.88-2.26-3.48-2.76c-.55-.46-.6-1.41-1.89-.93-.45.17-.29.76-.43.88-.16.14-.67-.03-1.16.4-.43.37-.53,1.18-.79,1.49-.17.21-.56.28-.77.54-.39.49-2.25,2.82-2.38,3.14-.75,1.77.35,1.62,1.09,2.26.56.49.99,1.28,1.45,1.67,1.55,1.3,3.05,1.29,4.05,3.5-2.68-.28-6.7-5.44-7.57-5.53-.81-.08-.81.68-1.3,1.1-.38.34-.88.54-1.23.93-.58.65-.83,1.63-1.65,2.21-.05.3,1.97,2.7,2.38,3.09.92.89,4.87,4.15,5.91,4.19.32.01.45-.03.71-.22.81-.6,1.96-3.39,3.1-4.1.41-.89-.09-1.08-.36-1.68ZM447.82,465.22c-1.25-1.17-.98-1.69-2.47-.03-.84.93-2.96,4.11-3.42,5.21-.31.73-.01,1.62-.3,2.1-.62,1.03-2.87,1.7-3.5,2.26-.82.73-.5,1.88-.81,2.31-.26.35-3.23.66-1.07,2.49,1.3,1.1,4.16,1.34,5.75,1.68.51.11,1.1.6,1.54.6.63,0,1.43-.83,2.09-1.03,1.64-.49,1.87.06,3.3-1.71,1.53-1.89,3.69-4.4,5.04-6.3,1.27-1.79.5-2.38-1.06-3.56-1.9-1.44-3.26-2.31-5.1-4.02ZM439.57,484.73c.71-1.02-3.99-3.55-4.55-4.43-.41-.24-.92-.16-1.22.22-.5.64-1.02,4.79.02,5.3.58.29,3.44.07,4.15-.13.2-.06.2-.38.47-.54s1.1-.37,1.13-.42ZM440.54,482.58c.04.65,1.91,1.36,1.91.6,0-.51-1.49-.75-1.91-.6Z"/>
    <path class="cls-1" d="M424.71,450.92l-3.35.48c.02.31,1.56.86.6,1.19-.91.32-.5-.62-.6-.72s-1.05.4-1.2.24c-.49-.51.73-.71.48-1.2-1-.47-1.47.72-1.59.74-.47.08-1.37-.5-2.32-.21-.28.09-.43.42-.67.54-.32.15-.68.05-.96.29-.73.67-.49,1.72-.81,2.49-.65,1.55-1.76,3.41-2.06,5.16-.08.45.44.19.51.69.2,1.53-.54,2.65-.52,3.63.01.51.43.84.51,1.42.07.49.05,3.26-.12,3.51s-.92.08-1.19.95c-.2.65-.42,1.47-.58,2.1-.13.49.4.73.45,1.15.06.52-.36.83-.44,1.24-.06.34.22.68.08,1.02-.12.3-1.64,1.3-1.94,1.93-.23.49.07.9-.03,1.38-.22,1.04-3.62,7.22-4.39,8.33-2.69,3.83-5.87,7.92-9.25,11.14-1.56,1.49-5.18,4.71-7.24,5.23-.75.19-1.58-.05-2.32.08-1.58.28-3.91,1.32-5.5.94-.19-.05-.16-.48-.27-.47-.15.01-2.51.96-2.75,1.09-.32.17-1.93,1.54-2.06,1.54-.09,0-.48-1.09-1.41-.9-.54.11-1.91,2.11-2.06,2.69-1,.95-4.36,1.46-5.83,2.11-1.19.53-5.23,3.48-6.43,4.37-.68.5-4.58,3.56-4.91,3.96-.89,1.08-2.02,3.2-2.68,4.39-.26.47.34,1.09-.78.9.21,1.66-.99,3.3-1.39,4.97-.16.66.17,1.87-.53,2.22-.14-2.91.68-5.6,2.06-8.13.88-1.61,3.25-5.7,4.49-6.9.79-.76,2.03-1.28,2.8-2.36.68-.95.8-2.85,2.16-2.76-.98,4.08,2.19.16,3.39-.57,2.68-1.65,6.45-2.98,8.51-5.65.32-.41.31-.94.34-.98.19-.18,1.34,1.15,1.92-.12-1.56-.6.28-1.55,1.15-1.74,1.51-.33,4.12-.02,5.4-.3.08-.02.52-.75,1.3-.9,2.26-.44,3.99-.92,6.04-1.88.38-.18,3.36-2.12,3.62-2.38,1.35-1.32,7.03-10.08,7.42-11.77.12-.49-.1-1.11.05-1.62s.76-.52.86-.7c.15-.26.02-.79.16-1.16.18-.47.61-.69.79-1.13.2-.48.07-1.25.43-1.73.25-.32,1.52-.87,1.89-1.47.31-.5.21-1.33.51-1.88.27-.51.86-.59,1-.8.17-.26.18-1.28.32-1.37.11-.08.45.21.58.2.23-.03.59-1.93.73-2.35.49-1.39,1.38-2.93,1.68-4.33.97-4.53,2.66-9.57,4.9-13.63.4-.73.68-2.08,1.63-2.38.66-.21,1.34-.46,1.98-.66,2.95-.92,2.02-.26,4.3.26,1.1.25,2.11-.12,3.13.59ZM411.99,461.47c-.65-.14-.41.2-.59.48-1.46,2.22-2.01,4.78-2.59,7.26-1.19,5.11-4.89,7.93-6.99,12.44-.84,1.81-1.33,4.24-2.22,6.18-1.2,2.62-3.53,5.1-4.89,7.59-.53.97-.78,2.39.49,1.21,2.6-2.43,4.98-5.03,7.19-7.92.22-.29.72-.4.94-.74.34-.54.19-1.28.53-1.87.31-.54.98-.65,1.28-1.11,2.97-4.61,4.52-10.96,6.07-16.24l.78-7.26ZM376.49,503.21c-.45-.49-1.2,1.27-.36.96.31-.12.51-.8.36-.96Z"/>
    <path class="cls-1" d="M431.83,519.92c-.91,1.53-1.52,2.17-2.21,4.15-1.74,5.03-3.81,9.89-6.42,14.57-1.71.89-4.13,4.47-6.17,4.04-.61-.13-1.04-.77-1.46-.95-.78-.32-1.82-.48-2.54-.81-.91-.43-4.69-3.64-5.35-4.49-.74-.96-1.83-4.17-2.53-4.43-.39-.14-1,1.3-1.32,1.54-.4.98-1.21,3.37-2.5,3.26-.91-.07-2.21-2.5-3.56-2.18-.32.08-.26.91-.89.73.71-2.03-2.6-2.52-3.76-3.19-.32-.19-1.13-1-1.68-1.32-2.16-1.27-4.59-1.25-2.57-4.34.45-.69,1.83-1.61,2.19-2.01.25-.28,1.91-2.35,1.96-2.5.24-.88-.48-.98-.79-1.53-.4-.7-.27-4.92.04-5.68.24-.6,1.37-1.39,1.84-2,1.01-1.3.61-1.17,1.95-2.37.82-.74,1.63-2.05,2.38-2.65.3-.24,2.73-1.92,2.29-.59-.04.12-1.83,1.17-2.14,1.46s-.53.73-.85,1.07c-2.83,3.01-4.98,5.26-4.42,9.92.12.96.67,1.19.69,1.27.33,1.54-1.67,2.66-2.4,3.55-.41.5-.54,1.19-.95,1.69-.54.65-1.51.76-1.44,1.9s2.71,2.44,3.65,3.02c.17.1.21.38.36.47.73.42,4.55,2.21,5.09,1.67.29-1.74.77-3.35,2.65-3.82.35,1.78-2.1,2.47-2.18,3.72s1.51,2.52,2.41,2.17c.22-.09,2.54-2.42,2.66-2.63.54-.97-.17-1.75.97-2.87.42-.41,1.38-.73,1.67-1.21.23-.37.15-.91.27-1.05.23-.27,1.08.21.87-1.08-.07-.41-3.18-3.37-3.71-3.72-.65-.43-2.6-1.15-3.38-1.42-1.11-.38-2.39-.02-2.94-1.26,2.08.16,4.77.71,6.65,1.62.43.21,3.23,2.63,3.58,3.02.31.34,1.33,1.82,1.3,2.18-.72.24-.65.82-.98,1.22-.47.57-1.55,1.26-1.68,1.93-.28,1.5,1.89,5.58,2.96,6.74.28.3,4.22,3.45,4.48,3.57.5.23.85-.07,1.22,0,1.4.29,1.66,1.66,3.57.24.64-.47,2.67-2.58,3.24-3.24,1.25-1.48,4.79-8.73,5.56-10.76.51-1.35.67-3.3,1.17-4.59.62-1.59,3.92-6.67,5.07-8.11,1.23-1.54,2.28-1.25,3.86-2.16,2.32-.65,9.45-.89,10.49-3.18.83-1.84-1.46-1.86-2.27-3.11.75.06,4.44,1.64,4.54,2.06-.24.69-1.01,1.74-1.54,2.25-2.43,2.37-7.73,2.13-10.96,2.95s-4.41,4.56-6.03,7.29Z"/>
    <path class="cls-1" d="M408.72,512.64c.21-.34,1.59-1.52,1.77-1.82.46-.77-.1-1.93,1.75-1.61l-3.21,5.06c-.56.97-.51,2.57,0,3.55.1.2,1.23,1.74,1.41,1.95,2.37,2.61,6.05,2.77,9.31,2.1.58-.12,3.35-1.65,3.52-2.05,1.27-3.02-.02-6.54-2.05-8.91-1.04-1.21-5.5-3.32-7.17-3.39-.64-.03-2.63.5-2.76-.11-.23-1.06,2.4-.88,2.99-.83,6.75.54,14.1,7.03,9.58,14.13-.69,1.08-3.76,2.23-5.04,2.39-4.46.57-7.3-.28-10.16-3.7-.77-.92-1.3-1.81-1.15-3.05.03-.27,1.12-3.54,1.22-3.71Z"/>
    <path class="cls-1" d="M418.32,496.81c.06-.1.34-.17.48-.34.39-.48.29-1.37,1.35-1.17-.77.84-1.55,3.08-1.37,4.16.05.29,1.58,2.85,1.87,3.14,1.68,1.69,4.82,2.19,6.94,3.13.52.23.81.67,1.27.89.33.16,2.32,1.1,2.45,1.09.4-.03,1.47-3.12,1.54-3.68.42-3.64-.78-8.97-4.09-10.98-.57-.35-2.89-.96-1.79-1.38,3.11-1.18,6.04,3.5,6.74,6.03.4,1.45.32,7.1.13,8.76-.03.25-.53,2.19-.6,2.28-.81,1.19-4.26-1.57-5.19-2.03-2.66-1.3-5.66-1.27-8.25-3.26-1.05-.81-2.42-4.18-2.21-5.36.03-.16.58-1.03.74-1.27Z"/>
    <path class="cls-1" d="M438.71,500.96c.13.17,1.18,1.28,1.34,1.41,1.42,1.22,3.73,2,5.53,2.27.26.74-1.13.53-1.56.48-2.6-.31-4.85-1.31-6.09-3.75-1.57-3.08-1.16-3.99-.75-7.17.09-.69-.12-1.51,0-2.15.1-.52.56-.66.67-1.01.17-.56-.18-1.3.41-1.75.56,1.04-.44,2.15-.59,3.01-.1.6.06,1.26-.04,1.88-.46,3.06-1.06,4.07,1.07,6.78Z"/>
    <path class="cls-1" d="M423.75,459.55c-.12-1.35.36-2.57-.02-3.9-.05-.16-.84-.48-.46-1.38,1.33.35,1.58,1.74,1.38,2.94-.08.48-.49,2.01-.9,2.33Z"/>
    <path class="cls-1" d="M364.02,507.77c.19.17-1.03,1.53-1.21,1.73s-.98,1.11-1.19.91c.55-.65,1.08-1.75,1.61-2.34.22-.24.51-.54.79-.29Z"/>
    <path class="cls-1" d="M421.83,493.37c.37.37-.68.77-.72.72-.24-.3.49-.95.72-.72Z"/>
    <rect class="cls-1" x="422.79" y="453.08" width=".48" height=".72"/>
  </g>
</svg>