<?xml version="1.0" encoding="UTF-8"?>
<svg id="Layer_1" data-name="Layer 1" xmlns="http://www.w3.org/2000/svg" viewBox="0 0 185.6 207.98">
  <path d="M110.56,89.01c2.63.28,2.31-.57,3.72-1.92,2.57-2.45,2.67-3.74,4.54-6.44.47-.68,1.42-1.26,1.92-1.91.55-.73,3.01-4.13,3.17-4.74s-.23-1.2-.2-1.25c.05-.06.97-.25,1.45-.59.99-.71,4.85-5.3,5.73-6.47,1.87-2.48,3.07-5.51,5.16-7.77,2.26-2.46,4.49-5.84,6.71-8.83.55-.75,1.05-.05.33-1.46,1.25.12,1.82-.86,2.51-1.67l.35.95c.24-.54.14-1.22.32-1.72.66-1.89,4.39-6.04,6.04-7.36.23-.19,2.06-1.42,2.26-1.21.52.54-1.08,1.43-1.29,1.7-2.21,2.69-4.39,5.57-6.6,8.24-.44.54-1.36.52-1.58.83-.2.28.08.71.01.99-.1.41-2.05,2.17-2.5,2.73-1.75,2.2-2.84,4.42-4.65,6.61-2.59,3.15-4.74,6.67-7.34,9.88-3.66,4.52-7.86,9.48-11.09,14.27-1.21,1.79-1.91,3.46-3.25,5.12-.57.71-1.47,1.1-1.91,1.67-.37.47-.41,1.13-.7,1.46-.36.41-1.59.95-2.3,1.77-2.65,3.07-4.52,6.63-7.04,9.64-1.76,2.09-2.82,2.72-4.38,5.14-.13.21-.61.15-.84.72-.91,2.24-1.19,9.71.18,11.67,2.6,3.71,9.83,3.78,14,3.46,4.51-.34,9.06-.98,13.64-.95,1.1,0,3.52.03,4.47.32.29.09,1.62.7,1.75.88.08.12.79,2.5.83,2.76.29,1.92-.26,4.38-1.56,5.83-1.9,2.13-3.71,3.09-5.97,4.56-1.77,1.15-3.71,2.99-5.57,4-1.2.66-3.07,1-4.11,1.64-.46.28-1.52,1.22-2.09,1.49-.68.32-1.85.38-2.47.65-4.56,1.94-8.77,4.55-12.94,7.16-3.6,2.25-7.24,3.72-9.04,7.95-.72,1.69-.53,2.4-.76,4.03-.06.41-1.22,2.97.49,2.17s1.25-2.85,1.97-4.25c.46-.91,1.65-.85,1.38-2.09,2,.39.39.72.16,1.25-1.11,2.57-2.69,7.01-3.44,9.7-1.1,3.97-.35,7.21-1.63,11.05-2.48,7.45-4.31,9.61-9.82,14.83-3.76,3.56-9.01,7.77-14.03,9.18-1.3.36-2.42.52-3.78.41l2.78-.68c.23-.38,1.04-.59,1.18-.75.03-.04.15-.93.11-.96-.08-.04-1.62-.25-1.81-.25-1.9,0-8.77.57-10.47.97-.21.05-.08.48-.51.5-1.18.04-1.77-.69-1.97-.74-1.19-.28-2.84-.16-4.43-.56-6.14-1.54-10.24-4.67-15.2-8.25-6.09-4.4-10.03-8.12-14.52-14.19-1.81-2.45-2.84-5.43-4.61-7.84-.35-.48-.26-1.28-1.15-1.23-.65.03-.44,2.9-.35,3.46.35,2.05.8,4.48,1.37,6.52s1.65,3.91,2.28,5.86c.03.09.45,1.36-.08,1.03-.97-.96-.94-2.39-1.38-3.41-.22-.5-.86-.92-1.08-1.57-.38-1.15-1.26-3.98-1.35-5.11-.08-1.06.49-.79.46-.91-.17-.55-.8-.98-.94-1.94-.41-2.85.19-6.18-.32-9.25-.12-.72-.51-1.18-.64-1.75-.05-.21-.2-1.12.22-1.06.28.59.58,2.48.84,2.87.23.36,1.18.34,1.29.51.17.25-.05,2.33.13,3.1.22.9,1.16,1.97,1.59,2.71,3.57,6.05,7.62,11.96,12.75,17.05,1.88,1.87,3.89,2.73,5.97,4.2,1.91,1.35,8.33,6.54,9.97,7.02.4.12.79.15,1.2.11l-.24-.95c1.41-.53,1.11.52,1.75,1.12,3.34,3.14,11.71,1.97,15.84,1.51,3.74-.42,8.58-.35,11.58-3.01.86-.76,2.56-3.99,3.13-4.28.53-.27,1.35-.12.95.35-.05.06-.78.36-1.19.85-.36.43-.79.96-.72,1.55,1.1,1.04,4.55-3.67,5.25-4.44.39-.42,1.04-.67,1.33-1.07.38-.54.24-1.22.72-1.67.05,1,1.15,1.26,1.73.65.13-.14.09-.56.29-.79,1.47-1.72,2.29-4.43,3.19-6.62.42-1.02,1.49-2.82,1.73-3.77.3-1.19.11-2.8.59-4.07-.36-.06-.56.02-.85.22-.98.68-2.25,5.88-2.8,7.25-.16.39-.56.61-.7.97-.25.62-1.31,3.78-1.45,3.93-.31.33-1.73.76-2.09.17.02-.68,2.09-3.54,2.45-4.48.99-2.6,1.59-5.81,2.7-8.55.73-1.79,2.93-5.24,3.19-7.12.08-.61-.23-1.18-.22-1.85.02-1.02.55-2.31.67-3.42.1-.9-.19-2.84-.08-3.53.03-.17,1.16-2.8,1.34-3.1.56-.96,1.33-1.24,1.98-1.79,2.13-1.8,5.07-4.02,7.55-5.49,8.54-5.05,18.06-7.76,26.11-14.04,1.03-.8,4.26-3.19,4.75-4.1.65-1.2,1-5.27.4-6.51-.36-.75-2.73-1.18-3.57-1.22-3.41-.16-8.31.85-11.96.98-5.1.18-13.69.65-17.11-3.72-2.05-2.62-2.25-5.68-2.18-8.85.02-.77.83-2.37-.77-2-1.4.32.05,2.12-.17,2.36-.52.55-1.81-.67-2.72-.63-.54.02-1.85.53-2.03,1.04-.2.58.18,1.45-.76,1.75l.24-1.19c-3.06-.46-7.46.45-6.97-4.04-.67-.55-1.59,0-2.13-.13-.42-.11-4.03-2.25-4.51-2.68-1.56-1.41-3.57-3.86-5.31-4.98-2.46-1.58-2.84-.25-3.55,1.91-.83,2.53-.43,3.43-.49,5.97-.12,4.89-2.66,14.35-6.22,17.88-2.01,1.99-3.99,2.69-6.36,3.99-.53.29-1.15,1.09-1.43,1.21-.34.15-.59-.56-.59-.6.01-.31,4.58-2.66,5.31-3.23,1.46-1.12,4.14-4.01,4.94-5.65,1.08-2.23,3.05-7.42,3.38-9.8.13-.95-.44-1.37-.49-2.14-.15-2.3.3-4.67.51-6.92.53-.69.94-4.08,1.46-4.4.27-.17,3.05-.07,3.54.09,1.78.58,5.71,4.86,6.96,6.44,1.21.32,3.37,2.13,4.47,2.24.33.03.51-.2.66-.45.08-.14.85-2.84.86-3,.03-.55-.53-.78-.4-1.3.42-1.61,1.92-.15,1.55-1.27-.53-1.57-1.79-.49-2.63-.3-1.33.29-2.03-.48-2.83-1.42-1-1.17-4.45-9.05-4.74-10.58-.18-.99-.08-2.18.06-3.17.8.92.65,2.34,1.21,3.33.14.24.47.69.71.26.16-2.13,1.19-3.95,1.31-6.11.09-1.62-.44-3.19-.36-4.55.03-.57,1.04-1.75-.23-2.02-.5-.11-1.25.33-1.07-.48.55-.07,1.24.11,1.75,0,.21-.05.08-.51.51-.5,2.09.04.09,2.95-.08,4.24-.25,1.87.32,3.63.21,5.47-.12,1.98-1.25,3.52-.63,5.43.22.69.82,1.43,1.04,2.06.32.91.37,1.95.74,2.85.82,1.99,2.2,3.7,4.6,3.32.9-.14,3.06-1.36,3.81-1.95.62-.5,1.26-1.68,1.7-1.89s1.06-.1,1.5-.35c.8-.45,2.22-3.56,2.81-4.43,4.34-6.47,9.59-12.31,14.12-18.61,1.39-1.93,2.47-3.03,3.77-5.13,1.37-2.22,3.43-3.98,5.07-5.93,2.92-3.47,6.87-7.03,9.57-10.77.83-1.16,1.51-2.84,2.4-4.06,2.17-3.02,5.63-5.98,7.28-9.23.98-1.93,1.62-4.64,2.89-6.44.35-.5.97-.63,1.24-1.15.63-1.22-.13-1.02,1.04-2.08.16-.14.19-.53.26-.57.29-.18.93.12.92.33,0,.11-1.01,1.62-1.19,1.91-.36.58-1.16.62-.72,1.56-1.55-.21-.73.38-.95,1.27-.07.27-.63.25-.69.54-.05.22.24.66.17,1.12s-.73,1.11-.68,1.49c.08.6.99,0,1.12-.19.38-.55.08-1.76,1.03-.76l-10.06,13.17c-.04.48,1.84,2.95,2.28,3.46,1.25,1.42,2.72,2.23,3.95,3.58-.78.93-3.84-1.74-4.43-2.39-.84-.93-1.87-3.76-3.21-2.74-.56.43-3.91,4.4-4.43,5.14-.28.4-.91,1.56-.86,2.01s.58.73.78,1.15c.74,1.54,1.43,2.63,2.66,3.92.69.73,1.92,1.2,2.31,2.23-.79.6-3.84-2.11-4.3-2.81-.56-.86-1.64-4.51-3.23-3.17-.38.32-1.63,2.28-2.14,2.88-.26.3-.71.44-.95.73-.88,1.08-2.63,3.13-1.68,4.5.78,1.13,2.3,2.62,3.31,3.62.79.78,2.06,1.13,2.29,2.62-2.94-1.12-5-3.76-6.82-6.2-.21.5-1.7.89-1.76.97-.15.18.08.96-.15,1.41s-.91.38-1.03.52c-.16.2-.19,1.16-.85,1.78-.8.73-1.36.27-1.59.44-.51.35.26,2.3.11,3l4.43,4.19c-.3.4-.48.46-.95.24s-2.87-2.25-3.47-2.75c-.55-.46-.6-1.41-1.89-.93-.45.17-.29.75-.43.88-.16.14-.67-.03-1.16.4-.43.37-.53,1.18-.79,1.49-.17.21-.56.28-.77.54-.39.49-2.24,2.81-2.38,3.13-.75,1.76.35,1.62,1.08,2.26.56.49.99,1.28,1.45,1.66,1.54,1.29,3.04,1.28,4.04,3.49-2.67-.28-6.68-5.43-7.55-5.52-.8-.08-.81.68-1.29,1.1-.38.34-.88.54-1.22.93-.57.65-.83,1.62-1.64,2.2-.05.3,1.97,2.69,2.37,3.09.91.89,4.86,4.14,5.9,4.18.32.01.45-.03.7-.22.81-.6,1.96-3.38,3.09-4.09.41-.88-.09-1.08-.36-1.67ZM99.16,90.6c-1.25-1.16-.98-1.68-2.47-.03-.83.92-2.95,4.1-3.42,5.2-.31.73-.01,1.61-.3,2.09-.61,1.03-2.86,1.7-3.49,2.25-.82.73-.5,1.87-.81,2.3-.26.35-3.22.66-1.07,2.48,1.3,1.1,4.15,1.34,5.74,1.68.51.11,1.1.59,1.54.6.63,0,1.43-.83,2.09-1.03,1.64-.49,1.87.06,3.3-1.71,1.52-1.89,3.68-4.39,5.03-6.29,1.27-1.79.5-2.37-1.05-3.55-1.89-1.44-3.25-2.3-5.09-4.01ZM90.93,110.06c.71-1.01-3.98-3.54-4.54-4.42-.41-.24-.92-.16-1.21.22-.5.64-1.02,4.77.02,5.29.58.29,3.43.07,4.14-.13.2-.06.2-.38.47-.54s1.09-.37,1.13-.42ZM91.89,107.92c.04.65,1.9,1.36,1.91.6,0-.51-1.48-.75-1.91-.6Z"/>
  <path d="M184.19,4.86c.15.12.73,1.17.84,1.43.77,1.82.94,3.78-.65,5.2-.33.3-.78.33-1.09.65-1.33,1.36-1.69,3.13-3.32,4.5-.25.21-.38.69-.61.83-.1.06-.08-.47-.57-.61-2.06-.58-6.18,1.2-7.68,2.65-2.76,2.67-3.49,6.02-2.82,9.75.15.83,1.2,2.06,1.15,2.68-.05.56-.9.93-1.1,1.55-.56,1.77.62,4.69-2.98,4.23-.87-.11-6.05-2.51-6.7-3.13-.41-.39-.77-.68-.72-1.32-1.53.56-1.7,2.41-3.58,2.63-.22-.81,1.87-4.2,2.63-3.59l-.24.71c.43.14.56-.36.87-.42.73-.15,1.29.7,1.79.99.76.45,4.24,2.65,4.7,2.73,2.21.38,2.4-3.86,2.46-5.32.12-2.9-.54-6.65.61-9.44.49-1.2,2.39-4.03,3.48-4.66,1.57-.92,4.14-1.37,5.93-2.2,1.11-.52,4.62-2.44,5.41-3.2,1.16-1.11,1.74-2.82,1.56-4.44-.07-.65-1.34-1.63-1.84-1.74-.15-.03-2.85.91-2.97,1.02-.4.39-.2,1.07-.23,1.56-2.56-.7-3.13-2.4-5.92-1.02-1.6.79-1.41.31-3.04.56-.34.05-.62.37-.99.44-.91.16-5.05.64-5.32,1.39-.09.23,0,.75-.04.79-.28.3-1.33-.48-1.78-.49-.42-.01-2.72.7-2.91.96-.21.29.77,2.25-.82,1.31-.27-.16-.21-.81-1.07-.8-1.06.61-4.12.88-4.68,1.75-.27.41-.24,1.24-.69,1.45-.2.09-1.19-.23-1.94,0-1.18.35-4.55,2.05-5.57,2.8-2.69,1.98-2.53,3.15-.88,5.83.61,1,.6.98,1.15,2.19.23.49,1.14,1.42,1.18,1.66.34,1.86-2.24,3.33-1.81,5.18.51,2.24,4.14,4.1,5.7,5.67-.86-.3-2.76-.71-3.41-1.19-.78-.56-1.8-2.55-2.81-3-.4-.18-1.15-.08-1.19-.12-.14-.13.07-1.9.28-2.24.27-.44,1.54-.79,1.83-1.77.1-.33-.12-2.38-.21-2.8-.23-1.04-2.78-3.36-3.38-5-1.35-3.66,1.67-4.75,3.85-7.02-1.09-1.64-1.64-5.46.41-6.52,1.26-.65,3.72-.26,4.89.56,1.25.88,1.66,2.74,3.4,2.48.27-.04,3.13-1.07,3.25-1.2.47-.54,0-3.09.34-4.08.49-1.4,3.21-1.57,4.34-1.11,1.26.52,1.67,2.36,2.47,2.57.4.11,2.79-.52,2.9-.84.15-1.9.49-5.64,3.04-5.55,2.69.09,1.44,5,4.51,4.69,1.44-.15,1.83-3.54,2.61-4.41.08-.09,2.09-1.03,2.21-1.03,1.87-.02.28,3.42,1.41,4.33.87.7,1.54-.28,1.89-.22.18.03.38.33.59.37.61.11,1.42-.02,1.9.37ZM178.27,1.44c-1.46-.07-1.73,1.97-1.67,3.11,1.61-.04,1.82-1.79,1.67-3.11ZM170.38,5.98c.18-1.03-.46-5.4-2.03-3.58-.52.6-.81,2.46-.57,3.19s1.98.29,2.6.39ZM160.75,7.84c.79-.66-.23-3.04-1.44-2.78-2.07.45-2.53,3.84-.59,3.51.14-.02,1.95-.66,2.03-.73ZM177.55,6.94c.46-.42-.96-1.07-.95-.36,0,.25.79.51.95.36ZM148.75,9.66c-1.99-1.98-4.35-.81-4.24,1.94.07,1.52.71,1.9,2.03,1.54,1.92-.53,4.48-1.23,2.2-3.48Z"/>
  <path d="M76.1,76.33l-3.35.48c.02.3,1.56.86.59,1.19-.9.31-.5-.62-.6-.72s-1.04.39-1.19.24c-.49-.51.73-.71.48-1.19-1-.47-1.47.72-1.59.74-.47.08-1.37-.5-2.31-.21-.28.09-.43.42-.67.53-.31.15-.68.05-.95.29-.73.66-.49,1.72-.81,2.48-.65,1.55-1.76,3.4-2.05,5.15-.08.45.44.19.51.69.2,1.53-.54,2.64-.51,3.62.01.51.43.84.51,1.41.07.49.05,3.25-.12,3.5s-.92.08-1.19.95c-.2.65-.41,1.46-.58,2.09-.13.49.4.73.45,1.14.06.52-.36.83-.44,1.24-.06.34.22.68.08,1.02-.12.29-1.63,1.29-1.93,1.93-.23.48.07.9-.03,1.38-.22,1.03-3.61,7.2-4.38,8.3-2.68,3.82-5.85,7.9-9.23,11.11-1.56,1.49-5.16,4.69-7.23,5.22-.75.19-1.57-.05-2.32.08-1.58.28-3.9,1.32-5.48.94-.19-.04-.16-.48-.27-.47-.15.01-2.5.96-2.75,1.09-.32.17-1.92,1.54-2.05,1.54-.09,0-.48-1.09-1.41-.9-.54.11-1.91,2.11-2.06,2.68-.99.95-4.35,1.45-5.81,2.1-1.18.52-5.21,3.47-6.41,4.36-.67.5-4.57,3.55-4.9,3.95-.89,1.08-2.02,3.19-2.68,4.38-.26.47.34,1.09-.78.9.21,1.65-.99,3.3-1.38,4.96-.16.66.17,1.87-.53,2.22-.13-2.9.68-5.59,2.06-8.11.88-1.6,3.24-5.68,4.48-6.88.78-.76,2.03-1.28,2.79-2.35.68-.95.8-2.84,2.15-2.75-.98,4.07,2.18.16,3.38-.57,2.68-1.64,6.43-2.98,8.48-5.63.32-.41.31-.94.34-.97.19-.18,1.33,1.15,1.91-.12-1.56-.6.28-1.55,1.14-1.73,1.51-.33,4.11-.02,5.39-.3.08-.02.52-.75,1.3-.9,2.26-.44,3.98-.92,6.02-1.87.38-.18,3.35-2.12,3.61-2.37,1.35-1.31,7.01-10.06,7.4-11.74.12-.49-.1-1.11.05-1.62s.76-.52.86-.69c.15-.26.02-.79.16-1.15.18-.46.61-.69.79-1.13.2-.48.07-1.25.43-1.72.25-.32,1.52-.87,1.89-1.46.31-.5.21-1.33.51-1.88.27-.51.86-.59,1-.8.17-.26.18-1.27.32-1.37.11-.08.45.21.58.19.23-.03.58-1.93.73-2.34.49-1.39,1.37-2.92,1.67-4.32.97-4.52,2.65-9.55,4.88-13.6.4-.73.68-2.07,1.62-2.38.66-.21,1.34-.46,1.98-.65,2.94-.91,2.01-.26,4.29.26,1.09.25,2.1-.12,3.13.58ZM63.42,86.86c-.65-.14-.41.2-.59.47-1.46,2.22-2,4.77-2.58,7.24-1.18,5.1-4.88,7.91-6.98,12.41-.84,1.81-1.33,4.23-2.21,6.16-1.19,2.62-3.52,5.09-4.88,7.57-.53.97-.77,2.39.49,1.21,2.59-2.42,4.97-5.02,7.17-7.9.22-.29.72-.4.93-.74.34-.54.19-1.28.53-1.87.3-.54.98-.65,1.28-1.11,2.97-4.6,4.51-10.93,6.05-16.2l.78-7.24ZM28.01,128.49c-.45-.49-1.19,1.27-.36.95.31-.12.51-.8.36-.95Z"/>
  <path d="M83.2,145.16c-.91,1.53-1.51,2.16-2.2,4.14-1.74,5.01-3.8,9.87-6.41,14.53-1.71.89-4.12,4.46-6.15,4.03-.61-.13-1.04-.77-1.45-.95-.78-.32-1.82-.47-2.54-.81-.91-.43-4.68-3.63-5.34-4.47-.74-.96-1.82-4.16-2.52-4.42-.39-.14-1,1.29-1.32,1.54-.4.98-1.2,3.36-2.49,3.26-.91-.07-2.21-2.49-3.55-2.18-.32.07-.26.91-.88.73.71-2.02-2.59-2.51-3.75-3.19-.32-.19-1.13-.99-1.67-1.32-2.15-1.27-4.58-1.25-2.57-4.33.45-.68,1.82-1.6,2.18-2,.25-.28,1.91-2.34,1.95-2.49.24-.87-.48-.98-.78-1.52-.4-.7-.26-4.91.04-5.66.24-.6,1.37-1.39,1.84-1.99,1-1.3.61-1.16,1.94-2.37.82-.74,1.62-2.05,2.38-2.65.3-.24,2.72-1.91,2.29-.59-.04.12-1.82,1.17-2.14,1.46s-.53.73-.85,1.07c-2.83,3-4.97,5.25-4.41,9.89.11.96.67,1.18.69,1.27.33,1.54-1.66,2.66-2.4,3.54-.41.49-.54,1.19-.95,1.68-.54.65-1.51.76-1.44,1.89s2.71,2.43,3.65,3.02c.17.1.21.38.36.47.72.42,4.54,2.21,5.07,1.67.29-1.73.77-3.34,2.64-3.81.35,1.77-2.09,2.46-2.17,3.71s1.5,2.51,2.4,2.16c.22-.09,2.54-2.41,2.66-2.62.54-.96-.17-1.74.97-2.86.42-.41,1.37-.72,1.67-1.2.23-.37.15-.91.27-1.04.23-.27,1.08.21.86-1.08-.07-.41-3.18-3.37-3.7-3.72-.65-.43-2.6-1.15-3.37-1.41-1.1-.38-2.38-.02-2.93-1.26,2.07.15,4.76.71,6.63,1.62.43.21,3.22,2.62,3.57,3.01.31.33,1.33,1.81,1.3,2.17-.72.24-.65.82-.97,1.21-.47.57-1.55,1.26-1.67,1.92-.28,1.5,1.88,5.56,2.95,6.73.28.3,4.21,3.44,4.47,3.56.5.23.85-.07,1.22,0,1.4.29,1.66,1.66,3.57.23.63-.47,2.67-2.57,3.23-3.23,1.25-1.47,4.78-8.71,5.54-10.73.51-1.34.67-3.3,1.17-4.57.62-1.59,3.91-6.65,5.06-8.09,1.23-1.54,2.28-1.25,3.85-2.15,2.31-.65,9.43-.89,10.46-3.18.83-1.83-1.46-1.85-2.27-3.11.75.06,4.43,1.63,4.53,2.06-.24.69-1.01,1.73-1.54,2.25-2.42,2.37-7.71,2.13-10.93,2.94s-4.4,4.55-6.01,7.27Z"/>
  <path d="M60.15,137.9c.21-.34,1.58-1.52,1.76-1.82.46-.77-.1-1.92,1.75-1.6l-3.2,5.05c-.56.97-.51,2.57,0,3.54.1.2,1.22,1.74,1.41,1.94,2.37,2.61,6.03,2.77,9.29,2.09.58-.12,3.34-1.64,3.51-2.05,1.27-3.01-.01-6.52-2.05-8.88-1.03-1.2-5.49-3.31-7.15-3.38-.63-.03-2.62.5-2.76-.11-.23-1.06,2.4-.88,2.99-.83,6.74.54,14.07,7.01,9.55,14.09-.69,1.08-3.75,2.22-5.03,2.39-4.45.57-7.28-.28-10.14-3.69-.77-.91-1.3-1.8-1.15-3.04.03-.27,1.11-3.53,1.22-3.7Z"/>
  <path d="M69.73,122.11c.06-.1.34-.17.48-.34.39-.48.29-1.36,1.35-1.17-.77.84-1.55,3.07-1.37,4.15.05.29,1.58,2.84,1.86,3.13,1.68,1.68,4.81,2.18,6.93,3.12.52.23.81.67,1.26.89.33.16,2.31,1.1,2.44,1.09.4-.03,1.47-3.12,1.54-3.67.42-3.63-.77-8.94-4.08-10.95-.57-.34-2.89-.96-1.79-1.37,3.1-1.17,6.02,3.5,6.72,6.01.4,1.45.32,7.09.13,8.73-.03.25-.53,2.18-.59,2.28-.81,1.18-4.25-1.57-5.18-2.02-2.65-1.3-5.65-1.26-8.23-3.26-1.05-.81-2.41-4.17-2.21-5.35.03-.16.58-1.03.74-1.27Z"/>
  <path d="M74.13,172.68c.12-.07-.03-.48.38-.38,1.35.31,1.57,3.31,1.06,4.35-.24.48-.71.72-1,1.15-.69,1.01-.92,2.07-2.43,2.6-2.01.71-4.62-.52-4.67-2.75-.04-1.91,2.56-4.34,4.32-4.78.73-.18,1.96.03,2.34-.19ZM73.89,173.54c-.73-.64-2.86.44-3.46.97-.09.08-1.41,1.9-1.45,2.02-.13.4-.5,2.12-.32,2.35.79,1.03,3.05,1.09,4.02.27.55-.47,1.64-2.48,1.7-3.21.03-.37-.27-2.21-.48-2.4Z"/>
  <path d="M60.49,181.17c2.75-.5,1.79,2.7.99,4.12s-3.52,5.06-5.05,2.72c-.69-1.06-.13-2.92.43-3.98.2-.38,3.26-2.78,3.63-2.85ZM60.79,183.29c-2.03-.69-4.74,3.67-3.11,4.68,1.17.72,1.56-1.16,1.81-1.55.65-.99,1.6-1.7,1.3-3.13Z"/>
  <path d="M48.82,193.1c.05-.1-.03-.83.1-1.21.38-1.08,1.98-3.6-.43-3.58s-4.48,6.56-.8,5.45c.06-.02,1.09-.61,1.13-.67-.05.06.09.47-.11.72-.04.05-.96.68-1.02.71-1.65.81-3.17-.6-2.96-2.28.06-.51.39-.75.44-1.01.08-.43-.29-.77-.08-1.25.19-.43,1.86-1.81,2.29-2.03s2.2-.33,2.12-1.16c0-.1-.96-1.58.14-1.36.58.12,1.38,3.39,1.32,3.95-.02.17-1.27,2.71-1.47,3.08s-.58.49-.68.63Z"/>
  <path d="M90.06,126.25c.13.17,1.18,1.27,1.34,1.41,1.42,1.22,3.72,1.99,5.51,2.26.25.73-1.13.53-1.56.48-2.59-.31-4.83-1.31-6.07-3.74-1.56-3.07-1.15-3.98-.75-7.15.09-.69-.12-1.5,0-2.15.1-.52.56-.66.67-1.01.17-.56-.18-1.3.41-1.75.56,1.04-.43,2.14-.59,3-.1.6.06,1.25-.04,1.88-.46,3.06-1.06,4.06,1.07,6.76Z"/>
  <path d="M154.11,18.43c.08.08-.31,1.41.05,2.23.2.46.69.23.67.63-2.24,1.93-2.33.06-3.5-.69-.62-.4-1.38.05-1-1.05s2.26-.44,3.15-.64c.15-.03.22-.93.63-.48Z"/>
  <path d="M142.86,47.38c-1.84.76-6.84-4.51-5.74-5.74,1.37.28,2.04,2.1,2.99,3.11.87.93,2.06,1.52,2.75,2.63Z"/>
  <path d="M11.02,157.09c.02-.07.4-.35.47-.72.25-1.23.18-3.14,1.46-3.37.18-1.57.44-4.58,1.3-5.84.27-.39.37-.12.6.12-.56.45-.32,1.37-.6,1.8-.12.19-.58.17-.6.38-.02.18.26.52.2.88-.16.86-.33,1.76-.49,2.64-.19,1-.86.49-.91.78-.1.57.21,1.25.04,2.15-.24,1.22-.79,2.69-1.11,3.93-.12.48-.12.96-.11,1.45-.93.11-.24-.39-.24-.6,0-.93-.17-2.84,0-3.59Z"/>
  <path d="M14.7,189.42c1.05,1.06,1.8,2.73,2.89,3.93,2.06,2.29,5.65,3.93,8.15,5.96.3.24.56.56.59.96l.35-.48c.58.66,1.48.98,2.15,1.45.49.35,1.02.45.85,1.18l-6.38-4.27c-1.07-.12-1.8-1.12-2.41-1.5-.34-.21-.74.08-1.02-.09-.53-.33.44-.62.24-1.08l-.84.95c-.69-.97-1.39-1.95-2.18-2.84-.93-1.06-1.73-1.71-2.63-2.87-.6-.78-1-.31-.57-1.94.54-.12.54.35.81.62Z"/>
  <path d="M20.35,136.63c.38.38-3.82,4.82-2.87,5.98-.28.06-1.07-.1-1.19.01-.15.14-.22,3.6-1.68,3.58-.05-1.39.84-2.49,1.43-3.65.16-.32.44-.84.6-1.14.76-1.36,1.61-2.88,2.63-4.07.16-.19.85-.94,1.08-.71Z"/>
  <path d="M176.29,10.1c.97-.23,3.04-.16,2.66,1.21s-2.6.81-3.31.29-.09-1.33.65-1.5Z"/>
  <path d="M169.62,12.48c.66,1.14-2.59,2.75-3.21,1.89-1.09-1.5,2.51-3.11,3.21-1.89Z"/>
  <path d="M159.58,16.72c-.12.17-.94.17-1.22.29-.25.11-.86,1.18-1.58.06-.64-.99.39-1.6,1.26-2.01,1.21-.57,1.94,1.08,1.54,1.67Z"/>
  <path d="M38.77,207.21c-3.32-.6-6.18-2.59-8.61-4.78,1.8.36,3.39,1.92,4.95,2.82,1.22.71,2.57,1.12,3.66,1.96Z"/>
  <path d="M75.15,84.94c-.12-1.35.36-2.56-.02-3.89-.05-.16-.84-.48-.46-1.38,1.32.35,1.58,1.74,1.38,2.94-.08.48-.49,2-.9,2.33Z"/>
  <path d="M.49,165.22c0,.07.58,1.81-.24,1.08-.11-.1-.25-2.62-.25-2.98,0-1.7.18-3.54.25-5.28.01-.29-.18-.89.24-.84.11,2.65-.15,5.37,0,8.02Z"/>
  <path d="M55.04,150.99c-.62.78-1.06,1.75-1.63,2.55-.21.3-.25.66-.76.55-.48-.56,2.02-3.45,2.39-3.11Z"/>
  <path d="M148.96,28.84c.48.57.48,1.27.84,2.03l-2.15-2.28c.17-.96,1.01-.09,1.31.25Z"/>
  <path d="M77.06,191.66c.43.47-1.5,2.13-1.91,2.39-.39-.77,1.58-2.75,1.91-2.39Z"/>
  <path d="M5.75,152.9c-.82-.55,0-3.11.72-3.59-.66,1.33.03,2.37-.72,3.59Z"/>
  <path d="M55.52,206.5l-7.09,1.4-3.2.03,4.36-.54c1.9-.38,4.03-1.1,5.93-.89Z"/>
  <polygon points="107.45 157.45 105.9 158.89 104.81 159.12 106.42 157.69 107.45 157.45"/>
  <path d="M115.34,150.27c.17.2-.33,1.18-.55,1.36-.91.75-1.73.12-.73-.62.4.16,1-1.06,1.28-.74Z"/>
  <path d="M15.56,133.04c.19.17-1.03,1.53-1.21,1.72s-.98,1.11-1.18.91c.55-.65,1.07-1.75,1.6-2.34.22-.24.5-.54.79-.29Z"/>
  <path d="M11.02,162.23c-.08.88.11,1.9,0,2.75-.04.35-.18.74-.48.35.08-.88-.11-1.9,0-2.75.04-.35.18-.74.48-.35Z"/>
  <path d="M48.31,152.63c-.04.07-.68.18-.92.39-.26.22-1.54,2.2-1.92,1.79-.29-.31.11-.67.43-.88.8-.53,1.57-1.3,2.32-1.99.22.02.15.59.09.69Z"/>
  <path d="M79.93,188.79c.65.89-1.78,1.6-.84,0,.16-.28.81-.03.84,0Z"/>
  <path d="M42.12,207.7c.04.43-.8.25-1.07.23-.32-.02-1.45-.12-1.56-.47l2.63.24Z"/>
  <path d="M81.36,189.03c.41.94.12,1.51-.72.8l.72-.8Z"/>
  <path d="M119.65,146.2c-.42-.43,1.5-1.65,1.43-.84-.03.36-1.16.58-1.43.84Z"/>
  <path d="M118.69,147.88l-2.39,1.43c-.4-.39,1.97-1.64,2.39-1.43Z"/>
  <path d="M48.35,144.53c-.24.57-1.13.69-1.67.71.27-.63,1.06-.75,1.67-.71Z"/>
  <path d="M108.88,155.77c-.08.31-1.24,1.12-1.44.95.27-.53.77-1.06,1.44-.95Z"/>
  <path d="M11.74,188.07c-.86.22-.71-.45-1.2-.82l-1.67-1.09c1.09.03,2.21,1.08,2.87,1.91Z"/>
  <path d="M6.23,155.53c-.64-.23-.64-.82-.12-1.2l.12,1.2Z"/>
  <path d="M77.78,191.18c-.2-.2.4-.9.71-.96.24.48-.43,1.24-.71.96Z"/>
  <path d="M26.33,204.1c-.54.09-1-.21-1.2-.71.43-.03,1.02.27,1.2.71Z"/>
  <path d="M95.24,157.21c.25.25-.47.96-.72.72s.47-.96.72-.72Z"/>
  <path d="M6.47,148.83s-.16-.01-.23,0c-.03-.44-.08-1.04.47-1.2.02.25-.14,1.09-.24,1.19Z"/>
  <path d="M22.26,199.8c-.11.12-1.64-1.21-1.67-1.43.36-.06,1.96,1.12,1.67,1.43Z"/>
  <path d="M73.23,118.68c.37.37-.68.76-.71.72-.24-.3.49-.94.71-.72Z"/>
  <rect x="74.19" y="78.48" width=".48" height=".72"/>
  <path d="M112.71,152.9l-.72.72c-.08-.44.26-.79.72-.72Z"/>
  <path d="M7.91,162.95h-.48s0-.72,0-.72c.35.08.55.39.47.72Z"/>
  <path d="M7.67,145.24h-.48c-.08-.35.11-.5.36-.72l.12.72Z"/>
  <path d="M156.02,28c.07.33-.13.64-.47.72v-.72s.47,0,.47,0Z"/>
</svg>