<?xml version="1.0" encoding="UTF-8"?>
<svg id="Layer_1" data-name="Layer 1" xmlns="http://www.w3.org/2000/svg" viewBox="0 0 96.22 82.31">
  <path d="M89.65,7.67s-.02.54.1.79c.17.37.84.74.96.88.4.45.24,3.04.02,3.67-.1.3-.66,1.04-.8,1.31-.24.46-.18,1.05-.32,1.36-.02.04-.18.05-.23.13-.59.9-.79.49-1.06.76-.04.04-.03.21-.09.31-.04.06-.19.07-.21.16-.07.3.09.68-.04.96-.08.18-.67.44-.77.54-.09.09-.65.75-.67.8-.13.36.11.77.05,1.02-.07.28-.36.31-.47.5-.12.2-.2.67-.32.8-.16.17-.59.18-.74.35-.04.04-.59.89-.62.95-.33.64.04.88-.88,1.14-.17.05-.52-.12-.69.09-.13.15-.2.99-.28,1.28-.06.19-.27.18-.29.28-.06.28.05.61,0,.9-.02.1-.63.65-.64.7-.03.18.16.5.06.93-.08.34-.49.54-.51.61-.06.28-.11,2.35,0,2.53.04.07.21.06.26.2.19.51.04,1.65.32,2.03.02.03.57.57.6.59.4.28,1.48.56,1.98.82.45.24.35.77.38.81s.64.02.9.13.26.3.37.37c.4.27,1.05.5.91,1.14.42.12.14-.41.61-.28.07.02,1.04,1.04,1.08,1.11.15.22.19.76.24.79.08.06.32-.02.48.06.35.18.3.71.46.97.1.16.82.77.91.93.11.19-.02.49.07.75.02.06.89.76,1.01.9.44.49.47.71.75,1.23.85,1.55,1.32,2.09,1.75,3.94.03.11.24.1.26.2.11.44-.1,1.14,0,1.58.04.19.17.48.27.96.02.11.25.03.28.29.06.44-.53.76-.28,1.43l.41-.14c-.51.71.38,1.32.41,1.46.1.44-.05,1.12,0,1.61.09.8.16,1.66.26,2.46.03.26.25.12.29.39.1.67-.23.59-.27.73-.42,1.37.17,2.9-.21,4.27-.06.22-.22.2-.3.31-.06.08-.02.28-.07.32-.38.33-1.22.04-1.64-.12-1.56-.59-2.17-.23-3.69-.53-.11-.02-.11-.34-.46-.38-.57-.07-1.14.3-1.85-.05-.23-.11-.2-.39-.48-.44-.68-.13-2.46.02-2.92-.21-.56-.28-1.2-.44-1.93-.54-.37-.05-.78.03-1.16,0-.15-.7.33-.19.54-.54-.57-.14-1.2.29-1.69.26-.25-.01-.48-.19-.72-.23-1.48-.3-3.39-.58-4.84-1.13-.18-.07-.54-.85-.51.28-.42.03-.8-.15-1.2-.24-.13-.03-.3.07-.37.06-.37-.07,0-.61-.07-.91h-.55c-.1-.47.31-.2.59-.28.11-.03.06-.41.55-.27.1.03.08.25.18.27.82.18,2,.03,2.84.27.57.16,1.01.41,1.77.55,1.01.18,2.02.23,3.11.44.28.05.55.27,1.21.41.72.15,1.18.37,1.81.65-.02-.53.48-.51.93-.41.1.02.11.22.21.25.49.18,1.4.47,1.76.55.72.17,1.82.02,2.52.29.17.07.37.5.48.52.58.12,1.42-.08,2.02,0,.29.04.13.39.54.29.06-.02.09-.41.96-.29.25.04.18.25.29.28.36.08.88-.05,1.27,0-.15-1.03-.26-2.15.01-3.16.03-.11.24-.06.27-.3.05-.41.05-1.66,0-2.06-.03-.25-.25-.18-.28-.29-.23-.98.07-2.56-.29-3.75-.33-1.1-.23-2.25-.53-3.31-.32-1.12-1.1-3.37-1.68-4.38-.07-.12-.64-.49-.73-.63-.22-.35-.67-1.68-.9-1.97-.12-.15-.63-.19-.75-.34-.11-.14-.16-.69-.31-.96-.11-.19-.71-.58-.82-.74-.4-.57-.9-1.76-1.4-2.31-.17-.19-.64-.21-.87-.36-.29-.19-.97-1.14-1.3-1.28-.73-.3-.37,0-1.1-.54-.08-.06-.94-.47-1.22-.63-.24-.13-1.65-.73-1.71-.81-.1-.15-.11-.7-.17-.92l-.41.14c-.08-.81-.09-2-.28-2.77-.03-.11-.24-.04-.28-.29-.12-.84.28-.89.29-1.1.04-.43-.25-.31-.28-.44-.17-.61.25-.59.27-.68.12-.55,0-.72.33-1.36.5-.95,1.07-1.83,1.58-2.81.13-.25,1.18-1.21,1.42-1.6.16-.27.12-.77.25-.91.16-.19.69-.11.77-.19s.07-.8.15-.98c.07-.16.32-.01.42-.18.15-.25.18-.83.32-1.09.25-.5,1.02-1.83,1.47-2.03l.7-1.66c.07-.1.56-.2.7-.18.16.03,0,.34.22.28.01-.29,0-.74.14-.98.09-.16.4-.23.4-.31,0-.11-.59-.08-.4-.79.03-.11.23-.11.31-.27.24-.49.73-1.98.77-2.51.05-.58-.73-2.17-1.28-2.24-.3-.04-1.08-.04-1.38,0-.25.03-.18.26-.29.28-.74.16-1.91.03-2.67.17-.39.07-.31.37-.57.39-.46.03-.3-.18-.48-.35-.61-.58-.53.38-.85.52-.5.22-1.18-.02-1.65.09-.1.02-.08.24-.19.27-.39.09-1-.05-1.46.01-1.47.19-2.07,1.17-3.68,1.22-.54.02-1.05.01-1.57-.14-.06.06.19.49.14.54-.04.03-.7.16-.98.29-.15.07-.08.36-.45.26-.05-.01-.05-.46-.79-.27-.1.03-.08.23-.19.26-.39.1-.61,0-1.1.24-.84.41-.71.14-1.44.31-.09.02-.12.56-.83.12-.42-.26-.33-1.08,0-1.19.26-.09.63.04.91-.02.48-.11,1.66-.66,2.17-.86.2-.08,1.1-.17,1.2-.09.03.03-.37.7.18.66.61-.04.17-.35.24-.58.1-.35.61-.15.85-.22.12-.03.14-.3.42-.43.47-.21.95-.03,1.35-.12.09-.02.09-.22.2-.26.14-.05,1.46-.5.98-.01.88.2,1.15-.77,1.98-.81.22-.01.48.17.66.12.15-.04.17-.3.26-.35.63-.4,2.77-.14,3.54-.32.08-.02,1.3-.81,1.38-.82.86-.13,1.22.42,2.2.29.09-.01.83-.5,1.23-.55.16-.02,1.63.07,1.69.13Z"/>
  <path d="M60.74.21c.12.12.07.36.21.48,1.27,1.11.89.93,1.62,2.39.43.86,1.16,1.82,1.49,2.73.17.45-.07,1.04.03,1.18.15.2.58.09.63.13.02.02-.08.3-.03.51.1.39.44.48.44.52.01.41-.23.06-.41.07,0,.52-.17,1.19.54,1.09l.14-.41c.03.23-.05.51,0,.73.02.08.53.14.27.36-.07.06-.37-.19-.41-.14-.17.74.34.55.51.71.12.12.07.56.21.75.08.11.36.14.44.31.13.26.01.74.08.81.11.11.59-.26.39.82-.05.05-.98-.24-1.06-.31-.1-.08-.09-.29-.17-.41-.07-.09-.21-.09-.26-.21-.13-.32-.12-.85-.26-1.21-.07-.19-.24-.17-.28-.29-.6-1.51-.9-2.89-1.63-4.37s-1.33-2.94-2.25-4.25c-.11-.15-.05-.4-.15-.54-.02-.03-.63-.42-.67-.43-.78-.24-.82.26-1.12.4-.84.41-2.3.71-3.26,1.1-.27.11-.26.35-.51.45-.39.16-1.77.2-1.84.27-.06.05,0,.37-.14.47-.16.11-.45,0-.59.07-.52.22-1.39.77-2.04,1.1s-.56.53-.89.81c-.24.21-1.01.51-1.31.7-1.35.87-2.81,2.01-4.15,2.66-.43.21-1.22.84-1.53,1.16-.58.61-1.16.53-1.33.68-.22.19-.02.92-.92.9-.45,0-.42-.32-.58-.38-.33-.12-.81-.13-1.15-.29-.17-.08-.79-.76-.89-.8-1.15-.52-1.71-1.03-2.73-1.63-.2-.12-.67-.21-.8-.32-.18-.17-.17-.6-.41-.78-.3-.23-1.3-.59-1.7-.82-2.04-1.23-3.91-2.74-6-3.81-.93-.48-1.27-.78-2.05-1.31-.35-.24-1.93-.19-2.46-.31-.12-.03-.03-.26-.3-.28-.42-.03-.31.23-.44.28-.77.22-.89.16-1.65.54-.63.31-1,.04-.84,1.11l-.27-.54c-.19-.04-.33.05-.38.23-.16.51-.09,2.04-.03,2.63-.56-.19-.69.92-.67,1.31.01.21.26.35.26.54,0,.55-.79.94-.54,2.02.03.11.25.04.28.29.04.27-.04.61-.01.89-.59-.05-.55-.97-.41-1.36h-.41c.18.44-.21,1.85-.13,2.09.12.35.85-.09.42.99-.08.21-.28.15-.3.38s-.04,1.17,0,1.35c.03.11.46.07.27.36,0,.01-.19-.05-.31.17-.3.52-.13.8-.23,1.24-.02.11-.24.08-.27.18-.14.49.24.45.27.54.14.47-.23.44-.26.56-.12.4-.12,1.09-.29,1.42-.1.19-.72.74-.86.95-.18.28-.17.61-.26.75-.31.47-.83.71-1.04,1.48-.05.17.04.5-.02.59-.03.04-.89.2-.94.15-.07-.07.13-.45-.14-.41-.12.96-1.37.91-1.9,1.74-.15.23-.25.79-.36.86-.22.15-.6.05-.83.16-.47.22-.5,1.41-1.26.91-.06.17.2.63.14.68-.04.03-.31-.04-.44,0-.14.05-.11.29-.61.37-.32.05-.93-.03-1.13.1-.31.2.06.38.08.55.08.46-.45.28-.63.41-.05.04-.52.82-.78,1.03-.23.19-1.25.61-1.37.71-.04.03-.42.82-.47.88-.13.15-.43.11-.58.32-.16.23-.12.73-.26,1.04-.09.21-.61.4-.76.53s-.08.39-.27.33c-.04-.62-.98-.32-.82-.88.01-.04.2-.06.22-.11.58-1.39.88-.83,1.64-1.77.52-.64.59-.89,1.34-1.46.12-.09.87-.45.9-.49.15-.22.1-.76.3-.97.16-.17.62-.2.81-.31.48-.28,1.66-1.23,2.05-1.4.18-.08.59-.06.63-.1.06-.06-.03-.38.08-.54.09-.13.35-.09.44-.17,1.28-1.18,1.94-1.92,3.41-2.95,1.21-.85.99-1.09,1.8-2.08,1.13-1.38,1.21-.93,1.64-2.87.02-.1.24-.08.27-.19.21-.86.03-2.52.27-3.5.03-.14.25-.03.28-.16.07-.31-.23-.14-.28-.29-.06-.21-.05-1.88,0-2.17.03-.25.24-.17.28-.29.48-1.62-.09-4.28.28-6.07.02-.09.73-.62.82-.74.08-.11.47-.82.53-.96.08-.16-.07-.66.39-.84.52-.2,1.41-.06,1.71-.27.16-.11.24-.77.46-.83.58-.16.61.61.93.55.07-.01.43-.62.96-.56.26.03.19.26.29.28.65.15,1.12-.11,1.91.32.29.16.85.62,1.24.76.79.29,2.07.51,2.63,1.29.17.24.11.6.13.63.03.03.54-.12.84,0,.97.41,1.72,1.32,2.47,1.85,2.56,1.81,4.9,3.47,7.56,4.94.65.36,1.23.26,1.89-.04.15-.07,2.06-1.27,2.3-1.44.13-.09.63-.82.78-.92.31-.22,1.46-.51,2.04-.86.18-.11.95-.8,1.01-.81.22-.05.95.05.99,0,.02-.03-.03-.4.04-.57.28-.75.63-.46,1.15-.75.19-.1.96-.79,1.02-.82.66-.28,1.57.48,1.33-.72.38-.12.98.21,1.28.13s0-.49.21-.61c.35-.22,1.36.09,1.66-.12.19-.14.08-.56.14-.61.06-.06.33.04.43-.01.13-.07.11-.24.2-.26.22-.05.56.07.73-.06.14-.11.05-.45.21-.49.07-.02.58-.01.6,0,.26.24-.25.4-.27.54,1.02.24.71-.57.82-.68.04-.05.93.04,1.25-.14.1-.05.46-.4.74-.59.18-.12.45-.72.97-.19Z"/>
  <path d="M40.95,31.17c.32.36.17.49.36.81.38.63,1.08.88,1.56,1.3.31.28,1.23,1.71,1.39,1.76.66.18.84-.39,1.1-.52.17-.09,2.46-.8,2.69-.82,1.26-.12,2.22.17,3.4.28.56.05,1.24-.08,1.78-.01.24.03.19.23.3.27.2.09.49.07.63.14.15.08.05.29.12.38.1.13.37.08.48.21.27.31.65,1.1.9,1.42.59.77.75.28.92,1.61.06.46.07,1.33.04,1.8,0,.15.08.29.09.44-.11.16-1.58.06-1.81,0-1.33-.29-2.11-.26-3.57-.26-.62,0-2.3-.25-2.76.02-.07.04-.09.29-.23.39-1.4,1.03-1.27.42-2.26,2.21-.05.09-.24.08-.27.19-.13.5.24.44.27.55.05.2.04.98.01,1.21s-.24.18-.27.3c-.26.97.05,1.77-.01,2.76-.22-.03-.3-.91-.68-.54-.07.07.44,2.12-.55,1.43-.1-.07-.09-.32-.18-.43-.5-.67-.69-1.46-1.05-2.26-.03-.07-.21-.09-.26-.2-.12-.29-.19-1.08-.31-1.23-.17-.21-1.08-.23-1.37-.31-.12-.03-.09-.42-.69-.26-.11.03-.04.25-.29.28-.33.04-1.32.04-1.65,0-.24-.03-.15-.4-.95-.29-.27.04-.17.27-.46.36-.57.18-1.36.08-1.83.19-.13.03-.12.3-.32.38-.18.08-.76.05-.84.18-.16.25.25,1.06-.29.93-.05-.22.08-.82-.02-.93-.42-.47-1.92.16-1.95-.63-.04-1.09.19-.62.79-.76.11-.03.04-.25.29-.28.81-.1.99.13,1.88-.27.35-.16,2-.9,2.24-1.13.21-.2.23-.61.41-.78s.63-.21.73-.35c.15-.21.19-.87.27-1.17.03-.11.24-.06.27-.3.25-2.03-.02-4.12.12-6.14.04-.53.13-.86.42-1.29l.27.27c.04-.36.5-.38.41-.82.18-.08.14.56.41.27.03-.04-.02-.39.14-.48.17-.17.1.03.2.14ZM38.71,42.68c.23-.14,2.51.11,3,0,.11.55-.86.19-.95.54.26-.05.9.09,1.07-.02.12-.07.08-.75.43-.52.01,0-.02.2.1.27,1.09.71,1.45,1.18,2.13,2.35.18.31-.11.63.5.51v-2.25c0-.23.22-1.03.27-1.36.11-.65-.02-.44.26-1,.51-1.04,1.06-.98,2.03-1.48.16-.08.18-.26.27-.31.58-.31.94-.17,1.44-.28.12-.02.09-.28.35-.35.84-.23,3.46-.32,4.31-.2.51.07,1.03.48,1.7.28-.07-.85-.37-1.39-.81-2.08-.11-.18-.45-.7-.55-.82-.56-.73-.87-.47-1.54-.65-.12-.03-.04-.24-.29-.28-1.71-.22-3.67-.23-5.22.27-.22.07-1.02.08-1.1.17-.07.08.06.36-.1.39-.18.03-.91-.01-1.01.13-.05.07.39,1.53-.86.95-.15-.07-.09-.28-.18-.39-.38-.48-.25-.55-.47-.89-.42-.66-1.96-1.86-2.65-2.39-.14-.11-.18-.39-.27-.42-.59-.19-.3.91-.19,1.26.04.13.31.04.27.45-.02.25-.24.17-.27.3-.34,1.15.07,2.57-.27,3.65-.08.24-.4.41-.48.82-.09.47.17,1.58-.06,1.89-.09.11-.38.12-.42.08-.14-.13.26-.76.07-.95-.68.52-.4,1.23-.75,1.94-.22.45-.9.27-1.09.85.31,0,1.01-.11,1.26-.21.15-.06.09-.26.1-.27Z"/>
  <path d="M64.02,57.97c.07.12.05.77.5.8.42.03.3-.24.44-.28.17-.05.58-.06.79-.07,1.85-.05,3.7-.01,5.55-.04.98.25-.09.61-.04.84.1.2.81.39.81.55,0,.23-1.33.22-1.55.2-.68-.08-.39-.47-.77-.94-.25-.03-.17.45-.29.52-.09.05-.7.05-.78,0-.15-.1.02-.76-.7-.53-.09.38.31.32.41.41.03.02-.36.51-.53.39-.02-.01.02-.19-.11-.25-.45-.2-1.23-.15-1.7,0-.18.06-.2.37-.84.34-.88-.04-.29-.5-.56-.9-.48-.71-.54.52-.63.71-.42.97-.69,1.96-1.09,3-.06.16-.36.07-.26.45.01.05.41.02.28.83-.04.25-.24.17-.28.29-.31,1.03-.06,2.79-.28,3.62-.04.14-.33.13-.39.32-.15.44.12,1.03-.16,1.59-.46.92-.21,1.41-.27,2.48-.06.89-.26,1.99-.28,2.86,0,.67.23,2.01.15,2.46-.07.34-.38.28-.42.43-.24,1.02.14,2.04.01,2.98-.03.25-.26.18-.28.29-.1.47.29.96-.49.99s-.76-.32-1.14-.47c-.88-.35-2.18-.31-3.03-.75-.74-.38-.87-.29-1.5-.55-.13-.05-.9-.74-1.03-.8-1.16-.52-2.78-.77-3.99-1.3-.34-.15-1.17-.76-1.46-.88-.3-.13-1.25-.22-1.37-.31-.06-.05-.24-.56-.68-.78-.83-.4-1.31-.51-2.09-1.15-1.37-1.12-4.22-2.61-5.25-4.09-.31-.45-.85-1.13-1.09-1.5-.06-.09-.57-1.08-.59-1.14-.09-.38.05-.92,0-1.32.05-.37.87.43.94.55.19.31.37,1.06.64,1.41,1.7,2.25,4.25,4.01,6.7,5.55.93.58,1.96,1,2.88,1.62.61.41.28.17.99.37.44.12.64.47.91.58.56.22,1.02.22,1.62.46,1.94.77,3.97,1.56,5.85,2.43.16.07.15.26.36.33.17.06,1.56.26,1.63.24.38-.11.19-2.01.24-2.49.06-.55.38-.83.4-.96.16-1.22-.17-3.48.27-4.61.06-.15.24-.05.27-.17.06-.31-.23-.14-.28-.29-.05-.18-.04-1.38,0-1.62s.24-.19.27-.3c.28-1.03.27-1.92.55-2.86.7-2.34.68-4.85,1.38-7.29.17-.58.14-.79.27-1.37.03-.15.79-.67.54-1.05.04-.05.48.1.52.17Z"/>
  <path d="M10.77,56.04s.06.31.14.44c.06.09.24.07.27.19.18.73-.25.73-.27.82-.35,1.55-.41,3.17-.83,4.71-.29,1.04-.25,2.18-.54,3.28-.03.12-.4.06-.27.55.03.1.38,0,.28.71-.04.26-.23.19-.32.37-.43.87-.11,1.52-.22,2.36-.03.25-.25.18-.28.29-.14.58.19,1.45-.15,2.01-.09.15-.31.16-.39.32-.19.4-.1,1.17-.23,1.65-.08.3-.29.28-.32.39-.27,1.01-.2,1.93-.54,2.87-.32.88.18,1.81-.15,2.76.35-.02.51-.09.61.27.13,0,0-.24.16-.28.51-.13,1.53.08,2.15,0,.23-.03.55-.19.78-.28.98-.35,1.97-.81,3.05-1.06.24-.06.54.04.77-.02.09-.02.09-.18.16-.22.11-.07.3-.03.33-.07.1-.1-.03-.48.02-.53s1.05.02,1.44-.13c.31-.12.28-.34.53-.44.5-.2,1.13-.03,1.67-.22.27-.1,1.18-.68,1.52-.82,1.03-.43,1.86-.62,2.85-1.1.81-.39,1.1-.38,1.86-.56,1.55-.37,3.23-1.75,4.87-2.46s2.8-1.57,4.36-2.18c.12-.05.7-.66,1.06-.26.24.27-.56.29-.27.54.1.08.52-.16.54-.14.37.51-1.29.82-1.63,1.02-.46.27-.59.4-1.2.71-.41.21-1.79,1.36-1.91,1.4-.39.12-1.34.06-1.71.27-.05.03-.45.69-.81.86-.32.15-.69.14-.95.25-1.12.47-3.07,1.63-4.16,1.89-.3.07-.88-.04-1.18.14-.16.09-.01.35-.18.42-.53.23-1.48.16-2,.27-.09.02-.09.21-.21.25-.22.08-.8.19-.94.33s-.11.43-.19.49c-.14.1-.62-.04-.85.01-.14.03-.03.23-.16.28-.34.11-.14-.35-.21-.41-.11-.09-.63.11-.81.14l.54.34c-.16.22-.41.15-.64.26-.06.03-.07.21-.11.22-.59.18-.05-.78-.91-.27-.63.37-.58.29-1.23.55-.16.06-.97.82-1.15.91-.59.32-1.5.35-2.13.47-1.01.2-1.42.71-2.76.66-.32-.01-1.41-.25-1.58-.5-.1-.15-.05-.47-.16-.57-.09-.08-.3.05-.38-.12-.17-.37.03-1.71.15-2.13.03-.12.24-.04.28-.29.12-.81-.27-.78-.28-.83-.1-.38.21-.3.26-.44.4-1.18.54-3.03.83-4.29.02-.11.23-.11.26-.2.43-1.56-.05-2.76.72-4.17.1-.17.35-.2.39-.32.12-.48-.05-1.55,0-2.15.19-2.17.63-3.57,1.08-5.48.14-.6-.12-1.62,0-2.26.02-.12.51-.35.53-.47.06-.3-.03-.67,0-.99.19.16.65-.01.67,0Z"/>
  <path d="M68.37,44.36c1.08.5,3.38.66,4.74,1.03.22.06.19.24.3.27.28.08,1.53.23,1.64.31.24.15.16,1.07.02,1.34-.22.05-.06-.2-.23-.27-.67-.27-1.42-.16-1.99-.28-.29-.06-1.53-.7-1.93-.82-.78-.25-1.92-.09-2.71-.26-.11-.02-.04-.25-.29-.28-.89-.11-2.53-.2-3.41-.12-1,.08-2.95.77-3.91,1.24s-3.22,2.34-3.89,3.29c-.35.51-.75,1.14-1.13,1.7-.94,1.37-1.75,2.92-2.46,4.42-.23.48-.5,1.77-.56,1.85-.08.1-.34.06-.48.21-.06.06-.34.77-.39.78-.12.03-.89.02-.98-.04-.32-.43-.77-.94-1.17-1.28-1.47-1.3-3.09-3.04-4.89-3.6-.13-.04-.07-.4-.56-.26-.08.02-.06.44-.68.27-.1-.03-.09-.24-.19-.27-.23-.06-1.35-.05-1.62-.01-.25.03-.18.26-.29.28-1.37.3-2.85.09-4.09.78-.19.1-.18.32-.43.39-.36.1-1,.03-1.29.19-.16.09-.03.33-.17.43-.61.41-1.49.63-2.17,1.07-.12.08-.15.31-.25.37-.65.42-1.4.54-1.83,1.31-.09.15,0,.39-.05.49-.08.12-.52.08-.63.19-.12.12-.06.59-.2.75-.44.49-1.9.3-1.31-.43s1.69-1.6,2.4-2.3c.13-.12.08-.35.22-.47.69-.64,5.79-3.33,6.61-3.56.77-.22,1.69-.13,2.39-.29.11-.02.03-.25.29-.28.66-.09,2.9-.09,3.56,0,.25.03.18.25.29.28.55.13,1.18-.18,1.78.23.27.19.24.53.44.76.62.71,1.53,1.02,2.16,1.73.93.25,1.49,1.1,2.13,1.78.5-.15.44-.6.63-.98.36-.72.71-1.51,1.12-2.25.54-.96,1.37-1.96,2-2.83,1.98-2.75,3.6-5.02,6.78-6.33.95-.39,5.81-.91,6.67-.51Z"/>
  <path d="M58.71,21.45s.15.38.15.47c.02.63-.45.45-.64.64-.22.22-.59,1.14-.76,1.28-.28.25-.58.3-.77.82-.34.98-.36,2.44-.25,3.47.04.36.63,1.99.82,2.25.32.44,2.03,1.83,2.59,2.17.25.16.66.19.93.33,1.46.76,2.76,1.51,4.1,2.4.17.11,1.58.6,2.05.85,1.1.59,2.14,1.26,3.17,2.04.58.44,2.46,1.87,2.76,2.41.13.23.08.58.17.75.17.31.98,1.37,1.02,1.61.06.36-.19.48-.21.76-.02.26.36,1.01-.07,1.15-.66.21-.42-.85-.48-1.13-.02-.09-.23-.09-.26-.2-.36-1.25-.4-1.59-1.47-2.49-.29-.24-1.05-.59-1.35-.86-.45-.42-.71-1.01-1.25-1.3-1.25-.67-2.4-1.46-3.61-2.15-1.54-.87-3.05-1.48-4.56-2.21-1.94-.93-4.06-2.61-5.16-4.55-.41-.72-.76-3.95-.58-4.77.02-.1.22-.11.25-.21.77-2.02.98-2.06,2.72-3.25.14-.1.26-.57.68-.3Z"/>
  <path d="M29.15,18.45s.16.49.25.63c.28.43.56.34.3,1.16-.09.28-.14.32-.26.83-.03.13-.25.04-.28.16-.08.32.75.3.54,1.06-.02.09-.2.09-.25.21-.3.78-.21,1.1-.15,1.93.17.08.17-.59.41-.27.21.28-.26.44-.27.5-.12.54-.08,1.29-.26,1.89-.07.23-.38.24-.29.6-.33-.1,0-.95-.54-.82.04.2-.07.86.01.94.06.06.37-.07.4.08.19.93-.39.97-.42,1.11-.09.37.11.97-.13,1.4-.17.08-.16-.58-.41-.27-.1.13.1,1.48-.02,1.82s-.68.02-.53.56c.02.07.32-.03.29.41-.02.25-.24.17-.28.3-.17.55-.21,1.76-.7,2.14-.1.08-.32.04-.38.1-.05.05-.05.69-.19.97s-.68.44-.65.7l.27-.07c.12.55-.27.43-.53.63-1.22.98-1.44.81-2.91,1.15-.12.03-.05.23-.3.27-.8.12-.68-.23-.94-.31-1.13-.33-1.67-.08-2.75-.11-.73-.02-2.05-.07-1.96-1.01.04-.11.11-.16.21-.2.4-.13,3.32-.06,3.93-.02,1.12.08,1.55.29,2.83,0,.1-.02.1-.21.2-.25.78-.33,1.91-1.18,2.18-2.02.4-1.27.99-2.59,1.41-3.91.46-1.46.41-3.19,1.08-4.53.4-.8.05-5.22.13-6.52.01-.21.09-.91.14-1.05.07-.19.66-.31.8-.22Z"/>
  <path d="M35.93,19.3c1.47.52,3.63,1.63,4.87,2.69.82.7,1.57,1.69,2.37,2.43,1.15.25,2.65.37,3.78.01.24-.08.16-.26.39-.29.86-.12.82.23.98.28.66.2.42-.53.77-.77.17-.12.49-.09.69-.2.17-.09.19-.31.26-.35.44-.25,2.42-.55,2.99-.86.16-.09.59-.75.82-.86.52-.24,1.05-.13,1.5-.24.13-.03,1.33-.79,1.42-.81.36-.08.88.05,1.27,0,.14,1.36-.12.82-.85,1.1-.12.04-.08.2-.3.27-.4.12-1.7.11-1.85.26-.27.29.34.21.27.41-.43.21-1.61-.08-1.64.48,0,.06.28.07.28.13-.03.83-2.22.15-2.45.34-.3.25.24.26.26.28.32.46-.88.37-.99.41-.26.09-.13.45-.32.53-.24.11-.77.05-1.03.14-1.48.53-2.49.98-4.25,1.09-.37.02-1.55.03-1.9,0-.64-.07-.98-.68-1.41-1.09-.54-.51-1.12-1.24-1.73-1.77s-3.73-2.42-4.51-2.71c-.65-.24-1.49-.09-1.42-1.1.58-.03,1.17,0,1.72.19Z"/>
  <path d="M16.72,38.38c1.38.67,3.54,2.21,4.78,3.26.75.64.96,1,1.84,1.61,1.12.77,1,.97,1.74,1.79.45.5,1.67,1.41,1.96,1.88.19.31.16.8.25.92s.43.08.5.19c.33.53.4,1.76.58,2.46.48,1.95.55,4.96.27,7.13-.03.26-.26.13-.29.39s-.04,1.13.01,1.35c.02.1.24.09.27.18.13.48-.22.43-.26.56-.13.39.1,1.05-.61.86-.15-.04-.03-.27-.15-.28l-.34.27c0-.89-.12-2.08-.01-2.94.03-.25.26-.18.28-.29.37-1.67.22-5.55-.28-7.05-.22-.66-.02-1.52-.27-2.14-.08-.19-.69-.58-.77-.69-.15-.22-.07-.61-.32-.85-.95-.92-2.14-1.86-3.14-2.7-.52-.44-.72-.83-1.14-1.18-.27-.23-1.37-.63-1.41-.7-.11-.18.05-.71-.03-.79-.03-.03-.37.02-.54-.07-.18-.09-.2-.36-.32-.43-.22-.14-.55-.2-.79-.33-.31-.18-2.24-1.29-2.36-1.48-.1-.14-.02-.39-.11-.52-.05-.07-.21-.02-.23-.03-.12-.11.16-.14.21-.19.3-.3.12-.44.69-.16Z"/>
  <path d="M8.06,44.73l.68-.41c-.04.21.06,1.02,0,1.09-.23.29-.31-.56-.54-.27-.26.33.26.6.27.64.07.31-.09.68.07,1,.13.27.65.15.48.72-.03.11-.25.03-.28.29-.05.4-.05,1.66,0,2.06.04.27.41.47.29,1.36-.03.25-.4.12-.29.81.04.25.24.17.28.3.05.15.26,2.03.28,2.3.02.33-.18.67-.14.93.02.16.52-.02.56.42.06.7-.49.59-.86.89-.14.11-.03.33-.23.27.1-.45-.47-.2-.55-.27-.13-.11.13-.84.12-1.03-.01-.21-.25-.37-.27-.67-.05-.86.12-1.93.02-2.74-.03-.27-.27-.08-.3-.53-.03-.6.25-.46.28-.58.06-.25.1-2.36,0-2.54-.83-1.41-.1-3.53-.55-5.17-.04-.14-.46-.91-.53-1.26-.1-.48.27-1.01-.42-.88.45-.52-.38-.93-.4-1.05-.04-.22.04-.44-.04-.69s-2.33-2.43-2.69-2.86c-.7-.83-1.46-1.61-2.33-2.4-.36-.33-.68-.1-.67-.97,0-.4.97-.2,1.2-.11.1.04,1.34,1.3,1.52,1.51.1.11.11.36.28.51.26.23.63.12.83.3.28.25.18.7.3.96.06.12.77.9.88,1.08.09.15.14.57.17.59.05.03.31-.1.45-.09.56.04.67,1.11.65,1.57.22-.09.78.57.8.66.05.24-.04,1.08,0,1.13s.5-.05.55,0c.04.03-.03.58,0,.75.02.16.14.37.14.4v1.98Z"/>
</svg>