<?xml version="1.0" encoding="UTF-8"?>
<svg id="Layer_1" data-name="Layer 1" xmlns="http://www.w3.org/2000/svg" viewBox="0 0 134.67 76.39">
  <path d="M127.34,67.1c-.9.02-1.8-.13-2.7-.08-.42.02-1.85.09-2.16.17-.07.02-.02.15-.17.17-.14.02-.6.02-.72,0-.06-.01-.05-.14-.11-.16-.29-.08-.27.15-.32.16-.62.14-1.61.08-2.25.16-.15.02-.08.15-.23.17-.4.06-.91-.26-1.54-.17-.31.04-.89.24-1.36.25-1.27.03-3.68-.2-4.82.08-2.55.62-5.22-.02-7.84.31-.15.02-.08.15-.23.17-.4.05-.92-.05-1.33,0,.05.16.56.05.64.17.02.03.04.23-.04.24-.2,0-.43-.03-.62-.09-.06-.02-.06-.14-.12-.15-.24-.05-1.34-.05-1.58,0-.07.02-.02.22-.25.16-.04,0,0-.15-.16-.17-.49-.07-.46.17-.49.17-.08,0,0-.14-.09-.16-.14-.04-1.25-.03-1.44,0-.15.02-.11.15-.17.17-.28.07-1.54.08-1.82,0-.07-.02-.06-.14-.12-.15-.17-.05-.77.42-.96.16-.1-.14.19-.44-.6-.32.1.18.32.11.24.4-.33-.01-.67.02-1.01,0-.63-.04-1.18-.32-1.78-.25-.15.02-.1.14-.17.16-.4.12-1.35-.02-1.84,0-.94.04-1.4.05-2.33,0-.45-.02-1.12.07-1.51,0-.02,0-.2-.19-.22-.22-.07-.14.13-.34-.29-.26-.15.03-.25.38-.36.49-.08.08-.07-.23-.19-.17-.93.15-2.19-.25-3.06-.08-.1.02,0,.23-.09.25s-.45.02-.55,0c-.1-.02-.15-.23-.66-.16-.13.02-.14.21-.42.23-.19.01-.35-.08-.45-.07-.05,0-.05.17-.09.17-1.12.07-2.39-.17-3.54-.17-.19,0-.37.09-.56.09-.69-.01-1.15-.35-1.94-.25-.15.02-.1.15-.17.17-.36.1-.35-.15-.4-.16-1.17-.27-2.74-.14-3.8.15-.74.2-1.77-.06-2.7.17-.09.02-.08.21-.19.24-.05.02-.83-.08-1.04-.08-.58,0-1.12.09-1.7.16-.6.07-1.11-.24-1.67-.06-.11.03-.08.19-.3.26-.82.24-1.45.07-2.2-.03-.51-.07-1.27.1-1.76,0-.07-.01-.24-.32-.27-.32-.26,0-.3.31-.47.33-.96.14-2.54,0-3.63.07-.64.04-1.77-.24-1.32.82.34.81.15,1.01.32,1.7.11.46.34,1.16.48,1.65.04.13.13.95.17.99.03.03.37-.13.48-.08.21.57-.67.64-.81.16-.13-.03-.06.11-.09.14-.36.26-.34-.7-.39-.89-.22-.78-.62-1.7-.8-2.45-.06-.26.07-.62-.06-.9-.08-.17-.25-.05-.27-.14-.03-.12.07-.66-.04-.68-.47.09-1.33-.01-1.75.08-.08.02-.02.22-.26.16-.03,0,0-.23-.41-.17-.16.02-.08.15-.23.17-1.04.13-2.43.02-3.48.15-.15.02-.08.15-.23.17-.98.12-2.34-.16-3.31.15s-2.56.19-3.71.32c-.15.02-.08.16-.23.18-.19.02-.54-.24-1.06-.17-.15.02-.08.15-.23.17-.88.11-1.94.04-2.83.15-.15.02-.08.15-.23.17-.99.13-2.24.02-3.23.15-.15.02-.08.15-.23.17-1.19.15-2.85-.11-4.01.16-.07.02-.03.14-.18.16-.92.11-1.77-.03-2.61.31-.11.04-.28.02-.37.08-.07.05-.06.21-.13.29-.06.07-.18.09-.22.14-.1.14-.1.45-.1.62-.64.07-.29-.77-.41-.96-.03-.05-.71-.18-.83-.17-.16.01-.32.12-.5.15-.96.17-1.81.37-2.81.49-.85.1-1.55.36-2.42.48-.82.11-1.59.31-2.35.48-.25.06-.57-.04-.87.08-.19.07-.19.23-.26.24-.16.04-.41-.03-.59,0-.07-.32.35-.07.48-.2-.17-.25-.73.03-.72-.32,0-.18.5-.08.55-.13.04-.04-.02-.24.14-.3.2-.07.56.04.78-.01.07-.02.02-.15.17-.17.5-.07.88.13,1.4-.13.55-.28.55-.16,1.08-.3.15-.04.14-.19.21-.21.3-.06.77.04,1.1-.1.11-.05.11-.18.2-.22.72-.34,1.47,0,2.18-.31.37-.16.46-.1.76-.17.06-.01.05-.14.11-.16.11-.03.59-.03.7,0,.06.01.04.24.5.17.15-.02.1-.14.18-.16.2-.07.6.04.51-.29-.01-.04-.15-.03-.16-.1-.04-.19.03-1.13-.09-1.23-.04-.04-.29.03-.32,0-.02-.01.02-.25-.01-.35-.15-.44-.94-.27-1.32-.29-1.05-.07-2.25-.24-3.29,0-.06.01-.05.14-.11.16-.17.04-.37-.04-.57.06s-.15.29-.19.33c-.04.03-.5.05-.65.1-.09.03-.22.28-.25.29-.88.32-1.9.42-2.82.67-.08.02-.05.18-.27.22-.36.07-.57-.07-.87-.06-.17,0-1.91.38-2.15.44-.15.04-.14.19-.21.21-.27.06-.82.07-1.09,0-.07-.02-.06-.14-.12-.15-.78-.18-1.41.21-1.63-.85-.03-.15.02-.32,0-.46-.29-1.28-.45-1.98-.56-3.4-.04-.47-.43-1-.23-1.43.04-.08.23-.05.16-.33-.02-.06-.15-.02-.17-.17-.02-.17-.02-.65,0-.82.02-.15.15-.11.17-.17.1-.4-.23-.64-.24-1.11-.09-2.61.11-5.26,0-7.9-.01-.32-.03-1.29-.09-1.51-.01-.06-.24-.03-.16-.33.01-.05.27-.05.16-.48-.02-.07-.14.01-.16-.25-.04-.45.16-.37.17-.41.06-.23-.15-.18-.16-.25-.13-.58.03-1.5-.17-2.06-.03-.08-.22-.05-.16-.26.02-.06.2.02.16-.16-.02-.07-.14-.01-.16-.09-.03-.11-.07-2.11-.04-2.21.05-.19.26-.08.21-.44-.02-.15-.14-.11-.16-.18-.08-.26-.1-.66-.17-.93-.02-.07-.14-.03-.16-.18-.03-.16-.05-.42.17-.37v-.08c-.49-.1-.15-.95-.16-1.33,0-.29-.13-.74-.16-1.05-.14-1.15-.18-2.36-.32-3.55-.04-.31-.23-.89-.25-1.36-.04-.97,0-.9-.23-1.8-.15-.58.03-1.44-.08-1.82-.02-.08-.2-.05-.29-.13-.2-.19-.08-.54-.12-.75-.01-.06-.14-.05-.15-.12-.22-.93-.25-2.09-.49-2.94-.02-.08-.18-.05-.22-.27-.05-.27.04-.66-.03-.86-.04-.12-.21-.07-.24-.25-.02-.12-.02-.44,0-.55.01-.06.15-.02.17-.17.1-.78-.18-1.91.16-2.64.05-.1.18-.1.23-.19.39-.64.26-1.35.41-1.99,0-.03.25-.54.29-.6.07-.11.48-.49.51-.57.13-.35.08-1.03.17-1.41.01-.06.14-.04.17-.17.12-.56.16-1.35.44-1.81.02-.04.57-.66.6-.69.05-.04.17-.03.22-.06.15-.14.13-2.2.18-2.58-.22-.38-.72-.11-.64-.58,0-.05.31-.06.43-.12.02-.01.37-.35.38-.38.07-.35-.04-.88,0-1.27.03-.24.28-.79.31-.91.13-.57.09-1.49.34-1.88.31-.5.25,0,.66.02.45.33-.21.62-.25.77-.09.25-.01,1-.1,1.34-.12.5-.27,1.03-.32,1.63-.05.65-.03.41.26.53.1.04.01.19.26.17.15-.01.1-.14.18-.16.25-.07.67-.12.95-.17.84-.14,1.51-.16,2.36-.48.57-.21,1.23.03,1.81-.17.63-.22,1.11-.15,1.69-.32,1.21-.36,2.44-.6,3.66-.95.24-.07.47-.24.88-.25.28,0,.74.25.92-.09-.18-.06-.78.16-.73-.16l5.24-1.05c-.03-.33-.49-.28-.77-.25-.14.02-.11.14-.18.16-1.6.38-3.14.26-4.74.48-.16.02-.08.15-.23.17-.71.09-2.13.02-2.73.16-.07.02-.02.15-.17.17-.12.02-.62.02-.72,0-.08-.02-.05-.15-.05-.16-.17-.12-.15.14-.21.16-.48.13-1.5.03-2.07.16-.19.05-.42.12-.72.18-.49.09-.93.38-1.39.39-.18,0-.34-.08-.52-.08-.04-.65.43-.52.9-.65,1.05-.29,1.87-.55,3.08-.64,2.32-.17,4.87-.27,7.11-.8.51-.12,1.35-.06,1.82-.16,1.33-.31,2.95-.36,4.36-.49.84-.08,1.69-.38,2.59-.47,1.78-.18,3.47-.38,5.24-.65,2-.29,4.37-.35,6.3-.8.11-.03.58-.08.71-.08,1.47-.04,2.92-.18,4.29-.56.69-.19,1.63.03,2.3-.17.07-.02.02-.14.17-.16.47-.07.44.15.5.17.29.08.27-.15.32-.16.41-.09.96,0,1.41-.17.54-.19,1.07-.17,1.69-.32,1.12-.27,2.47-.05,3.63-.32,1.61-.38,3.54-.39,5.25-.57.47-.05.72-.38,1.37-.23.07.02,0,.21.34.17.15-.02.11-.14.18-.16,1.36-.36,3.19-.11,4.47-.49.98-.29,2.16-.11,3.24-.15.48-.02,1.04-.13,1.52-.17.71-.05.95.05,1.63-.15.53-.16,1.42-.07,2-.08s1.14.02,1.7-.08c2.38-.42,5.02-.02,7.41-.32.15-.02.08-.15.23-.17.95-.12,2.67.12,3.53-.16.09-.03.03-.21.26-.16.04,0,0,.15.16.17.13.02.62.02.72,0,.08-.02.02-.15.09-.16.19-.04.08.14.17.16.12.03,1.11.03,1.28,0,.15-.02.11-.15.17-.17,1.05-.24,2.65-.01,3.78-.16.15-.02.08-.16.23-.17.21-.03.46.24.97.17.15-.02.11-.15.17-.17,1.14-.25,2.83,0,4.02-.16.15-.02.08-.15.23-.17,1.03-.13,2.57.08,3.54-.15.06-.01.05-.29.21-.16.03.02-.08.21.29.16.16-.02.08-.16.23-.17,1.11-.14,2.64.08,3.7-.16,1.18-.26,2.34-.16,3.57-.31.15-.02.08-.15.23-.17.87-.11,1.94-.05,2.91-.15s1.68-.13,2.66-.16c.2,0,.45-.15.6-.04.1.07,0,.26.36.21.15-.02.1-.14.18-.16.74-.22,1.95,0,2.71-.17.06-.01.02-.15.17-.17s.75-.02.88,0c.06.01.05.14.11.16.29.08.26-.15.33-.16.52-.12,1.58-.05,2.07-.16.06-.02.02-.14.17-.17.47-.07.42.16.56.17.22.03.92.03,1.14,0,.15-.02.11-.15.17-.17,1.23-.27,2.88-.02,4.18-.02.75,0,2.74-.26,3.33,0,.1.04.09.17.15.18.17.04.4-.02.59,0l-.81.16c.23.12,1.24-.13,1.29-.08.01.01-.02.14.03.21.04.06.2.09.21.24,0,.17-.21.16-.3.33-.12.23-.05.56-.1.77,0,.04-.44.61-.47.69-.23.63-.29,1.45-.5,2.13-.02.06-.13.05-.15.12-.08.29-.05.92-.16,1.18-.05.11-.22,0-.25.1-.11.38.02,1.02,0,1.45,0,.34-.01.71-.03,1.04,0,.2-.2.16-.22.33-.07.47.15.42.17.56.03.21.03.85,0,1.06-.02.15-.15.1-.17.17-.1.37.21.36.28.67s-.01.6.04.83c.23.98.21,1.59.24,2.67.03,1.02.21,1.76-.09,2.8-.02.07-.14.04-.16.18-.05.42-.05,1.76,0,2.19.02.16.16.12.17.16.06.24-.14.18-.16.25-.08.3.15.27.16.33.03.13.03.65,0,.8s-.15.1-.17.17c-.04.18-.19,1.22-.16,1.34.02.07.16.03.17.17.02.51-.17,1.33-.17,1.86,0,.34.16.74.09,1.13-.03.18-.18.15-.24.26-.12.2.06.43-.4.34-.07-.45.07-.91.08-1.33.03-1.04-.13-2.41,0-3.39.02-.16.16-.08.17-.23.02-.26-.15-.15-.17-.32-.07-.52-.07-2.31,0-2.83.02-.15.15-.11.17-.17.03-.15.03-.79,0-.96-.03-.25-.23-.36-.23-.55,0-.22.25-.23.29-.34.04-.14.01-.76-.07-.84-.13-.12-.29.36-.46.34-.06.22-.09.43-.11.66-.07,1.17.16,2.13-.07,3.31-.14.74-.13,1.86-.33,2.56-.27.92-.11,1.83-.15,2.84-.02.37-.17.76-.17,1.13,0,.77.19,1.88,0,2.64-.02.06-.14.02-.17.17-.06.41.15.33.17.48.04.3-.02.73,0,1.06.06,2.71.06,5.49.08,8.21,0,.92-.1,2.45.09,3.29.01.06.14.02.17.17.06.39-.26,1.05-.17,1.7.02.15.15.08.17.23.03.27.04,1.11,0,1.38-.02.16-.2.04-.18.4.01.27.15.18.17.25.1.36-.14.35-.16.4-.1.33.2.25.24.47.11.58-.08,1.37-.09,1.94,0,.5.26.97.09,1.49.43.12.54-.49.89-.28-.02.17.03.38,0,.54-.01.05-.12.04-.17.17-.68,2.15-.41,5.32-.4,7.66.01,1.73-.02,3.43,0,5.16.02,1.03.12,3.34-.09,4.26-.35,1.47-.22,3.1-.24,4.69,0,.85-.17,1.24.08,2.15.02.06.14.06.15.12.05.22-.12.7.28.51.17-.02-.1.31-.24.33-.11.01-.79.01-.84-.02-.04-.02-.1-.28-.15-.37-.53-.87-.17-.99-.35-1.74-.02-.07-.15-.02-.17-.17-.08-.58-.06-1.86.17-2.34l.16-4.64c-.6.02-1.18,0-1.77-.08v2.05c0,.21.3.2.36.28.05.07.15.52.12.6-.08.22-.69.34-.91.29-.06-.01-.05-.13-.12-.15-.15-.05-.49-.07-.59-.22-.15-.24-.02-.82-.16-1.1-.05-.1-.16-.05-.16-.06v-1.61ZM133.31,1.1c-.35-.25-.51-.08-.84-.08-1.23,0-2.48.04-3.71,0-.26,0-1.13-.23-1.24.04-.1.23.24.24.32.4.05.23-.27.07-.32.12-.02.02,0,.28,0,.36.08.59.95,1.89,1.27,2.45.08.14.26.61.35.71.08.08.22.05.28.13.04.05.02.21.1.26.11.08.47.03.55.14.1.14.12.98.18,1.21.02.06.12.06.15.12.04.1.02.27.08.37.05.07.21.06.29.13s.1.18.22.27c.11.08.34.11.39.18.11.16.08.59.16.77,0,.02.21.28.24.31.04.04.66-.68.64-.93,0-.03-.34-.02-.4-.41-.03-.18.1-1.71.16-1.83.38-.77.54-2.32.8-3.26.12-.42.09-.91.17-1.26.02-.08.26-.02.16-.21ZM125.41,1.67c-.26-.02-.34.2-.48.36.45.44.41.12.48-.36ZM115.57,1.76s-1.12-.03-1.23,0c-.06.01-.05.14-.11.16-.6.14-.39.13-.77.3-.1.05-.2,0-.25.02-.21.07.19.35.39.36.22,0,.77,0,.98-.03.15-.02.11-.15.17-.17.28-.07.68.07.99-.08-.09-.1-.15-.54-.17-.56ZM122.75,2.07c-.09-.06-.57.29-.77.32-.36.05-.87-.07-1.19,0-.05.01-.33.27-.75.31-1.07.1-2.11.23-3.21.33-.26.02-.94-.14-1.07.02-.04.05.03.21-.06.23-.34.07-.97-.04-1.36,0-.47.04-1.04.33-1.54.38-.18.02-.38-.13-.56-.13-.15,0-.28.14-.48.15-.49.03-1.45-.1-1.84,0-.07.02-.09.17-.19.23-.11.08-.54.26-.43.41,0,.01.14-.01.15.06.02.08.02.62,0,.7-.02.09-.2-.01-.16.17.02.07.14,0,.16.09.15.58-.29.43-.33.57-.02.06-.02.57,0,.59.05.05.35-.28.41.2.06.59-.34.95-.24,1.36.01.06.26.1.16.57-.01.05-.32.08-.16.21.04.03.52-.02.64,0,.06.72-.72.78-.73,1.41,0,.18.07.13.18.04.25-.2.11-.57.46-.48.06.27-.07.53-.08.77-.03.8.12.87.32,1.47.08.25.1.6,0,.84-.02.05-.12.06-.13.08-.1.23-.02.38.23.34.36-.05.24-.22.36-.36.05-.06.41-.26.55-.41.1-.11.27-.52.3-.54.09-.08.37.17.39-.39.02-.46-.84-.31-.88-.27-.04.03.04.66-.01.83l-.47.38c.03-.25-.05-.61,0-.85.02-.09.23.09.32.04.14-.44-.19-.47-.23-.77-.03-.23-.02-.7.1-.9.03-.05.18-.06.21-.15.03-.1-.08-.28-.06-.45.04-.33.29-.37.31-.44.03-.12-.04-.47,0-.5s.3.08.39-.14c.19-.49-.08-.63-.06-1.02.03-.42.12-.58.35-.87.06-.08.07-.23.13-.28.1-.08.47,0,.49.1.09.37-.15.72-.28,1.08-.04.1-.19.25-.19.28,0,.07.26.12.22.47-.02.19-.17.2-.25.32-.06.09-.08.26-.13.33-.19.23-.09-.1-.33.47-.04.09-.25.07-.16.41.03.1.32.09.24.34-.09.28-.76-.16-.56.55.03.12.37.17.46.25.23.19.22.73.78.46.04-.02.24-.45.3-.53s.18-.09.22-.14c.21-.29.12-.47.19-.72,0-.03.31-.22.16-.54l.32.38c.1.36-.14.35-.16.4-.03.11.02.49,0,.51-.07.07-.42-.17-.47.22-.03.24.08.56.06.86-.02.47-.34.75-.24,1.2.02.08.21.01.16.25,0,.03-.14.04-.19.14-.12.27-.16.49-.3.77-.26.56.01.7-.09,1.02-.08.24-.79.08-1.09.2-.13.05-.12.14-.2.2s-.23.06-.28.13c-.2.27.13,1.15.04,1.4-.07.19-.38.03-.4.41-.02.41.26.33.32.5.1.28,0,1.05.1,1.5.02.07.14.03.16.18.11.85-.28,1.43-.33,2.26-.11,1.62.24,3.24.16,4.84-.03.57-.36,1.15-.03,1.73.03.05.14.07.17.11.17.29-.08.64.7.46.06-.01.05-.14.11-.16.3-.07,1.3-.02,1.45-.19.28-.3.11-.83.19-1.13.01-.06.13-.04.15-.12.05-.15.02-.37.16-.54.01-.28-.3-.35-.32-.41-.07-.23.16-.17.21-.35.12-.46-.06-.91.44-1.25.04-.03.15.03.15.02.03-.03.19-.77.18-.83-.02-.12-.34-.05-.33-.21.43.06.28-.28-.1-.23-.07,0-.49.37-.52.41-.08.13,0,.45-.24.53-.19.07-.7,0-.95.01-.55.02-.97.27-.76-.67.02-.09.4-.94.48-1.08l.16-2.72c.66-.17.38-.8.5-1.2.05-.17.25-.17.31-.27.06-.09.19-.8.16-.83-.87.04-.18-.29-.16-.38.02-.09.01-.76-.02-.81-.04-.07-.22,0-.23-.29s.26-.55.38-.84c.04-.08,0-.2.03-.27s.14-.06.15-.12c.1-.42-.3-.47-.32-.7-.02-.4.31-.54.32-.59.04-.15-.03-.36,0-.53.01-.07.36-.27.4-.33.08-.12.05-.25.1-.34.09-.15.41-.26.44-.29.03-.03.16-.79.42-.54.03.03-.07.69-.08.75-.02.07-.15.02-.17.17-.02.29.19.19.24.33.15.44-.11.73-.55.68,0-.35.26-.59.16-.97l-.49.53c.17.41.29.62.17,1.08.06.07.88-.47.62.14,0,.02-.09.01-.13.09-.03.05.02.18-.02.24-.03.05-.19.05-.26.11-.08.06-.1.16-.16.2-.1.08-.32.06-.37.24-.09.34.28.22.41.28.07.03.06.14.11.15.08.02.57.02.59,0,.02-.02-.06-.32.2-.46.03-.02.24.02.28-.03.03-.04.02-.89.09-.96.04-.04.28.03.32,0,.03-.03-.02-.23.04-.32.09-.13.5-.07.53-.21.05-.2.04-1.67,0-1.93-.02-.15-.15-.08-.17-.23-.07-.53.15-.7.17-.89.03-.25.03-1.04,0-1.3-.02-.15-.15-.08-.17-.23-.06-.5-.05-1.3-.08-1.86,0-.15.22-.74-.2-.6-.16.05,0,.43-.39.33-.08-.02-.14-.28-.13-.36.03-.31.37-.23.41-.34.11-.31.02-.82.08-1.1.01-.05.12-.33.18-.56.07-.28.24-.33.3-.45.06-.12.11-.56.19-.64.07-.07.44-.09.47.03.04.17.03,1.31,0,1.52-.02.15-.24.07-.17.48.02.15.15.11.17.17.1.42-.26.78.4.67.03.03-.06.49-.09.58s-.21.04-.16.26c0,.03.15.03.16.09.06.26.03,1.07.09,1.26.04.12.22.11.24.17.06.21-.11.17-.15.26-.41.96.03,1.44,0,2.32-.01.3-.04,1.05-.08,1.29s-.3.09-.25.48c.02.15.2.11.24.41.11.72,0,1.31.24,1.95.17.47-.06,1.01.1,1.5.04.12.21.07.24.25.07.5-.3.74-.33,1.29s.18,1.46.17,2.1c0,.3-.15.65-.09.96.02.09.19.01.23.06.12.11.07.72,0,.89-.02.06-.14.06-.15.12-.04.16-.08,1.32-.03,1.46.04.11.2.08.25.31.08.36.02.96.1,1.26.02.08.17.09.2.14.42.79.26,1.49.45,2.36.01.06.54.43.25.75-.14,0-.36.27-.39.27-.56.12-1.16,0-1.67,0-.24,0-.52.2-.8.15-.21.32-.46.58-.38,1.01.04.2.22.17.25.26.03.11.02.66,0,.8-.02.15-.15.1-.17.17-.02.1-.08.6-.08.71,0,.28.23.3.24.33.05.24-.14.18-.16.25-.03.13-.09,1.72-.04,1.8.07.1.46.16.05.47,0,.13-.39.75-.33.82.14.17.18-.33.32-.16.05.06-.09.46-.09.6,0,.52.02,1.46.08,1.94.02.16.15.11.19.21.17.43-.1,2.19.14,2.99.31,1.03.09,1.83.16,2.92.05.74.36,1.43.4,2.1.05.78-.09,1.63.09,2.4.14.6.12,1.53.31,2.12.24.74.11,1.01.16,1.77.07,1,.23,1.94.35,2.88.06.47.33.68.37,1.16.07.77-.06,1.66.01,2.49.04.5.32.99.38,1.56.02.17-.08.35-.06.45.04.14.53.18.24.64-.05.08-.19.09-.25.17-.33.46-.38,1.52-.24,2.08.01.06.11.04.15.12.03.06-.04.2.05.27.12.1.79.09,1.02.16.07.02.04.23.33.15.06-.02.05-.15.11-.16.84-.19,4.69-.19,5.53,0,.06.01.05.14.11.16.28.08.26-.13.33-.15.43-.13,1.46-.01,1.66-.16.11-.08.02-.38.05-.52.01-.06.15-.02.17-.17s.03-.93,0-1.04c-.02-.09-.2.01-.16-.17.02-.07.14-.01.16-.09.04-.14.03-1.25,0-1.44-.03-.22-.24-.43-.17-.97.02-.15.15-.11.17-.17.21-.91-.2-2.86.17-3.59.04-.07.27-.05.15-.22,0-.01-.14.02-.16-.06-.06-.24-.06-.85,0-1.1.02-.07.14-.03.16-.18.02-.17.03-.89,0-1.04-.01-.06-.15-.06-.16-.09-.06-.23.13-.17.16-.26.13-.39.1-1.89,0-2.3-.01-.06-.15-.02-.17-.17-.04-.34.15-.27.17-.34.07-.27.06-1.9,0-2.15-.02-.07-.15-.02-.17-.17-.02-.16-.01-1.34.02-1.4.03-.05.18-.06.22-.14-.5-.22-.18-.74-.24-1.21-.13-1.07-.05-1.24,0-2.25.03-.73-.09-1.4-.08-2.18.01-.88-.06-1.74,0-2.62.77.2.15-1.2.24-1.29.75.02.13-.27.09-.37-.06-.16.01-.43-.02-.63-.23-1.45-.45-2.93-.07-4.3.02-.08.08-.46.08-.56,0-.18-.11-.42-.07-.54.05-.16.4,0,.4-.58,0-.36-.22-.34-.24-.42-.05-.18-.1-.75-.08-.94.04-.29.22-.28.23-.34.05-.23-.05-.5.04-.76.08-.23.43-.23.24-.48-.11-.01-.5.03-.52,0-.04-.04-.04-1.01,0-1.05.09-.09.71.2.56-.24-.29-.07-.18.2-.44.17-.16-.02-.1-.15-.17-.17-.19-.04-.58-.14-.71-.16-.31-.04-.78.06-1.03,0-.11-.03-.07-.21-.13-.28-.06-.07-.18-.03-.22-.07-.11-.11-.18-.28-.35-.36-.03-.44-.08-.91-.09-1.35-.01-.49.02-.95,0-1.45,0-.17.09-.33.08-.48-.02-.24-.31-.38-.32-.42-.08-.37.03-1.13-.09-1.51-.04-.11-.21-.1-.23-.19-.11-.43.05-1.53,0-2.08-.03-.37-.3-.94-.33-1.12-.09-.65.16-1.44-.16-2.08-.04-.09-.17-.09-.2-.14-.15-.27.02-.59.02-.85,0-.18-.13-.45-.07-.64.03-.09.23-.04.29-.12.14-.19-.04-.82-.05-1.09,0-.36.11-1.68,0-1.84-.05-.07-.2-.08-.23-.19-.02-.05-.09-1-.09-1.13,0-.23.17-.39.16-.72,0-.28-.19-.47-.18-.73,0-.16.19-.08.18-.24,0-.18-.15-.28-.17-.41-.05-.29.14-.5,0-.88-.06-.16-.26-.12-.17-.47.02-.08.22-.02.16-.25,0-.02-.26-.02-.16-.39.02-.06.28-.12.16-.57-.02-.09-.2.01-.16-.17.02-.07.14,0,.16-.1.04-.15.13-1.19.08-1.23-.03-.02-.21.04-.3-.02-.05-.03-.05-.19-.15-.22-.15-.05-.39.11-.43.08-.02-.01-.06-.3-.09-.32ZM112.52,2.23c-.07-.08-1.87-.01-2.14,0-1.45.06-2.74.35-4.19.41-.2,0-.4-.1-.64-.09-.33,0-1.41.36-1.52.32-.07-.02-.03-.23-.5-.17-.19.03-.12.24-.32.25l-4.19.08-.12.16c.34.06.66.08,1.01.08,1.21,0,2.19.03,3.38-.08.99-.1,2.3.14,3.31,0,.15-.02.08-.15.23-.17,1.32-.17,2.87.04,4.19-.08.44-.04.59-.29.74-.31.29-.03.59.17.91-.01.03-.13-.13-.03-.16-.14-.02-.08.02-.24,0-.26ZM125.53,2.55c-.34-.06-.81.04-1.17,0v.48c.46-.22.26.27.33.51.04.13.2.09.23.17.08.23-.42.05-.57.16-.14.1-.05.57,0,.61.23.15.39-.43.56-.24s-.14.33-.19.41c-.06.09-.28.41-.29.44-.02.05.14.05.19.12.22.31.05.54.04.84,0,.89.11,2.31-.21,3.05-.2.47.42.24.45.21.03-.04-.02-.19,0-.25.04-.08.14-.06.15-.11.05-.24-.11-.95-.07-1.35,0-.07.36-1.29.39-1.36.05-.09.19-.09.23-.19.12-.37.08-.95.41-1.34.21-.25.5.03.57-.66.04-.4-.19-.89.32-.76-.08.21,0,.62-.05.78-.09.25-.73.92-.85,1.26-.1.31-.03.59-.09.88-.04.23-.22.2-.27.37-.15.49-.18,1.17-.28,1.66-.04.21-.21.37-.16.61.18-.08.36-.16.47.05-.14.31-.02.68-.07.96-.03.17-.67.69-.71.91-.05.28.16.84.06,1.18.03.11.7.16.84.12.29-.1,0-1.44.45-1.6,0,.19.1.68.32.48.01-.01,0-.15.05-.23.22-.29.18-.3.33-.63.04-.09.15-.08.18-.16.27-.69-.33-.41-.44-.58-.25-.36.27-.74.48-.98.05-.06.05-.18.1-.23.08-.09.23-.06.28-.13.14-.18.03-.57.08-.78.01-.05.12-.05.15-.12.2-.58.23-1.03,1.01-.9.2-.29-.13-.35-.22-.51-.25-.41-.4-.98-.68-1.48-.09-.15-.39-.83-.44-.89s-.17-.05-.24-.1c-.05-.04-.05-.12-.12-.15-.31-.13-.62.07-.95-.08-.16-.07-.36-.37-.63-.41ZM108.48,4.02c-.29-.2-.56,0-.84,0-1.19-.04-1.47-.12-2.59.15-.55.13-.91-.21-1.2-.17-.15.02-.11.15-.17.17-.35.08-.67-.03-1.09.17-.35.17-.13.38-.14.67-.02.48-.02,1.18-.08,1.62-.02.15-.15.08-.17.23-.13,1.02.2,1.86.25,2.82.07,1.34-.05,2.81.24,4.05.02.11.08,1.34.04,1.4-.06.08-.29.04-.2.35.03.09.21.05.25.25.08.44-.07,1.1.08,1.6.34,1.14.15,2.15.31,3.33.02.16.15.08.17.23.02.16.02.82,0,.96-.02.07-.15.02-.17.17-.04.27-.03,1.11,0,1.38.02.15.16.08.17.23.18,1.55-.03,3.33.15,4.77.02.14.27.12.17.54-.02.08-.23.08-.16.58.02.16.15.11.19.22.05.12.31.85.3.89-.02.06-.13.04-.15.11-.26.87.29,1.3.15,1.9-.02.07-.15.02-.17.17-.02.13-.02.44,0,.57.02.18.21.11.25.32.13.67-.18,1.26.08,2,.02.07.23.04.16.33-.02.06-.15.02-.17.17-.03.27-.03,1.12,0,1.38.02.15.14.1.16.17.18.59,0,1.12,0,1.68,0,.42.19,1.06.18,1.45,0,.17-.2.08-.17.23.1.52.15.89.17,1.45.03.89.11,1.59.16,2.42.11,1.81-.12,3.81.09,5.63.04.32.22.38.24.49.07.58-.22,1.06-.17,1.38.02.12.2.16.24.49.11.91-.07,1.72.25,2.59.24.66-.03,1.65.17,2.38.02.07.24.04.16.33-.02.08-.24.07-.17.58.02.14.14.11.16.18.17.71.04,1.63.17,2.14.02.09.22.09.29.25.12.28-.02,1.1.03,1.46.02.15.15.11.17.17.11.48-.07,1.47.16,1.98.05.1.3.17.42.23.05.02.05.14.12.16.12.03.5.02.63,0,.15-.02.11-.15.17-.17,1.23-.28,3.22,0,4.5-.16.15-.02.08-.15.23-.17.48-.07.59.25,1.14.17.15-.02.08-.15.23-.17.46-.06,2.85.12,3.02-.08.13-.15-.07-.78-.24-.92-.06-.05-.19-.02-.22-.06-.02-.02-.1-.53-.1-.59,0-.17.06-1.09.08-1.19.03-.11.32-.09.24-.34-.03-.08-.24-.05-.3-.42-.12-.79.15-1.6-.1-2.4-.04-.13-.14-.12-.16-.18-.28-.93-.08-2.71-.1-3.76,0-.4-.28-.4-.31-.5-.03-.11.09-.31.08-.47-.04-.74-.07-1.9-.16-2.59-.02-.15-.16-.08-.17-.23-.04-.34.15-.27.17-.34.11-.45-.22-.74-.31-1.2-.04-.2-.17-.6-.18-.63-.14-1.09-.02-2.22-.15-3.32-.02-.15-.16-.08-.18-.23-.04-.35.16-.29.17-.32.06-.24-.15-.15-.17-.32-.13-1.05.06-2.51-.16-3.54-.01-.07-.2-.06-.22-.27-.07-1.27.22-3.21-.11-4.41-.02-.07-.14-.05-.16-.11-.02-.1-.05-1.22-.03-1.29.05-.14.35-.35.51-.26.02-.17-.24-.02-.31-.09-.02-.02,0-.14-.04-.2-.03-.05-.2,0-.13-.19.2.03.14-.2.24-.28.06-.05.2-.03.22-.05.03-.03.03-.3.01-.31-.02-.02-.18.02-.26,0-.02,0-.34-.22-.35-.23-.07-.11,0-.26-.04-.35-.1-.23-.58-.86-.62-1.09-.1-.54.05-1.22-.01-1.76-.02-.17-.23-.07-.17-.32,0-.02.28-.07.16-.27-.28-.43-2.39.1-2.96-.14-.14-.06-.19-.31-.26-.45-.11-.2-.11-.24-.2-.46-.18-.41-.38-.3-.36-1.01.01-.8,0-1.56,0-2.34,0-.3,0-1.11-.09-1.34-.03-.08-.23-.05-.15-.33.02-.06.15-.02.17-.17.08-.63-.27-1.16-.17-1.6.01-.06.23-.04.17-.5-.02-.16-.15-.08-.17-.23-.05-.4.18-1.06.17-1.12s-.14-.05-.16-.11c-.03-.14-.03-.87,0-1.04.02-.15.24-.07.17-.48-.02-.14-.14-.11-.16-.18-.26-.93.03-2.19-.17-3.02-.22-.9-.23-1.97-.24-2.99,0-.47.15-1.78-.07-2.09-.06-.09-.23,0-.25-.09-.08-.3.11-.74.09-1.04-.03-.42-.28-.8-.17-1.37.05-.27.27-.24.31-.3.13-.21-.13-.23-.15-.29-.03-.1.02-.2-.03-.33-.02-.05-.29-.15-.31-.3-.02-.25.15-.18.17-.26.1-.36-.14-.35-.16-.4-.15-.64.29-.46.33-.87.03-.33-.24-.56-.18-.92ZM98.96,4.03c-.36-.17-.36.12-.5.14-1.32.17-3.06.09-4.43.16-1.09.05-1.69-.35-1.57,1.08.03.39.13.38.23.59.06.12.05.32.13.42.13.16.68.1.69.53,0,.22-.26.14-.33.26-.1.16-.1.55-.02.73.04.09.17.09.19.15.16.8-.04,1.73.17,2.47.02.06.25.05.16.41-.02.06-.25.03-.16.4.01.06.28.15.32.5.12.89-.35.39-.49.53-.15.15.2.42.4.32,0,.32-.29.01-.33.44s.22.43.25.65c.02.14-.13.1-.16.18-.15.47-.13,1.73,0,2.21.02.06.14.06.15.12.06.27.1.84,0,1.09-.03.06-.14.03-.16.18-.03.22-.03.84,0,1.06.02.16.16.12.17.16.06.23-.13.17-.16.26-.02.06-.09.51-.08.54.05.16.31.09.32.18.02.15-.1.42-.09.64,0,.23.05.84.09,1.05.04.23.31.19.33.4.05.57-.5.3-.57.36-.03.03-.02.74,0,.85.01.11.31.85.33,1.05.07.64-.26,1.25,0,2.16.02.07.14.03.16.17.02.13.02.52,0,.64-.01.06-.15.06-.16.09-.06.23.13.17.16.26.07.23.05.89.12.99.15.22.58-.14.53.28,0,.08-.19.21-.26.38-.05.12-.05.36-.07.38-.05.05-1.12-.03-1.33,0-.14.02-.11.14-.18.16-.29.07-1.33.05-1.38.1-.02.02.01.14-.03.2s-.16.06-.2.16c-.06.13-.03.48-.12.57-.02.01-.28.2-.33.24-.07.05-.2.01-.21.02-.02.02.07.54.08.59.02.08.24.07.24.42,0,.16-.07.28-.08.41,0,.11.09.26.08.27-.06.04-.27-.08-.24.08.17-.05.37.51.32.56-.23-.02-.8.54-.64.73.04.05.48-.28.64-.16-.15.23.04.5,0,.67-.01.08-.29-.04-.03.37.04.06.14.06.19.15.33.69-.11.43-.56.46.32.06.22.42.24.44.03.03.25-.06.33.05.16.23.18,1.09-.01,1.36.69.3.15.32.09.5-.06.16.03.66.07.86.04.17.21.46.22.83.01.81-.06,3.03.1,3.69.44,1.84.12,3.95.24,5.9.02.28.26,1.06.24,1.11s-.14.05-.16.11c-.03.13-.03.65,0,.8s.15.08.17.23c.06.48-.04,1.11,0,1.62.02.38.36,1.79.32,1.92-.02.06-.14.05-.16.11-.03.11-.02.51,0,.64.02.15.15.1.17.17.11.44-.15.44-.16.47-.06.24.14.18.16.26.18.76.06,1.83.16,2.65.02.15.15.08.17.23.14,1.07.01,2.38.15,3.48.02.15.15.08.17.23.12.96-.09,1.22.31,2.2.05.11.02.32.11.4.24.21,1.21,0,1.56.18,2.64-.2,5.23-.25,7.82-.32.68-.02,1.61-.02,2.25-.08.31-.03.6-.36.52-.67-.02-.06-.13-.04-.17-.17-.06-.24-.04-.54-.13-.75-.04-.11-.21-.08-.25-.31-.06-.33.11-.78.06-.94s-.3-.09-.32-.18-.07-.72-.08-.87c-.02-.46.09-.54-.08-1.11-.33-1.07-.06-2.09-.32-3.06-.24-.89-.07-1.98-.32-2.9-.19-.7-.12-.98-.15-1.72-.04-.79-.14-1.62-.17-2.41-.01-.48.08-3.34-.02-3.49-.02-.04-.15-.04-.18-.1-.24-.37.24-1.07.2-1.24-.02-.06-.15-.02-.17-.17-.02-.14-.02-.59,0-.72.02-.07.15-.02.17-.17.05-.35.04-1.51,0-1.86-.02-.15-.15-.08-.17-.23-.13-1.04.15-3.4-.16-4.25-.47-1.27.02-2.71-.23-4.05-.04-.21-.22-.13-.25-.32-.06-.41.15-.36.17-.42.12-.49.19-1.12.02-1.61-.05-.14-.21-.12-.23-.4-.01-.34.21-.37.21-.39.06-.24-.15-.14-.17-.31-.05-.38-.08-1.21-.08-1.62,0-.32.16-.67.09-1.05-.06-.31-.42-.19-.32-.55,0-.03.26-.21.28-.42s-.06-2.21-.12-2.32c-.05-.08-.17-.1-.2-.14-.17-.32.03-1.18.04-1.57.02-.78-.01-1.08.16-1.79.03-.14.03-.87,0-1.04-.02-.15-.14-.1-.17-.17-.03-.1.07-.28-.08-.26l-.08.48c.14-.32-.16-.5-.17-.6-.13-1-.09-2.59-.08-3.64,0-.36.22-.38-.32-.48.07-.53-.1-.82.32-1.25-.39.1-.38-.19-.41-.52-.08-1.18.18-2.6.17-3.79,0-.19-.11-1.25-.16-1.36s-.23,0-.25-.09c-.04-.21.08-.49.09-.72.04-.97-.07-1.3.3-2.2.04-.1.17-.09.18-.16.07-.33.06-.97-.3-1.13-.19-.09-.42-.06-.61-.11-.07-.02-.06-.14-.12-.15-.17-.04-1.08-.03-1.28,0-.13.02-.21.28-.71.17-.06-.01-.06-.12-.08-.13ZM86.57,26.17v-1.61h-.24c0,.31,0,.69-.09.99-.02.07-.14.06-.15.12-.1.38.26.6.31.96.05.31-.06.78,0,1.03.02.09.21.08.24.19.03.11-.08.27-.08.4,0,.22.14.41.17.65s-.19.5.11.52c.43-.1,2.59.14,2.75-.08.05-.07-.07-.31.03-.44.06-.08.21-.03.24-.05.09-.1-.08-1.3-.07-1.57,0-.47.06-1.67.17-2.08.02-.09.15-.01.16-.18,0-.12-.42-.33-.16-.79.07-.13.41-.52.48-.68.18-.41.17-.72-.36-.67-.91.09-.33,1.22-.45,1.57-.07.2-.59.14-.64.22-.18.28.28.23.31.36,0,.03-.09.54-.11.61-.11.33-.64.37-.92.19-.22-.14-.77-.83-.64-1.11.25-.16.27-.22.23-.53-.17-.06-.5.16-.55-.05-.02-.06.05-1.01.07-1.1.01-.06.14-.05.16-.11.1-.4-.03-.81.15-1.36.06-.19.48-.92.49-.97.07-.31.07-1.03,0-1.34-.01-.06-.14-.05-.16-.11-.11-.4.18-.35.23-.48.22-.68.18-1.7.37-2.38.03-.1.29-.68.37-.9.02-.06.14-.06.15-.12.13-.45-.32-.15-.48-.43.18-.01.13-.19.36-.17.02,0,.39.23.41.25.09.13.02.41.04.57.29.06.09-.28.2-.48.15-.26.26.29.19.51-.03.1-.31.23-.36.32-.05.08,0,.21-.04.28s-.23.04-.23.22c0,.2.71.53.56.76-.03.04-.77.11-.8.09-.05-.05.1-.41-.08-.4-.13.2,0,.78.1.95.04.06.2.04.23.22.03.29-.27.27-.25.32.07.17.35.02.32.24-.06.36-.66.17-.72.33-.15.36.5.14.57.2.02.02.02.51,0,.59-.02.07-.17,0-.17.26s.13.17.17.26c.03.07-.02.23,0,.26.02.02.44.02.52,0,.47-.09.21-1.42.28-1.81.04-.2.21-.3.28-.45s.05-.55.33-.57c.25-.02.18.15.26.17.15.04.35-.02.51,0,.1-.1-.29-.56-.4-.48-.07.05.03.24-.45.15s-.06-.36-.05-.38c.1-.29.07-.75.17-1.01.04-.09.14-.03.16-.1.04-.18-.15-.1-.16-.16-.07-.23.14-.2.2-.29.13-.21.5-.81.58-.99.11-.22-.02-.58.38-.46.07.02.03.16.17.17.1,0,.43-.04.45-.14.05-.21.04-1.75,0-2.01-.02-.14-.24-.14-.17-.64.02-.14.14-.11.16-.18.1-.37.09-1.94,0-2.3-.02-.07-.15-.02-.17-.17-.07-.55-.02-1.27-.08-1.85-.04-.41-.43-.99-.55-1.32-.06-.19-.14-.91-.18-.97-.14-.22-.71.3-.98.23-.09-.02-.09-.18-.17-.25-.09-.07-.23-.05-.29-.13-.18-.23,0-.42-.63-.18.05.58-.06.89-.49,1.2.04-.29-.36-.13-.57-.16.08.38.31.2.61.24.11.01.15-.04.12.12,0,.06-.16.49-.18.51-.05.04-.2,0-.22.02-.04.04.08.67.07.77-.02.24-.23.79-.31.98-.04.11-.02.32-.11.4-.07.06-.37.08-.38.1-.03.04.19.92.08,1.13l-.32-.08c-.02.29.14,1.63-.08,1.77-.25.16-.23-.36-.66-.22-.46.14,0,.3.06.39.14.22-.16,1.01-.04,1.13.06.06.49-.14.4.16-.08,0-.2-.15-.24-.04-.08.22-.08.62-.17.86-.04.11-.24.44-.32.64-.02.06-.13.07-.15.12-.03.11-.03.42,0,.53.01.06.25.03.16.4-.03.14-.45.29-.47.31s-.09.51-.1.59c-.01.14-.01.13.12.11.23-.03.38-.04.61,0,.06-.24-.11-.53-.07-.75,0-.05.36-.9.41-.93.07-.05.24.03.3-.03.02-.02,0-.13.04-.19.02-.04.11-.04.13-.09.07-.29-.09-1.03.16-1.27.2-.2.16.19.2.28.09.17.26.15.29.45,0,.05-.17.4-.19.41-.08.09-.26.07-.29.12-.06.08.04.55-.06.78-.08.17-.29,0-.33.32-.07.48.27.56.28.62,0,.02-.05.43-.06.44-.02.02-.3,0-.43.09-.09.06-.39.52-.37.59.01.04.13.03.16.1.2.56-.11.58-.15.72-.15.52-.04.45-.33.96-.09.17-.18,2.83-.16,3.21.03.71.18.41.41.56.28.19-.1.9-.09,1.14,0,.09.15,1.36.17,1.43.02.07.14.02.17.17.02.14,0,.32,0,.47l-.32.3ZM59.49,35.11h-1.81c-.25,0-.48.38-.82.4-.47.03-.38-.19-.43-.24-.15-.11-.16.13-.18.13-.09.04-.2,0-.27.05-.14.08-.19.34-.2.36-.08.07-.84.15-.94.09-.02-.01-.13-.32-.18-.41-.04-.08-.22-.03-.16-.26.01-.04.15-.03.16-.1.15-.64-.24-.93-.24-1.44,0-.14.08-.27.08-.4,0-.42-.04-2.86-.14-3.08-.04-.09-.17-.09-.19-.15-.24-1.14.08-2.04-.31-3.23-.3-.9-.01-1.51,0-2.39,0-.52-.06-1.93-.17-2.4-.02-.07-.15-.02-.17-.17-.06-.44.07-1.02.01-1.46-.02-.16-.18-.08-.17-.23,0-.27.17-.42.03-.75-.04-.1-.17-.05-.19-.21-.07-.46.14-.43.16-.51.17-.71.01-1.18,0-1.83-.01-.83.11-1.97.01-2.75-.02-.17-.16-.13-.23-.25-.24-.41-.02-1.56-.09-2.09-.02-.15-.15-.1-.17-.17-.1-.37.14-.35.16-.4.09-.29-.15-.23-.17-.39-.03-.25-.08-.81-.08-1.05s.25-1.51-.05-1.57c-.18-.04-1.45-.03-1.68,0-.15.02-.08.15-.23.17-.12.02-.45.02-.56,0-.08-.02-.02-.22-.26-.16-.04,0,0,.15-.16.17-.51.06-2.17.07-2.67,0-.15-.02-.11-.15-.17-.17-.33-.1-.25.2-.47.24-.28.05-.91-.09-1.3-.09-.75.01-1.62.17-2.27.32-.32.08-1.11.02-1.34.16-.07.04-.08.2-.19.23-.27.09-.75-.03-1.12.09-.81.26-1.72.08-2.43.49l-1.88.16.24.24h-.64c-.03-.14.13-.05.16-.08.05-.05.04-.19-.12-.16-.13.02-.32.19-.47.26-.22.11-.39-.02-.5.31-.05.17.04,1.14.11,1.31.05.11.23,0,.25.1l.08,2.08c.42.23.01.39,0,.43-.09.31.15.25.22.41.1.21.05.5.1.69.02.07.14.05.16.11.17.76-.03,1.66.16,2.47.14.59.32,1.47.48,2.05.05.17.08,1.01.17,1.07.5-.16.24-.05.32.18.03.08.26.09.16.38l-.36-.32c-.37.04.03.27.04.3.19.69.07,1.72.16,2.41.02.15.14.1.16.17.2.68-.02,2,0,2.8.01.5.35,2.28.32,2.4-.02.06-.14.05-.16.11-.03.12-.03.65,0,.8s.14.1.16.17c.25.82.23,2.16.48,2.97.11.35.28.62.17,1.11-.02.07-.15.02-.17.17-.02.13-.02.52,0,.64.01.05.26.06.16.41-.05.19-.45.04-.51-.13-.05-.12.04-.41.03-.58-.02-.36,0-1.1-.17-1.35-.43-.67-.57-1.43-.8-2.22s-.07-1.33-.16-2.08c-.02-.15-.15-.08-.17-.23-.28-2.25.21-4.7-.31-6.88-.23-.98-.39-1.98-.65-2.9-.16-.57,0-1.27-.1-1.82-.04-.22-.19-.19-.22-.28-.15-.41,0-1-.12-1.4-.04-.15-.18-.13-.2-.21-.26-.92-.05-1.87-.16-2.73-.02-.15-.15-.11-.17-.17-.05-.23.03-.6,0-.87-.02-.2-.12-1.16-.18-1.23-.04-.05-.18-.05-.25-.1-.05-.04-.05-.15-.11-.16-.11-.03-.58-.03-.7,0-.07.02,0,.18-.26.17-.1,0-.25-.31-.44-.17s.21.14.16.24c-.62-.07-.95-.08-1.55.09-.34.1-.71.26-1.15.32-.22.03-.53-.05-.71,0-.03,0-.39.39-.4.42-.1.22-.03.54-.26.78-.09.09-.23.07-.26.1-.18.19-.07,2.17-.1,2.6-.05.69-.3,1.67-.41,2.41-.04.28.06.71,0,.97-.02.08-.17.02-.22.06-.04.04-.03.16-.07.22-.05.07-.16.09-.17.11-.2.33.26.19.3.22.11.1-.27,2.43,0,2.62s.43-.33.5-.35c.06-.02.26.11.31.06.03-.03.15-.74.16-.85.03-.38-.05-.85,0-1.21.02-.13.28-.16.17-.44.19-.01.14-.03.16.12.04.32-.07,1.62-.17,1.91-.02.06-.13.07-.15.13-.14.51.07,1.06-.65.9-.08.21.14.13.16.21.08.29-.15.27-.16.33-.08.24-.12,1.64-.18,1.71-.02.02-.23.05-.33.12-.22.14-.28.34-.63.34.04.27.13.53.16.81.13,1,.23,2.25.5,3.21.2.7.02,1.4.15,1.93.01.06.14.05.16.11.13.48,0,1.1.17,1.57.3.84.12,1.7.32,2.59.01.05.26.05.16.4-.02.07-.14-.02-.17.25-.03.44.15.33.17.48.03.23-.06,1.44,0,1.5.03.03.25,0,.32-.04.11-.07.46-.47.54-.52.76-.49,2.45-.35,3.37-.47.15-.02.1-.15.17-.17.44-.1,1.52-.15,2-.16,1.03-.02,2.08.21,3.1,0,.14.75-.89.13-1.05.64h-.08c0-.05.01-.14-.05-.16-.15-.04-1.55-.03-1.77,0-.15.02-.11.15-.17.17-.56.13-.84-.31-.91.6-.03.39.06,1.55.17,1.92.18.59.28,1.31.48,1.95.07.24.08.52.07.77l-.23-.31c-.17-.79-.26-1.54-.5-2.29-.02-.07-.14-.06-.15-.12-.08-.34.06-1.86-.22-2.05-.07-.05-.9-.02-1.04,0-.15.02-.08.15-.23.17-.53.07-.7-.15-.89-.17-.13-.02-.52-.02-.64,0-.06.01-.05.14-.11.16-.13.03-.28-.03-.43.04-.11.05-.26.43-.44.45-.35-.09-2,.12-2.14-.15-.2-.37-.07-1.35-.16-1.74-.02-.07-.15-.02-.17-.17-.05-.35-.05-1.52,0-1.86.02-.15.15-.11.17-.17.15-.63-.14-.82-.3-1.3s-.3-1.1-.34-1.67c-.03-.39.07-1.02,0-1.35,0-.04-.26-.41-.3-.68-.04-.29.1-.93-.18-.91v-.08c.23.06.2-.35.16-.51-.01-.06-.14-.05-.15-.12-.15-.59-.41-1.58-.41-2.15,0-1.02-.07-2.04-.08-3.06,0-.77.14-1.53.08-2.3-.04,0-.21.17-.22.18-.06.13.04.31-.11.3-.06-.43.11-1.27-.08-1.63-.05-.09-.17-.08-.24-.26-.19-.47-.01-1.13-.07-1.62-.02-.15-.15-.08-.17-.23-.07-.53.06-3.07-.11-3.35-.04-.07-.18-.09-.24-.17-.13-.19-.06-.67-.36-.84-.03-.01-.54.02-.59.04-.12.03-.09.3-.3.24-.05-.07.15-.46-.28-.33-.08.02.03.29-.36.38-.29.06-1.2-.19-1.35-.03-.05.06,0,.24-.15.29-.14.05-.56-.02-.6,0-.11.11.21,2.65.15,3.03.32.44.13,1.26.16,1.85.04.71.06,1.38.08,2.09.01.36.24.47.25.57.02.26-.15.15-.17.32-.07.5.16.51.17.65.02.15.02.67,0,.8-.02.07-.22.02-.16.26,0,.03.15.03.16.09.15.71.07,1.71.16,2.41.02.15.15.08.17.23.07.51-.16.61-.17.73-.02.25.15.19.17.26.21.88,0,2.58,0,3.53,0,1.89.1,3.78.17,5.64.02.51-.07,1.14,0,1.62.02.17.17.07.17.24,0,.37-.61.27-.83.12-.28-.19-.09-1.72-.14-2.14-.02-.15-.14-.1-.18-.23-.32-1.09.03-2.21.02-3.31,0-.83-.06-2.43-.16-3.23-.02-.15-.15-.08-.17-.23-.05-.41-.05-1.78,0-2.19.02-.14.24-.2.17-.73-.02-.15-.15-.08-.17-.23-.09-.69-.13-1.7-.16-2.42-.04-1.03.07-1.8-.16-2.76-.28-1.17.23-3.2-.17-4.31-.2-.56-.15-1.07-.32-1.69-.02-.06-.14-.06-.15-.12-.03-.15.05-.4-.04-.51-.07-.09-.23-.04-.3-.08-.07-.04-.07-.14-.12-.15-.17-.04-1.36-.04-1.5,0-.04.01-.64.55-.67.64-.07.27-.05.63-.12.91-.1.43-.37,1.14-.47,1.57-.15.66-.41,1.54-.48,2.16-.09.82-.25,1.5-.33,2.33-.12,1.21-.21,2.63-.48,3.8-.06.26-.03,1.35-.08,1.4-.07.07-.43-.16-.32.24.15,0,.39,0,.51.07s.04.39.21.41c.23-.24.13-.71.32-.92.08-.09.23,0,.25-.1.04-.15,0-.43.07-.64.04-.13.14-.12.16-.18.14-.44,0-1.04.1-1.33.04-.12.2-.13.26-.22.26-.35.04-.82.05-1.2.62.2.32-.31.4-.67.16-.7.46-1.47.65-2.25.02-.07.14-.06.15-.12.14-.58.12-1.69-.13-2.14-.23-.41.97-.38,1.11-.17s.11,1.27,0,1.5c-.28.55-.31,1.59-.48,2.21-.26,1-.19,2.33-.33,3.37-.09.71-.18,1.49-.32,2.11-.19.88-.15,1.94-.33,2.8-.11.51-.34.62-.39,1.3-.06.81-.06,1.25-.24,2.03-.03.14-.06.72-.09.75-.04.04-.27-.1-.33-.05-.17.15-.3.67-.32.89.05.12.3-.05.32-.04.1.07.08.8.08.97.53.08.53-.52.65-.9.21-.66.26-1.4.47-1.98.16-.44,0-.73.09-1.15.15-.02.05.16.08.26.02.06.27.1.16.38.02.03.16-.1.16-.12v-1.25s.12.02.14-.02c.09-.2.33-.57.34-.6.13-.47-.1-1.07.65-.91-.03.24.04.54,0,.77-.02.14-.15.11-.16.18-.09.43-.06,1.02-.17,1.41-.02.07-.14.05-.16.11-.02.1.02.33,0,.35-.03.03-.28-.04-.32,0-.03.03-.05.59-.35.86-.14.13-.4.02-.3.37.02.06.14.05.16.11.08.28-.13.27-.16.33-.15.42-.14.39-.33.73-.14.26-.11.85-.4,1.1-.03.03-.14-.01-.17,0-.16.13-.06,1.29-.23,1.52-.06.08-.5.19-.56,0-.11-.38-.03-1.81-.09-1.88-.02-.03-.15.06-.2.06-.22-.04-.04-.4-.04-.58.02-1.38.27-2.18.56-3.4.13-.54.04-1.59.16-2.15.01-.06.14-.02.17-.17.07-.46-.15-.44-.16-.5-.06-.26-.01-.54.24-.67v.72c.75-.21.08-1.62.4-1.93.28-.27.01.72.32.56.05-.3-.07-.55-.17-.82-.02-.07-.14-.04-.16-.18s-.02-.59,0-.71c.02-.07.15-.02.17-.17.06-.46-.07-1.01.07-1.5-.38.21-.31.59-.41.91-.3.96-.66,2.03-1.12,2.94-.25.5-.04.87-.94.51-.23-.09-.36-.32-.49-.49-.05-.06-.15-.08-.17-.11-.07-.11-.05-1.27-.1-1.51l.08.48h.24c.02-.33,0-.84.08-1.15.01-.06.14-.05.15-.12.08-.31.26-.84.08-1.1-.09-.12-.26-.09-.23-.21.25.08.28-.85.24-.89-.1-.09-.4.01-.37.23l-.36.33c.09-.33-.45-.46-.55-.62-.3-.48.07-1.02.06-1.36,0-.18-.19-.33-.16-.64.02-.19.17-.3.18-.48.01-.24-.14-.33-.17-.49-.03-.19-.03-.9.07-1.04s.25.13.32-.5c.11-1-.23-1.54.25-2.5.18-.36.04-.91.08-1.31-.37.17-1.02-.01-1.32.07-.09.02-.02.17-.06.23-.05.06-.19.05-.25.1-.48.44-.08.41-.05.6.17,1.39.21,2.77.31,4.12.06.86.11,1.85.32,2.6s.06,1.79.16,2.56c0,.07.2.25.24.57.16,1.27.3,2.29.57,3.47.34,1.46.29,3.31.48,4.83.02.15.15.08.17.23.2,1.55.07,3.45.07,5,0,.19.11.92.25,1,.18.1.14-.11.21-.16.23-.16,1.08-.05,1.43-.09.39-.05.36-.31.82-.24.15.02.11.15.17.17.16.04.37-.02.55,0,1.11.15,2.14.21,3.26.16.08.11-.22.61-.29.63-.17.06-.44-.03-.62.01-.06.01-.02.15-.17.17-.53.07-.7-.15-.89-.17-.34-.04-1.43-.04-1.78,0-.22.03-.35.38-.28.57-.3.08-.08-.3-.18-.39-.02-.02-.13,0-.19-.04-.4-.25-1.03-.15-1.51-.3-.07-.02-.03-.14-.17-.16-.31-.04-.99.09-1.23-.18-.23-.25-.04-1.91-.1-2.36-.02-.15-.15-.1-.17-.17-.22-.94.1-2.41-.17-3.43-.02-.07-.14-.04-.16-.18-.02-.2-.05-.68-.05-.88,0-.3.3-.27.22-.82-.02-.15-.15-.11-.17-.17-.05-.2.02-.47-.01-.7-.19-1.27-.36-2.53-.63-3.73-.14-.6-.03-1.67-.16-2.23-.02-.07-.15-.02-.17-.17-.09-.65,0-1.55-.08-2.26-.04-.44-.28-.62-.32-1.05-.08-1.02-.02-1.88-.24-2.83-.14-.61-.07-1.95-.16-2.65-.02-.15-.15-.1-.17-.17-.05-.22.03-.61-.18-.81-.18-.17-.76-.1-.99-.03-1.09.35-1.91.7-2.92,1.13-.28.12-.7.03-.97.14-.11.04-.12.19-.23.25-.34.18-.48.06-.84.48-.1.12-.11.31-.19.4-.11.13-.44.35-.54.47-.25.31-.3.8-.32,1.21-.26,4.51.06,9.42.09,13.94,0,.36-.05,2.49.02,2.61.02.04.12-.02.14.06.04.19-.14.08-.16.17-.03.1-.02.67,0,.8.02.15.15.11.17.17.12.53-.13.86-.17,1.11-.03.27-.03,1.11,0,1.38.02.15.15.08.17.23.27,2.17-.07,5.14,0,7.42.02.62-.01,2.08.08,2.58.03.16.61.58.36.92-.14-.21-.11-.41-.44-.36.11.83.19,1.69,0,2.5.17.63,0,1.38.17,2,.02.07.15.07.16.1.06.23-.14.18-.16.25-.14.6.06,1.29.17,1.83.1.49.27.98.1,1.49-.07.22-.26.25-.27.31-.17.69.14,2.08.33,2.79.05.19.27.33.16.81-.14.61-.13.79-.16,1.47-.02.43-.17,1.01-.09,1.44.02.11.24-.01.25.08-.35.09-.32.69-.23.96.04.13.36.09.23.56-.02.09-.2-.01-.16.17.02.07.14,0,.16.09.1.4.37,1.59.33,1.93-.02.13-.28.2-.16.7.01.06.13.05.15.12.13.41.3.94.34,1.26.01.08.05.36.12.38.8-.09,1.96.14,2.71-.09,1.01-.31,2.06-.23,3.02-.62.68-.27,1.44-.31,2.1-.64.32-.16.4-.36.58-.55.06-.06.46-.3.52-.28.04.01.03.15.1.16.61.14.6-.22.98-.3.28-.06,1.13-.23,1.33-.18.51.12,1.37.29,1.96.32.33.02.78-.16,1.15-.08-.11-.3.23-.38.25-.46.08-.28-.15-.79-.32-1.01-.06-.08-.32-.2-.32-.26,0-.05.39-.21.45-.44.01-.04-.02-.7-.05-.73-.16-.17-.32.21-.33.22-.47.28-.21-.77-.22-.91-.01-.25-.26-.41-.17-.79.02-.06.14-.05.16-.11.03-.11.02-.52,0-.62-.07-.2-.35-.1-.39-.13-.04-.04.02-.74,0-.88l-.32.08c-.03-.35.06-.91-.08-1.23-.05-.11-.23-.08-.24-.26-.03-.33.23-.46.24-.5.13-.55-.26-.9-.32-1.43-.11-1.13.24-2.55,0-3.61-.01-.06-.14-.05-.16-.11-.13-.48-.04-1.13-.16-1.63.44.07.28.48.33.76.11.64.08,1.05.15,1.62.02.15.15.11.17.17.2.91-.04,2.32.16,3.11.02.08.16.08.2.14.09.16.13.36.29.62.24.42-.14.37-.16.48-.04.16-.11,1.21-.07,1.34.02.04.5.48.55.6.09.19.06.46.14.65.04.1.17.09.18.15.11.47-.16.97.14,1.46s.14.45.19,1.02c.02.17.14.33.15.5.01.29-.17.7-.06,1.03.03.1.18.09.24.24.11.27.01.82.1.94.07.09.24.04.3.08.07.04.07.14.12.15.23.05,1.72.04,2,0,.15-.02.08-.15.23-.17,1.55-.2,3.79,0,5.4,0,1.42,0,2.94-.15,4.21.16,1.35.33,3.18-.15,4.48.17.07.02.06.15.1.16.23.06.18-.14.26-.16.52-.12,2.18-.12,2.71,0,.06.01.05.14.11.16.25.06.64-.04.91,0v-.48c.27-.08.09.22.2.25.22.05.94-.03,1.18-.11s.27-.31.71-.14l-.08-.32,1.25-.08c.19.48-.53.29-.84.32.33.54.83.27,1.32.25.18,0,.47.24.53-.13.06-.33-.19-.92.4-.72l-.16.68s.7-.02.85,0c.13.01.16.28.44.17.2-.19-.49-.4-.48-.56.42-.02.99.03,1.39-.09.07-.02.05-.14.11-.16.19-.04,1.19-.04,1.31-.17-.07-.34.06-1.08-.05-1.34-.03-.08-.15-.08-.18-.16-.21-.51-.04-1.65-.17-2.22-.01-.05-.46-.7-.48-.76-.16-.71-.01-1.75-.17-2.47-.01-.06-.14-.05-.17-.17-.17-.59-.05-1.09-.15-1.53-.02-.07-.15-.02-.17-.17-.06-.46.07-1.07.01-1.54-.02-.17-.2-.09-.17-.15.05-.1.14-.1.17-.32s-.08-1.55-.17-1.62c-.17-.13-.32-.17-.48-.42.01-.7-.16-1.48-.17-2.16,0-.26.15-.52.09-.81-.04-.2-.22-.17-.25-.26-.14-.57-.02-1.86-.16-2.39-.02-.09-.21-.06-.25-.26-.07-.37.08-.81.07-1.13,0-.16-.11-.32-.14-.49-.02-.14.02-.47,0-.52,0,0-.13.09-.2,0-.25-.34-.06-1.44-.12-1.91-.02-.17-.19-.06-.17-.32,0-.16.19-.1.23-.34.05-.25.05-.96-.06-1.17-.06-.1-.22-.08-.25-.26-.06-.44.3-.67.3-.81,0-.18-.03-.77-.05-.96-.02-.16-.31-.25-.32-.34-.09-.41.15-.95,0-1.5-.02-.07-.25-.05-.16-.41.02-.07.15-.02.17-.17.03-.25.04-1.89,0-2.08-.02-.09-.21-.05-.25-.26-.1-.51,0-1.39-.07-1.94-.02-.12-.29-.18-.17-.63.02-.08.15-.05.16-.05.12-.17-.14-.15-.16-.21-.05-.19.04-.57-.08-.78-.06-.1-.23,0-.25-.1-.06-.21.07-1.14,0-1.25l-.16.08c.13-.31-.15-.4-.17-.52-.06-.44.18-.23.24-.29.08-.07-.03-.6-.08-.74-.36-1.01-.22-2.37-.47-3.43-.2-.82,0-1.48,0-2.24,0-.37-.16-1.01-.17-1.46,0-.14.15-.1.17-.17.04-.17-.02-.41,0-.59-.29-.16-.06.76-.32.48-.19-.2-.09-1.7-.16-2.04-.01-.06-.15-.06-.16-.09-.06-.23.13-.17.16-.26.22-.68.16-1.49.17-2.2.21-.04.14.03.18.17.18.64-.06,1.19-.03,1.72.01.19.16.29.17.48.01.25-.27.06-.33.12-.03.03-.08.78.24.73v-.56s.24.3.24.3c.36,1.49-.13,3.59.16,4.97.01.06.15.06.16.09.06.23-.15.18-.16.25-.05.25.03.63-.08.91.41.12.16-.35.4-.48.05.44-.06.99,0,1.42.02.14.25.09.17.48-.02.09-.37-.12-.25.49.04.2.22.16.24.26.16.68.07,1.58.15,2.25,0,.07.21.32.24.65.08.88.14,1.66.25,2.49.16,1.14.4,2.35.49,3.47.02.31-.12.65,0,1.03.34,1.13.16,2.52.31,3.73.02.15.15.08.17.23.19,1.49-.03,2.99.31,4.45.13.57-.05,1.11.14,1.71.24.8.29,1.68.5,2.49.15.57.05,1.33.17,1.82.43,1.83.7,3.84,1.12,5.67.38,1.63.26,3.49.64,5.08.11.46.21.88.32,1.29.19.66-.05,1.42.3,1.99.04.07.02.18.04.19.04.04.8-.04.9-.07.08-.02.06-.15.16-.18.25-.1,1.03-.13,1.27.07l-.69.19c-.5,0-.83.03-1.22.24-.18.1-.42-.06-.33.41l4.55.09c.3-.19.82-.27,1.07-.38.14-.07.17-.25.22-.27.22-.06.18.13.26.16.54.19.92,0,1.43,0,.35,0,.69.12,1.04.09.09-.88.99-.67,1.62-.64,1.08.05,2.43.09,3.54,0,.35-.03.56-.24.64-.25.95-.12,1.92.27,2.67.17.15-.02.11-.15.17-.17.8-.19,1.6-.07,2.5-.32,1.14-.32,4.34-.09,5.7-.09.35,0,.47-.23.57-.24,1.06-.13,2.64.09,3.7-.16.06-.01.03-.24.33-.16.06.02.05.14.11.16.12.03.58.03.72,0,.15-.02.08-.15.23-.17,2.13-.27,5.36,0,7.66-.08.37-.01,1.96.07,2.14-.04.16-.09.11-.35.16-.47.04-.1.2,0,.16-.18-.02-.07-.14,0-.16-.1-.13-.49.03-1.08,0-1.6-.02-.46-.14-.99-.17-1.44-.05-.76.01-1.07-.16-1.79-.15-.63.04-2.18-.17-2.78-.48-1.38,0-3.02-.32-4.36-.3-1.27-.16-2.76-.32-4.12-.06-.49.18-1.46.09-1.77-.03-.1-.23,0-.25-.08.11-.42.23-.77.17-1.21-.02-.16-.22-.06-.17-.4.02-.16.19-.04.18-.4-.01-.27-.15-.15-.17-.32-.07-.43.17-.36.17-.41-.23-.03-.21-.44-.16-.63.02-.07.15-.02.17-.17s.02-.74,0-.88c-.02-.07-.22-.02-.16-.26.01-.04.19.04.17-.33-.01-.26-.15-.18-.17-.25-.04-.18-.08-1.2-.01-1.37.06-.14.24-.09.18-.31-.02-.07-.25-.07-.31-.26-.1-.33.04-.98,0-1.36-.02-.15-.15-.08-.17-.23s-.02-.74,0-.88c.01-.06.34-.12.16-.48-.05-.1-.19-.02-.16-.14.36-.11.18.22.28.24.14.04.4.01.28-.2-.04-.07-.17-.08-.22-.15-.1-.13.11-.36-.42-.14.03-.31-.19-.63,0-.92.08-.11.24-.08.23-.21-.15.04-.15-.17-.2-.16-.02,0-.13.32-.28.16-.17-.17.15-.35.16-.38.11-.18.06-.57,0-.77-.03-.09-.23-.1-.21-.41.03-.36.33-.07.3-.37-.08-.02-.3.02-.32,0-.06-.05.03-1.48.08-1.53.03-.03.25.02.32,0,.12-.5-.25-.23-.37-.4-.07-.1-.02-.47-.07-.66-.04-.14-.17-.15-.18-.17-.07-.18-.03-.55-.28-.65-.17-.07-1.79-.1-1.95-.04-.04.01-.34.51-.51.55-.06.01-.64.11-.67.08-.01-.01.03-.15-.02-.21-.3-.41-.17-.24-.3-.69-.02-.07-.14-.06-.15-.12-.15-.64.02-1.94-.17-2.46-.03-.07-.25-.06-.15-.41.02-.07.15.01.17-.25.02-.36-.15-.24-.18-.4-.03-.22-.03-.91,0-1.14.02-.15.15-.1.17-.17.1-.37-.14-.33-.18-.44-.1-.26-.07-3.33.03-3.63.02-.06.37-.19-.03-.44-.16-.1-.47-.22-.67-.38-.48-.4-.14-.23-.11-.34.11-.42-.15-.44-.16-.48-.08-.29.14-.26.16-.33.09-.39-.13-.69.14-1.14.23-.38.11-.23.21-.68.04-.2.3-.42.31-.5.02-.2-.22-.45-.25-.81-.09-1.05-.01-2.17-.02-3.22,0-.32-.27-.65-.22-.79.02-.06.24-.03.17-.5-.02-.15-.15-.11-.17-.17-.04-.15-.08-1.25-.03-1.38.06-.13.25-.11.27-.3,0-.04-.07-.73-.08-.79-.03-.12-.41-.05-.16-.64.03-.06.14-.06.15-.12.08-.3-.15-.28-.16-.31-.06-.24.14-.18.16-.26.05-.23-.02-.59,0-.87.03-.23.2-.44.16-.69-.23.04-.46-.09-.69-.09-.43,0-.83.12-1.15.25-.08.03-.23-.02-.26,0-.01,0,.12.23.08.32-.17-.02-.37.03-.53,0-.15-.02-.11-.15-.17-.17-.12-.03-.5-.02-.64,0-.19.02-.05.18-.19.17.04-.29-.33-.06-.48-.28.16-.1.41,0,.59-.04.6-.14,1.52-.34,2.12-.48.24-.05,1.24,0,1.3-.21.08-.26-.1-.38.25-.59-1.17-.05-2.34.13-3.51.08-.28-.01-1.16-.04-1.35-.09-.03,0-.19-.22-.5-.24-.17.25.07.18.12.32-.92.18-1.84-.02-2.78,0-.41,0-1.24.03-1.61.08-.14.02-.11.27-.54.17-.06-.01-.04-.24-.33-.16-.22.29-.08.69-.18,1.04-.05.17-.16.17-.18.23-.06.18-.16.61-.17.78s0,.1.12.12c.75.11,1.77-.22,2.57-.08.02-.21.26-.28.21-.45-.02-.06-.2.02-.16-.16,0-.03.22-.09.2-.28.48-.02.68.71.76,1.1.02.12-.02.27,0,.38.02.09.19.09.25.17.12.17.38.6.31.8-.03.11-.2.11-.22.15-.22.35.61.19.46.66-.02.08-.23.02-.17.5.03.19.21.11.25.32.1.54-.11,1.3-.08,1.77,0,.05.15.04.16.1.03.14-.03.32,0,.46.02.08.19.08.23.19.06.19,0,.6.03.86.04.28.21.3.23.42.04.33-.13.27-.16.34-.2.56-.06,1.31-.16,1.83-.03.13-.27-.12-.24.24.03.42.6.42.64.13h.08c-.07.22.15.22.17.36.08.57-.4.79-.33,1.13.03.16.42-.08.41.32s-.46.25-.41.81c.04.43.46.53.33,1.03-.03.1-.28.06-.25.34.02.19.21.15.25.26.06.17.13.79.16,1.03.11.86.15,1.52.16,2.42,0,.23.12.45.09.68-.08.02-.3-.02-.32,0-.02.02-.07.61-.06.69.01.42.18.91.3,1.23.23.65.05,1.82,0,2.52l.32-.3.04-.35c.23.07-.01.85-.05.88-.03.02-.5.03-.55,0-.09-.06-.06-.42-.11-.53-.03-.05-.4-.3-.44-.37-.24-.42,0-1.3-.19-1.85-.33-.92-.08-2.18-.32-3.22-.31-1.33-.11-2.92-.47-4.23-.17-.62,0-.89,0-1.43,0-.1-.06-.82-.09-.85-.02-.02-.61-.01-.64,0-.2.18.16.79.07.88-.02.02-.24-.03-.33.04-.18.13.11,1.52-.12,1.98-.18.37-.81.22-1.16.24-.1.43.24.3.49.53.06.23-.15.19-.23.33-.31.55.2.71.22.81.04.21.1,1.05-.02,1.21-.07.1-.26.06-.3.31-.05.3.14.39.15.56,0,.05-.13.68-.15.72-.06.11-.37-.06-.24.45l.32-.08c.1.51-.15.38-.3.5-.24.2-.02,1.65-.1,2.03-.02.09-.19.01-.23.06-.02.02-.18.48-.18.51.02.08.23.09.25.18.04.2-.22.65-.05.92.39.16.98-.17.85.42-.01.06-.39.21-.15.53.96.03,1.98,0,2.93.09.37.03.47.23.5.24.17.04.89,0,.99.08-.07.26-.19.29-.44.32-.6.07-3.43-.21-3.65.02-.04.05-.15.37-.19.47-.03.07-.14.04-.16.18-.03.22-.03.84,0,1.06.02.15.15.08.17.23.08.67.14,2.11.16,2.83.02.56-.17.96,0,1.59.02.07.14.03.16.18.04.34-.15.27-.17.34-.08.28.12.25.16.33.18.38-.1.36-.18.52-.03.07-.16.52-.14.54.11.13.24-.32.4-.16.04.03,0,.84,0,1.01.02.46-.01,1.27.08,1.68.02.07.15.02.17.17s.02.75,0,.88c-.02.07-.21,0-.17.34.02.16.16.08.17.23.05.36-.09.96,0,1.28.05.17.34.21.39.42-.8.21-.21,1.1-.23,1.61-.01.31-.22.44-.18.81.02.14.12.09.16.18.34.74.08,1.94.33,2.78.44,1.49.28,3.34.8,4.79.22.63.3,1.72.5,2.45.25.92.2,2.1.47,3.02.18.6.22,1.76.33,2.4.04.22.23.42.16.69l-1.05-.13c-.19-.45.02-1.08-.08-1.5-.04-.16-.43-.94-.48-1.08-.17-.55.08-1.63-.17-2.14-.45-.92-.1-1.61-.33-2.41-.02-.08-.16-.06-.2-.21-.34-1.21-.3-2.63-.59-3.86-.2-.84-.04-1.41-.32-2.34-.25-.81,0-1.47-.18-2.05-.32-1.05-.2-1.9-.24-3.01-.02-.51,0-1.21-.07-1.69-.02-.15-.15-.08-.17-.23-.07-.53.15-.65.17-.81.02-.14.02-.85,0-.96-.02-.09-.2.01-.16-.17.02-.07.14-.01.16-.09.03-.12.11-1.29.07-1.35-.25-.35-.18-.43-.32-.65-.09-.14-.32-.09-.23-.39.02-.06.15-.05.16-.11.04-.17-.03-.37,0-.54.02-.07.18-.03.17-.17,0-.05-.14-.67-.17-.79-.01-.07-.15-.02-.17-.17-.02-.18-.02-.71,0-.9.02-.15.26-.5.16-.6-.04-.04-.32.12-.32-.45s.43-.65.49-1.12c.07-.55-.17-1.78-.51-2.19-.11-.13-.33-.13-.43-.22-.09-.08-.35-.44-.45-.48-.42-.16-1.13,0-1.62-.14-.07-.02-.05-.14-.11-.16-.68-.16-1.06.01-1.86-.31-.13-.05-.46-.11-.56-.19-.02-.02-.25-.34-.26-.36-.05-.08-.01-.27-.08-.37-.06-.09-.27-.03-.32-.18-.06-.19-.02-.67-.1-.94-.02-.07-.14-.06-.15-.12-.13-.52.19-.41.28-.59.12-.23-.05-.65-.13-.91-.11-.36-.33-.86-.32-1.32,0-.25.16-.35.16-.48,0-.15-.15-.36-.16-.57-.02-.48.17-1.45.14-1.84-.02-.34-.09-1.63-.14-1.85-.01-.06-.24-.03-.16-.33.02-.06.24-.03.17-.5-.02-.16-.18-.05-.18-.32s.16-.16.18-.32c.03-.23.03-.91,0-1.14-.02-.14-.14-.11-.16-.18-.23-.84-.5-1.78-.49-2.64.01-.78.25-1.28,0-2.07-.02-.07-.14-.06-.15-.12-.03-.13-.03-.57,0-.71.02-.18.35-.17.33-.56-.03-.46-.4-.46-.41-.49-.03-.09.02-.47.08-.55s.21,0,.25-.1c.1-.23.03-.63.08-.86,0-.02.32-.2.16-.38-.21-.23-.31.3-.33.32-.34.22-.37-.67-.32-.72.07-.07.55.18.39-.27-.04-.11-.21-.1-.23-.19-.08-.33.21-1.05-.36-1.08-.36-.02-.27.15-.34.17-.26.06-.41.03-.35-.24.29,0,1.06,0,1.18-.27.13-.3.27-1.32.07-1.59-.08-.11-.21-.07-.32-.08-.25-.02-1.1.05-1.38.08-.05,0-.49.29-.72.32-.3.04-.53-.05-.79-.04-.31,0-.45.24-.83.28-.72.07-.92.1-1.54.25-.32.08-.74-.09-.91.37.66.25.18.41.16.5-.03.15.02.35,0,.51.71-.1,1.63.01,2.3-.07.15-.02.11-.15.17-.17.15-.04,1.04-.08,1.27-.09.33,0,.61.04.93.08.13.1,0,.15-.12.16-.47.06-1.05-.03-1.54,0-.46.03-.99.13-1.45.16-.27.02-.95-.13-.93.16-.13.04-.05-.14-.12-.16-.22-.07-.18.11-.26.16-.14.1-.37.01-.26.35.02.06.15.02.17.17.11.85-.03,1.81.16,2.65.28,1.24.38,2.41.48,3.72.03.34.16.7.17,1.05s-.15.73-.09,1.05c.04.19.19.15.24.26.18.36,0,.99.08,1.34.02.09.37-.09.24.39-.02.07-.24.04-.16.5.02.15.14.11.16.18.11.44.14,1.22,0,1.65-.03.09-.22.03-.16.26,0,.03.15.03.16.09.08.36-.06,1.01.1,1.42.04.12.21.11.23.19.14.54.03,2.19.08,2.88.05.63.22.5.34.78.07.14.02.3.06.41.03.08.15.03.16.18.04.36-.33.13-.33.4,0,.37.38.34.41.37.03.03-.1.56-.08.77s.11.9.16,1.11c.02.09.67.41.49.7-.08.02-.3-.02-.32,0-.04.04.04.75,0,.91-.02.07-.15.02-.17.17-.04.34.16.29.17.32.06.24-.14.18-.16.25-.08.28.12.24.17.38.14.36.15.79-.34.7.12-.42-.13-.37-.23-.53-.17-.26-.04-.53-.09-.78-.01-.05-.27-.4-.31-.75-.06-.6.12-.87-.17-1.38-.13-.24-.26-1.92-.32-2.32-.07-.45-.24-.89-.32-1.23-.12-.51.03-1.64,0-2.24-.06-1.03-.43-1.94-.48-2.9-.03-.61.14-1.4,0-2-.02-.07-.15-.02-.17-.17-.03-.2.05-1.11,0-1.17-.07-.09-.3.2-.31.23-.13.38-.05.81-.16,1.19-.15.5-.3,1.16-.48,1.71-.05.16-.02.45-.1.61-.1.19-.78.31-.54.61.11.14.68-.2.47.76-.01.05-.14.05-.19.23-.16.56.03.57-.29,1.18-.06.11-.05.35-.11.41-.05.04-.2-.03-.23.06-.01.05,0,.33.01.35.05.06.25-.1.23.13-.02.28-.33.33-.38.58-.05.22.01.43-.02.61-.02.12-.69.44-.47.69.04.04.27-.11.31.3.06.56-.29.55-.32.64-.06.22.33.25.24.55-.04.14-.56.51-.4.05-.3-.17-.57.47-.48.56.02.03.38-.02.48,0,.14.33-.14.49-.16.54-.13.44.01,1.3-.14,1.62-.07.15-.25.09-.31.17-.1.14,0,.42-.04.6-.01.06-.15.06-.16.09-.06.23.14.18.16.26.07.29-.16.95.22,1.06s1.15-.05,1.6,0c.22.03.51.29,1.03.17.07-.02.02-.15.17-.17.58-.08,1.78-.15,2.36-.12.11,0,.73.1.75.13.02.02-.01.17,0,.24-.04.04-1.07.04-1.24.08-.47.11-1.02.29-1.62.32-.82.04-1.62-.11-2.41-.01-.02.36-.11.74-.13,1.1-.06,1.04-.05,3.12.07,4.11.02.15.15.08.17.23.1.81-.03,2.06.15,2.81.02.09.21.05.25.25.06.31-.06.67-.05.96.01.37.06,1.66.13,1.93.02.07.17.08.23.19.16.31.03,1.89.09,2.41.02.15.15.1.17.17.13.53,0,1.31.17,1.82.02.07.25.17.24.42-.38,0-.39.52-.24.79.05.09.19.09.23.19.11.34-.01,1.35.1,1.83.25,1.12.14,2.23.32,3.4.13.85.13,2.15.33,2.97.02.07.15.02.17.17.02.18.08.93-.17.85v.08c.39.06.24.83.32,1.15.02.06.14.05.16.11.11.47-.24.66-.17,1.2.02.15.15.1.17.17.12.54,0,1.27.17,1.82,0,.02.3.22.15.38s-1.03-.55-1.12-.71c-.19-.33.09-.28.14-.35.15-.25-.12-.31-.14-.37-.36-1.06-.31-1.51-.42-2.63-.03-.33-.23-.49-.24-.57-.11-.83.04-1.86-.16-2.73-.02-.07-.15-.02-.16-.17-.04-.33.19-.16.29-.28.27-.33-.26-.22-.29-.25,0-.37.24-.38.17-.85-.02-.15-.15-.11-.17-.17-.39-1.67-.18-3.67-.41-5.37-.05-.33-.22-.48-.23-.51-.05-.24-.09-.87,0-1.09.02-.06.14-.06.15-.12.15-.65-.18-.78-.24-1.11-.1-.51.03-1.52-.08-1.92-.02-.08-.15-.02-.16-.09-.04-.17.1-.08.16-.18s.08-.48-.12-.42l-.12.16c-.06-.35-.01-.92-.08-1.24-.02-.07-.22-.02-.16-.25,0-.03.15-.03.16-.1.06-.24.14-.85.16-1.12s-.01-.51,0-.76l-.32.4c-.15-.46-.07-1.15-.16-1.56-.01-.05-.26-.05-.16-.4.02-.07.24-.03.17-.5-.02-.16-.15-.08-.17-.23-.04-.34.04-.77,0-1.13-.04-.44-.39-1.72-.32-2,.01-.06.14-.05.16-.11.14-.57-.08-1.36,0-1.96ZM88.58,4.33h-2.66c-.02.1.13.53.17.55.1.06.43-.02.47.01.01.01.03.19-.05.25-.2.14-.55-.08-.43.34.01.05.12.03.17.17.05.17.12.56.06.72-.05.15-.53.26-.56.49-.05.4.02.95,0,1.38,0,.24-.13.49-.09.72s.33.1.25.57c-.02.15-.15.11-.17.17-.05.21-.07,1.43,0,1.55.04.06.39.05.46-.01.08-.07.06-.26.11-.29.02-.01.32-.15.41-.2.44-.22.54.03.46-.7l-.32.24c-.49-.59.26-.81.64-1.17-.2-.17-.51,0-.54-.34-.02-.28.2-.25.28-.4s.05-.34.1-.45c.04-.08.15-.05.15-.06.12-.17-.14-.14-.16-.21-.02-.08-.02-.61,0-.7.02-.07.17-.11.25-.18.09-.09.3-.54.32.04.65-.23-.05-.5-.08-.62-.07-.31.08-.61.04-.91-.14-.19-.84.04-.98-.15-.34-.46.8-.15.94-.21.2-.08.06-.27.08-.28.21-.12.79.26.64-.32ZM72.75,29.79c.64.05,1.33-.04,1.97,0,.02-.21-.08-.39-.08-.6-.01-.62.09-2.25.4-2.67.05-.07.21-.09.23-.13.05-.09,0-.33.04-.49.06-.2.29-.42.3-.44.03-.12.03-.65,0-.77-.01-.06-.22-.01-.17-.42.02-.15.15-.12.22-.27.06-.12.26-.52.27-.55.13-.54-.09-.61-.42-.91-.09-.08-.04-.26-.22-.11-.05.04-.3.3-.31.32-.08.21.11.18.13.22.04.09.01.19.05.27.02.04.13.04.14.06.09.3-.3.19-.46.38-.15.18-.12.66-.2.77-.05.07-.26.06-.3.11-.05.08.02.36-.01.5-.01.06-.13.05-.15.12-.13.45.14,1.78-.16,2-.44.32-.05-.75-.57-.61.02-.29.42-.35.32-.72h-.56s0,1.21,0,1.21c0,0,.11-.02.14.02.05.06.02.26.07.38.1.26.38.21.27.59-.02.06-.13.05-.15.12-.06.15-.02.34-.13.5-.05.08-.18.1-.23.17-.14.19-.2.49-.49.49-.05,0-.41-.17-.42-.19-.09-.1-.07-.65-.11-.7-.04-.04-.19.04-.23-.06-.03-.07-.1-.65-.08-.67.26.03.42.03.33-.28-.02-.07-.33.07-.32-.39,0-.3.05-.64.4-.62-.39-.57.05-.61.15-.87.19-.45-.01-.82.02-1.17.03-.27.36-.6.45-.93.11-.42-.19-.47.5-.42.08-.22-.14-.13-.16-.21-.02-.12-.08-.6-.08-.72,0-.73.32-1.17.39-1.79.03-.26-.12-.54.02-.84.07-.15.3-.08.33-.19.08-.29-.41-.48-.33-.79.01-.06.14-.05.16-.11.04-.15-.02-.35,0-.51.25-.1.12.21.16.24,0,0,.23,0,.24,0,.03-.03-.06-.74-.08-.83-.02-.07-.14-.05-.16-.11-.09-.37,0-.71.21-1,.08.01.4-.23.41-.25.05-.11-.14-.31.06-.38.3-.11.15.2.24.33.06.09.38.04.37.35,0,.02-.23.21-.28.22-.26.02-.2-.16-.24-.17-.27-.08-.18.12-.28.27-.04.05-.15.05-.16.11-.05.21-.07.84.2.83.15,0,.03-.4.28-.32.14.39-.13.45-.18.58-.23.55-.16,1.8-.14,2.44,0,.15.1.39.08.47-.06.19-.36.1-.39.13-.05.04.03.73,0,.91-.01.06-.13.05-.15.12-.25.7.13.48.23.58.04.04-.17.9-.08,1.08.02.17.31-.15.32-.18.04-.17.09-1.15.17-1.23s1.01.05.8-.49l-.56.16c.02-.12-.03-.61,0-.64.02-.02.49,0,.55-.09.03-.05.08-.83.16-1.09.06-.18.46-.74.49-.82.08-.23.03-.66.1-.85.05-.16.3-.12.36-.21.08-.12,0-.3.04-.43,0-.03.27-.38.31-.6.03-.18-.09-.34-.06-.45,0-.02.34-.36.37-.36.09-.03.42.04.53.08.09.03.04.22.26.16.02,0,.09-.28.36-.16.05-.26-.19-.05-.17-.36,0-.06.28-.37.3-.65.02-.25-.28-1.51-.14-1.64.03-.03.3.03.32,0,.27-.26-.46-.25-.49-.38-.04-.18-.03-1.46,0-1.68.02-.15.15-.1.17-.17.09-.36-.18-.49-.28-.83-.07-.23-.19-.49-.23-.65-.18-.66.16-1.27-.13-1.94-.13-.29-.15-.08-.25-.66-.12-.68-.36-.37-.83-.37-.64,0-.82-.05-1.39.15-.36.13-.85-.12-1.18.09-.06.04-.47.62-.49.72-.1.42.1.96.03,1.16-.03.1-.28.17-.35.38-.07.24,0,.43-.04.59-.02.09-.16.04-.16.05v1.17c0,.36-.65.11-.71.03-.05-.06.02-.29-.02-.42-.04-.13-.27-.15-.3-.26-.05-.23.16-.54.39-.6-.09.46-.25.69.32.72-.04-.25.06-.61,0-.83-.02-.06-.16-.05-.16-.1,0-.2.08-.55.31-.41.03.02-.03.21.18.14-.11-.26.15-.34.16-.38.04-.16.08-1.41,0-1.51-.06-.08-.21-.03-.24-.05-.05-.06.03-.28-.05-.4-.06-.09-.49-.27-.63-.23-.07.02-.02.15-.17.17-.26.03-.61-.02-.89-.01-.22,0-.83.23-.84-.16.8.01,2.02-.26,2.76,0,.04.02.18.31.45.14s-.06-.34-.07-.36c-.15-.57.24-.42.31-.52.09-.13.04-.81.13-.96.08-.13.69.14.69-.36-.33.03-.8-.07-1.09-.05-.72.05-1.2.08-1.94.08-.45,0-.68.15-.98.24-.15.05-.53.01-.63.16-.03.04.04.66-.04.91-.21.64-.29,1.44-.32,2.19-.01.37-.09,1.17.41,1.01.1.39-.35.35-.4.4-.13.12.12.16.16.22.02.04-.02.16.03.24.03.04.12,0,.14.06.04.18-.14.09-.16.17-.08.27.13.28.14.3.22.51-.27.21-.5.22-.2.5.24.33.28.36.17.13-.07,1.05,0,1.38.04.19.19.16.24.26.2.36,0,.81,0,1.18,0,.62,0,1.25,0,1.85,0,.23.15.51.08.77.02.03.3-.03.36-.07.14-.11-.11-1.09.33-.49.3-.02.3-.92.28-1.17-.03-.41-.29-.45-.25-.81.03-.23.43-.32.49-.42.15-.26.01-.82.1-.97.02-.03.43-.29.52-.37.13-.11.37-.28.41-.31.16-.16-.06-.68.34-.54.08.36-.31,1.52.2,1.61s.4-.22.53-.5c.23-.5.32-1.09.54-1.58.06-.13.22-.13.28-.29.1-.26.06-.58.07-.85.16.05.45.03.59.08.11.04,0,.19.14.16.09-.57-.09-.46-.48-.69.13-.23-.06-.59.03-.76.06-.11.51-.34.65-.33.07,0,.42.34.43.38.02.07-.12,1.21-.15,1.34-.02.11-.37.47-.46.57-.05.05-.03.21-.1.26-.1.07-.27.01-.33.04-.01,0,0,.22,0,.23.05.03.19-.02.22.01.04.04,0,.48.1.55s.37-.09.31.13c-.2.7-.94.13-1.21.32-.1.07-.08.35-.15.47-.06.1-.26.1-.31.27-.03.11-.19,1.02-.17,1.1.01.06.14.05.16.11.17.72-.26.45-.32.51-.04.04.04.82,0,.99-.01.06-.13.05-.15.12-.04.12,0,.33-.08.45-.14.21-.75-.05-.57.72.02.06.24.03.16.32-.01.05-.15.05-.2.29-.17.82-.02.85-.44,1.64-.04.08-.15.06-.15.06-.12.19.15.15.16.16.15.17-.16.15-.23.21-.13.1-.38.36-.41.52-.2.08-.13-.14-.21-.16-.15-.04-.65.12-.68.21-.04.14,0,1.01.02,1.19.04.23.21.18.23.33.02.15.02.59,0,.71-.02.07-.21,0-.17.34.02.15.15.11.17.17.06.26-.04.67,0,.96.03.21.16.31.17.56,0,.23-.1.45-.09.69l-.32-.32v.64s.24-.08.24-.08c.07.4.08.83.17,1.23.01.07.14.03.16.18.04.29.04,1.17,0,1.46-.02.16-.16.12-.17.16-.08.28.13.18.27.28.18.14.4.55.43.57.21.14,1.15.37,1.44.4ZM59.49,5.78c-.76-.01-1.53,0-2.29.09-.16.02-.44.13-.29.31.02.02.54-.07.59-.08.14-.04.43-.3.82-.16l1.17-.16ZM85.76,6.1c.13-.2-.2-.4-.4-.32l.08.4s.31-.07.32-.08ZM61.16,6.29c-.46-.16-.47.08-.66.14-.99.31-2.05.02-3.16.51-.04.02,0,.19-.23.13-.04-.01,0-.22-.24-.16-.03,0-.03.15-.1.16-.55.13-1.71.08-2.33.16-.14.02-.12.27-.54.17-.06-.02-.02-.23-.42-.17-.16.02-.08.15-.23.17-.71.09-1.64-.01-2.34.08-.25.03-.26.16-.45.28.15.21.4.08.59.12.07.02-.02.19.34.17.27-.01.16-.15.31-.18,1.22-.16,2.8.15,4.04,0,.26-.03.99-.12,1.19-.16.06-.01.06-.15.1-.16.25-.07.19.15.28.2.05.03.8-.02.91-.04.06-.01.02-.14.17-.17.46-.07.45.15.5.17.51.12.71-.15.87-.17.24-.03.98-.03,1.22,0,.16.02.06.22.4.17.02,0,.36-.19.37-.21.1-.36-.26-.54-.17-.68.05-.08.63.12.64-.32-.22-.06-.47.09-.66.06s-.38-.27-.41-.28ZM129.23,6.72c-.1-.09-.16-.27-.35-.3-.01.19-.03.41-.09.58-.17.54-.5,1.09-.8,1.57-.22.36-.09.55-.16.85-.01.06-.14.05-.16.11-.14.6-.18.84-.49,1.41-.06.11-.22.12-.28.3-.11.34-.01.45-.19.87-.08.2-.14.7-.52.58-.23-.07,0-.47-.29-.4,0,.27-.02.6.08.85.08.19.23.2.25.24.06.21-.12.16-.18.31-.07.2-.05.64-.17.76-.1.1-.37.06-.47.14-.12.09-.1,1.13-.08,1.38.01.21.05.69.09.87.01.06.49.37.49.66,0,.47-.65.52-.49,1.01.53-.02.6-.11.64.44.01.14-.02.66,0,.68.02.02.2.02.25-.05.17-.23-.07-.64.08-1.02.23-.54.14-.71.27-1.2.05-.2.29-.49.36-.93.06-.33.11-.51.17-.73.03-.13.05-.88.08-.91l.4.08c-.05-.42.28-.49.16-.99-.01-.06-.14-.05-.16-.11-.12-.44.45-.41.48-.43.01-.01.02-.36-.01-.39-.05-.06-.26.05-.31-.21-.04-.17.07-1.04.21-1.08.09-.02.43.14.6.07.12-.51-.52-.31-.48-.84.03-.37.27-.47.39-.66.07-.11.07-.24.14-.35.06-.09.44-.23.27-.48-.09-.13-.42.14-.32-.62.02-.16.44-.39.5-.55.22-.52-.12-.32-.16-.38-.02-.02-.02-.3-.01-.31.02-.02.18.02.26,0,.24-.08.29-.55.23-.76-.02-.08-.16-.02-.22-.07ZM61.75,7.87h-3.27c-.28.34-.79.05-1.12.17-.02,0-.28.35-.29.37-.09.37.14.34.16.4.13.54-.21.51-.22.73-.04.45.07,1.21-.01,1.68-.04.2-.22.17-.25.26-.07.26.08.77,0,1.02-.06.16-.33.1-.38.26-.13.38.14,1.08.07,1.53-.06.4-.23.9-.32,1.23-.13.47-.08.95-.01,1.43.03.18.1.1.21.2.06-.27.05-.56.13-.82.02-.07.23-.05.15-.33-.01-.05-.24-.03-.16-.32.01-.04.54-.54.55-.59.11-.3-.24-.89.28-1.21.12-.07.16-.05.36-.19.07-.05.21-.05.25-.1.21-.27-.04-1.27.22-1.52.15-.14.12-.04.31-.29.52-.67.05-1.3.29-2.01.05-.17.45-.65.5-.79.09-.24.06-.53.15-.78.2-.08.14.14.21.16.14.03.34-.02.53.02.29.06.44.34.71.43.11.37-.24.38-.31.66s.03.6-.02.85c-.07.32-.29.66-.32,1.22-.03.44.1,1.16.04,1.51-.03.18-.24.14-.28.35-.08.44.02,1.24-.08,1.68-.01.06-.14.05-.16.11-.04.15.02.31-.06.49-.09.2-.37.11-.26.52.02.09.28.05.22.56-.04.32-.23.3-.27.45-.04.15,0,.32-.05.44s-.21.1-.23.19c-.09.36.01.58.27.8.15.13.29-.06.21.51-.77-.22-.6.72-.48,1.23.02.08.23.05.16.51,0,.02-.2.35-.22.37-.07.05-.25.02-.28.13-.05.2.01.7,0,.95,0,.15-.08.3-.08.48s.12.35.09.56c-.05.3-.48.17-.32.8,0,.03.29.16.16.46.56.1.36-.42.49-.74.03-.07.4-.55.47-.69.03-.06-.02-.22,0-.25s.28.03.36-.08,0-.37.05-.52c.03-.11.18-.11.23-.19.15-.23-.04-.46.07-.72.07-.18.3-.23.37-.44.05-.16.02-.37.09-.48.03-.06.18-.05.2-.14.14-.51-.31-.21-.33-.63s.28-.36.3-.48c.02-.1-.14-.69-.05-.77.02-.02.62-.11.64-.08.03.03-.05.54.16.56-.03-.13.14-.15.16-.22.15-.61-.75-.53-.64-.87.06-.19.54-.15.62-.22.04-.03.12-.38.18-.48.04-.06.29-.42.32-.43.09-.07.29-.01.32-.04.13-.12-.13-2.34-.15-2.71s.13-.8-.01-1.26c-.02-.07-.14-.03-.16-.17-.07-.53.22-1.3-.32-1.63l-.16-3.09ZM130.38,8.22c-.07-.07-.48-.23-.54-.18-.01.01-.05.26-.09.34-.03.06-.14.06-.15.12-.04.15-.03.86,0,1.04.02.15.15.11.17.17.08.3-.15.26-.16.32-.05.24-.11.74-.16,1.04-.06.36.07.59-.22.93-.41.07-.7.36-.59.8.3-.22.56.14.49.43-.03.12-.28.08-.32.14-.13.2.23.58-.33.47-.06.24.16.38.16.59,0,.05-.14.82-.17.85-.02.03-.15,0-.2.04-.25.22-.47.45-.34.81.04.11.22.11.24.18.03.16-.41.77-.5.95-.15.54.27.98.16,1.44-.01.05-.12.05-.15.12-.11.31-.25.76-.39,1.04-.12.23-.29.11-.34.63-.03.37.33.08.37.31,0,.03-.09.6-.11.67-.06.16-.31.12-.35.39-.06.32.24.51.16.84.5.06.26-.46.32-.75.06-.28.37-1.02.48-1.32.04-.11,0-.27.06-.41.09-.2.32-.16.39-.26.05-.07.02-.2.05-.26.04-.08.14-.07.15-.12.1-.43-.02-1.08.16-1.6.05-.15.25-.22.31-.5.16-.78.15-.71.58-1.35.29-.43.25-.8.43-1.15.04-.08.45-.44.49-.51.09-.14.06-.35.13-.5.11-.22.54-.55.59-.71.2-.69.2-1.45.37-2.19.02-.09.27-.17.15-.65-.01-.06-.13-.05-.15-.12-.28-.9-.39-1-.98-1.69-.08-.09-.09-.31-.18-.4ZM38.62,8.12c-.23-.16-.39.22-.56.28-.36.14-.78.05-1.08.12-.04,0-.08.27-.49.16-.09-.02.01-.2-.17-.16-.07.02-.01.14-.09.16-.22.06-1.42-.06-1.48,0-.13.7.73.76,1.23.64.05-.01.04-.12.17-.17.34-.11.75-.05,1.11-.16.06-.02.34-.31.37-.31.15-.02.67.11.82-.01.02-.02.2-.54.17-.55ZM55.04,8.22c-.15-.11-1.23-.12-1.28.02-.06.27.08.56.09.8.01.4.02.97,0,1.37,0,.19-.21,1.12-.16,1.16h.4s-.06.55-.09.66c-.04.16-.23.18-.16.67.02.15.15.11.17.17.24,1.08.02,2.58.08,3.68.02.29.23.25.25.41.04.34-.15.27-.17.34-.02.08-.03.65,0,.67.03.03.32-.03.43,0,.08.02.02.15.09.16.17.04.1-.1.15-.13.07-.05.17-.04.25-.12.1-.11.28-.53.29-.68-.39-.21-.12.24-.4.36.01-.23-.02-.46,0-.68.07-.71.32-2.09.48-2.81.01-.04.28-.51.3-.76.02-.2-.16-1.13-.06-1.23.05-.05.4.2.4-.12l-.16-3.75.32.08-.56-.37c-.21-.06-.57-.07-.57.21h-.08s.01-.12-.02-.14ZM34.35,8.84s-.45-.09-.52-.09c-.26,0-.87.05-1.13.08-.15.02-.11.15-.17.17-.86.19-2.25.22-3.13.33-1.25.15-2.64.37-3.8.64-.49.11-.63-.26-.49.67.06.41.26.4.66.38.51-.02.86-.29,1.38-.33.68-.05.98,0,1.62-.24.57-.22,1.06-.06,1.5-.16.06-.01.05-.14.11-.16.17-.04,1.03-.05,1.07-.08l-.08-.24,2.5-.08c-.1-.44.17-.28.3-.43.02-.02.22-.41.18-.46ZM23.12,10.15c-.16-.07-.37,0-.54-.03l.16.48c-.52.04-1.32,0-1.79.17-.05.02-.05.12-.12.15-.53.22-.56-.16-.5.81.37.09.68-.13,1.01-.16.67-.06.9,0,1.55-.16.24-.06,1.05-.04,1.21-.18.05-.05.05-.18.1-.24.08-.11.39-.45.24-.62-.12-.14-1.02-.03-1.23-.09-.06-.01-.06-.12-.08-.13ZM56.27,11.02c.58.14.58-.87,0-.72-.1.22.31.13.16.32-.03.04-.27,0-.16.41ZM19.52,11.26c-.5.06-1.05.08-.8.72.64,0,.99.02.8-.72ZM59.25,11.26c-.44.02-.15.65-.25.92-.07.18-.46.02-.31.53l.81-.08c-.07-.16.02-.48,0-.59-.01-.06-.14-.05-.16-.12-.05-.2-.06-.46-.09-.66ZM26.77,21.25v-1.29s.22.02.24,0c.03-.04-.05-.45-.08-.48-.16-.14-.18.33-.32.16-.03-.03-.01-.73,0-.84.01-.09.28-.61.34-.67.09-.09.28-.05.31-.16.1-.4.05-1.2.16-1.74.01-.07.14-.06.15-.12.2-.83-.25-1.83-.16-2.23.02-.07.15-.02.17-.17.06-.47-.1-.66-.01-1.14.05-.26.07-.62.17-.86.04-.09.19-.01.16-.14-.34-.23-.75-.29-1.15-.16-.06.02-.06.14-.12.15-.57.14-.45-.04-1.01.31-.09.06-.27,0-.3.02-.04.03.11.46-.16.44.3.1.13.64.16.97.05.54.44.63.32,1.11-.01.06-.14.05-.16.11-.06.22.21.76.24,1.11.08,1.05-.03,1.5.24,2.52.2.74.12,1.3.34,1.99.08.26.02.6.09.8,0,.02.29.34.39.29ZM18.39,11.42c-.34-.11-.36.1-.47.16-.09.05-.22.03-.29.08-.09.05.01.21-.15.28s-.41-.05-.64-.01c-.07.01-.55.14-.46.31.37.15.58-.17.77-.17.26,0,.19.15.26.17.08.02.56.01.58,0,.03-.03-.02-.2,0-.22.12-.12.54.28.4-.57ZM16.13,12.06c-.18.02-.42-.04-.59,0-.06.01-.04.14-.11.16-.1.03-.28-.07-.26.08.27.02.52,0,.78-.07.14-.04.22.06.19-.17ZM111.55,13.27c.53.22.67-.27.64-.72-.1.1-.47.06-.48.08-.02.02.02.25,0,.35-.01.06-.26.07-.16.29ZM86.33,12.71c-.23-.22-.79.49-.56.81.11-.12.47-.23.52-.32.05-.08.06-.46.04-.49ZM15,12.88s-.1,0-.15-.01c-.45.84.14,1.55.24,2.34-.09-.08-.38-.07-.4-.08-.1-.09.21-.65-.27-.62-.35.02-.16.26-.22.49-.03.13-.14.22-.16.33-.03.15.17.07.17.23.03.99-.39,1.77-.5,2.66-.04.31.07.76,0,1.04s-.23.64-.23,1.05c0,.16.16.85.07.94-.05.05-.4-.13-.32.16,1.04.06.73.02.97-.66.02-.06.12-.06.15-.13.05-.15.03-.41.09-.58.15.09.04.29.32.32.03-.37-.05-.79.02-1.15.04-.23.21-.17.23-.33.07-.47-.15-.42-.17-.56-.03-.22-.02-1.16.08-1.3.06-.07.23-.08.25-.17.07-.29-.16-.87.18-1.05.1-.05.25.01.31-.07.2-.27.09-.91.15-1.19.04-.15.22-.42.24-.82.04-.67-.09-.37-.59-.53-.12-.04-.11-.08-.41-.15-.08-.02-.05-.14-.06-.15ZM72.06,13.03s-.5.05-.64-.08c-.1.58.26,1.03.16,1.61-.15.02-.07-.31-.2-.32-.25-.01-.25.51-.2.56.15.16.29-.23.32-.16.08.38-.02,1.15.58.8.25-.14-.02-.12.43-.2.31-.05.16-.68.22-.95.05-.21.45-.38.3-.62-.07-.11-.79.07-.88,0-.03-.02-.06-.61-.09-.64ZM58.9,13.06c-.58-.25-.55.81-.7,1.05-.07.1-.25.1-.31.27-.13.36.43.39.3.58-.19.28-.75.05-.8.09-.03.02-.16.67-.15.71,0,.02.25.25.3.18.01-.02-.02-.4.12-.4.03,0,.24.08.2.2-.02.07-.14.01-.16.09-.02.1.04.27,0,.34-.03.05-.27.05-.3.1-.05.07-.12,1.03-.18,1.22-.02.06-.22.13-.27.3-.1.33-.05.38-.2.71-.23.53-.08.45-.09.94,0,.31-.34,1.29-.4,1.7-.03.22.04.52,0,.71,0,.04-.43.38-.5.57-.1.3-.01.87-.14,1.05-.08.11-.92,0-1.14.13-.02.13.13.04.19.18.22.49-.03.97.11,1.26.06.13.49.12.21.25-.18.09-.27,0-.26.36,0,.41-.04,1.33.07,1.7.05.14.16.1.17.23.04.3-.07.77,0,1.04.02.06.16.05.16.1.02.13-.11.3-.07.54.04.28.46.27.22.96-.03.08-.25.06-.15.41.02.07.15.02.17.17.03.27-.07,1.68,0,1.74.05.04.69-.12.44.4h-.6c-.08.27.15.21.21.39s.06.7.13.8c.06.08.29.04.31.15.12.52-.32.52-.33.55-.07.25.02.35.27.28.05-.02.05-.13.12-.15.57-.2.99-.47,1.45-.64.38-.15,1,.03.98-.53s-.09-1.33.04-1.9c.03-.16.43-.72.52-.95.28-.69.19-1.08,0-1.78-.44-.05-.72.56-1.17.49-.15-.02-.12-.14-.18-.16-.15-.06-.41-.05-.5-.13-.19-.15-.3-.63-.24-.87.01-.06.14-.05.16-.11.21-.91-.03-2.22.16-3.11.01-.05.3-.18.32-.42.03-.35-.27-.78-.03-1.16.42-.64.38-.94.36-1.74,0-.18-.12-.41-.08-.55s.22-.05.27-.12c.29-.39.02-1.55.12-2.04.01-.07.15-.06.19-.15.17-.41-.19-.92.05-1.24.09-.12.34-.06.25-.38-.03-.1-.41-.1-.17-.48.06-.09.24-.11.29-.22.09-.19,0-.41.04-.59.01-.06.14-.05.16-.11.13-.56-.24-.6-.23-1.02,0-.35.22-.48.23-.51.07-.31-.04-.7.14-1.05.07-.13.17-.07.19-.14.03-.19-.09-.07-.21-.15-.03-.02-.04-.1-.05-.1ZM110.42,14.8s.16-.55.16-.61c.02-.5-.44-.12-.45.17,0,.04.15.58.29.44ZM59.49,14.48c-.67.04-.68.4,0,.4v-.4ZM4.21,15.13c-.06.1.05.92,0,1.13.1,0,.37-.1.43-.16.08-.07.03-.18.07-.22s.52-.32.62-.4c.13-.1.37-.46.48-.51.13-.06.91-.15.9-.2,0-.14-.09-.18-.21-.2-.05,0-1.05.07-1.11.08-.06.01-.05.14-.11.16-.23.05-.56-.06-.82.05-.13.06-.07.16-.12.24-.03.04-.13.02-.14.03ZM115.65,14.65s-.38-.11-.39-.09v.48c.14.04.03-.16.13-.17s.26.11.27.09c-.01-.09.03-.26-.01-.31ZM132.34,14.96s-.17.01-.24,0c.02.3-.07.91.32.81.04-.04-.05-.78-.08-.81ZM91.39,15.62c-.22-.14-.71.35-.5.47.05.03.24.01.26.12.06.24-.28.22-.4.04-.02.13.03.31,0,.43-.02.07-.15.05-.15.06-.11.16.08.14.12.19.05.06.09.18.15.19.55.09.3-.34.37-.64.01-.06.21-.06.24-.34,0-.11-.02-.46-.09-.51ZM114.39,16.92c.17-.15.39-.06.38-.55,0-.39-.17-.18-.35-.22-.1-.02-.22-.13-.26-.13-.31.02-.46,1.16-.53,1.37-.02.08-.24.04-.15.4,0,.01.17.19.18.19.51.18.35-.12.47-.39.03-.07.13-.06.15-.12.04-.15-.03-.44.11-.56ZM71.56,16.12c-.6-.22-.39.8-.46,1.06-.02.09-.19,0-.26.09-.08.11-.04.34-.08.46-.02.07-.14.06-.15.12-.1.36.14.35.16.4.04.15-.02.78.2.83.27.06.25-.48.29-.58.28-.66.13-.94.32-1.61.02-.07.14-.03.16-.18.03-.17-.01-.52-.19-.58ZM91.87,17.36s.33-.33.33-.35c.04-.12-.16-.62-.07-.83-.33.06-.26.37-.38.62-.05.11-.18.08-.21.27-.05.25.07.43.33.29ZM116.06,16.25l-.65.38c.03.36-.05.75-.16,1.09-.03.08-.21.03-.16.34.04.27.73.43.89.28.02-.02.02-.43,0-.51-.05-.14-.26-.04-.24-.33.01-.15.15-.11.17-.17.05-.21-.04-.49,0-.7.01-.04.27-.11.16-.38ZM130.72,16.51s-.28-.12-.31-.09c.04.38-.38.49-.24.97.47.08.3-.15.41-.42.03-.07.3-.18.14-.45ZM130.4,18.74c.06-.05.29-.97-.18-.96-.53.02-.15.54-.36.83-.06.09-.3.07-.37.21-.06.12.14.83.12,1.01-.02.21-.28.51-.31.59-.06.16-.02.47-.09.61-.04.09-.17.03-.21.08-.42.41-.52.8-.68,1.3-.13.41-.23.55-.14,1.04.06.33.35.44.38.51.04.13-.14.51-.07.78.02.06.15.05.16.1,0,.09-.08.16-.03.33,0,.02.23.26.25.26.31.07.22-.14.38-.17.17-.02.98.04,1.01,0,.03-.03-.03-.46,0-.59.01-.05.26-.05.16-.48-.01-.06-.13-.05-.17-.17-.09-.24-.04-.51-.12-.76-.03-.1-.43-.36-.48-.45-.14-.26-.11-.6-.03-.88.02-.07.14-.06.15-.12.07-.28-.09-.85.04-1.07s.34.18.37.2c.37.22.41-.18.31-.47-.04-.11-.21-.1-.23-.19-.03-.14-.16-.59-.17-.62-.01-.11-.03-.9,0-.93.03-.03.25.04.31,0ZM91.72,18.19s-.72-.19-.79-.07c-.06.1-.07,1.15-.09,1.36.31.08.3-.19.43-.3.05-.04.18,0,.2-.03.06-.06-.03-.34.02-.39.03-.03.22.04.24-.05.01-.07,0-.5,0-.52ZM55.94,18.19c-.4-.24-.28.92-.24.96.32.32.42-.85.24-.96ZM3.38,26.39c.21-.45.02-3.33.02-4.05,0-1.2.22-2.5.09-3.71-.09-.83-.36.16-.41.3-.08.21-.44,1.02-.47,1.17-.1.44-.08,1.15-.17,1.58,0,.04-.44.52-.5.64-.23.45-.69,1.56-.78,2.04-.03.18.03.4,0,.54,0,.02-.43.17,0,.21v.08c-.3,0-.31.66-.33.92-.02.31.05.68,0,.98-.02.15-.15.1-.17.17-.11.43.14.43.16.48.06.26-.02.72,0,1.03.02.24.08.93.32.93v.08c-.45.14.11.8.14,1.19.1,1.04.15,1.56.49,2.58.28.82.24,2.49.49,3.43.02.07.14.05.16.11.1.36-.14.35-.16.4-.13.55.17.46.27.76.13.39.14,1.13.22,1.56.05.26.26.52.16.85l-.32-.08c-.03.33-.05.51.32.4-.19.64-.07,1.18,0,1.82.01.11-.08.24-.06.31.02.1.23.14.3.26.25.37-.11.72-.08,1.12.01.15.15.11.17.17.07.28-.04.73,0,1.04.02.13.28.16.17.44.29-.12.08-.44.08-.68-.09-4.11.03-8.29,0-12.41-.01-1.71.1-3.56,0-5.24-.02-.29-.26-1.28-.24-1.35.02-.06.12-.06.13-.08ZM54.97,18.52c-.23-.14-.76.22-.79.37-.02.11-.03.44,0,.54.02.08.38-.06.25.37.4-.08.31-.38.41-.58.07-.13.24-.08.23-.42,0-.06-.06-.26-.09-.28ZM114.45,18.51c-.43-.11-.48.19-.85.23-.25.03-.51,0-.76,0-.06.25.2.31.24.52.03.14-.03.66,0,.68h.24c.02-.14-.03-.86,0-.89.03-.03.34.03.44,0,.09-.02,0-.19.1-.25.12-.07.44-.07.59-.08v-.24ZM115.58,19.4s-.03,1.1,0,1.29l-.97.08s.03.7,0,.85c-.02.13-.27.12-.17.54,0,.03.45.45.55.39.25.61-.5.3-.56.53-.13.57.23.39.25.47.04.19-.01.83-.09,1.02-.06.14-.38.32-.23.71l.32-.08c.09.53-.11.32-.25.45-.09.09-.11.3-.18.4-.04.05-.35.2-.29.27.22.03.43.18.64.08v1.37c-.23.04-.23-.4-.48-.24-.13.09-.02.48-.03.59,0,.13-.25.29,0,.36s.61-.04.86.01c.06.01.05.13.17.17.29.11,1.05.06,1.37-.02.07-.02.06-.12.11-.16.08-.06.25-.04.27-.13.03-.12.02-1.04,0-1.2-.02-.18-.12-.56-.17-.88-.13-.89-.29-2.01-.48-2.89-.01-.05-.26-.05-.16-.4.02-.07.23-.03.17-.5-.03-.18-.19-.13-.24-.25s.03-.8.07-.94c.02-.07.14-.05.16-.11.01-.05.08-.9.07-.95-.02-.1-.21-.09-.23-.18-.09-.35.2-1.47-.52-1.4-.24.02-.45.6-.6.77-.1.12-.29.09-.32.13-.06.07.02.64-.01.79.13,0,.08-.17.16-.28s.44-.52.54-.59c.07-.05.2-.16.27-.09ZM92.21,18.83c-.5.09-.28.67-.32,1.05-.44-.25-.97.24-.75.71.08.17.28.13.3.37,0,.06-.04.42-.06.43-.05.06-.54.03-.14.29.21.13.32,0,.23.49-.04.21-.25.15-.3.42-.07.35.06.83-.07,1.13-.06.13-.26.11-.28.3-.03.27.18.23.25.34.14.21.01.36.01.55,0,.09.1.33.06.36-.02.02-.37-.08-.33.36.02.19.22.17.25.25.1.35-.14.23-.24.31-.19.16-.28.57-.25.81.02.18.19.12.23.25.12.38-.04,1.06.1,1.5.02.06.13.05.15.12.03.08-.02.24,0,.26.05.06.84-.13,1.01-.16.39-.07.29.05.67-.15.1-.06.34.04.34-.21-.15-.36-.01-.87-.09-1.19-.01-.06-.13-.06-.15-.12-.25-.82-.01-1.94-.17-2.62-.02-.07-.15-.02-.17-.17-.2-1.55.04-3.22-.07-4.76-.03-.39-.14-.61-.25-.92ZM62.15,19.64c-.58.03-.83.07-.72.72.34-.1.68-.35.72-.72ZM90.41,20.98c.16-.17.34-.95-.02-.95-.07,0-.41.33-.44.38-.07.11-.07.33-.08.35-.07.06-.52-.16-.67-.14-.24.03-.27.28-.35.3-.09.02-.32-.02-.35,0-.02.02.02.25,0,.35-.01.05-.22.09-.22.42,0,.62.09,1.31.87,1.25.1-.3-.11-1.09.04-1.29.05-.07.21-.05.26-.1.06-.06.12-.4.2-.44.15-.08.59.07.77-.12ZM55.94,20.12l-.63.25c-.22.43.5.42.62.21.06-.11,0-.33.02-.47ZM14.85,21.41c.05-.68-.42-.66-.4,0h.4ZM90.31,21.71c-.05-.11-.03-.34-.15-.38-.44-.13-.25.8-.28,1.05.4,0,.67-.15.56-.59-.01-.06-.12-.06-.13-.08ZM114.13,21.98h-.4c-.12.61.44.61.4,0ZM27.12,23.16c-.18-.26,0-.63-.51-.54.02.17-.06.53.03.65.07.1.25.04.35.1.08.05.07.31.34.22.1-.33-.15-.33-.22-.43ZM126.74,23.7c.2-.19.51-.73.08-.77-.3-.03-.21.17-.31.3-.28.37-.17.28-.3.69-.01.04-.29.17-.15.3.2.2.27-.24.32-.28.08-.08.21-.09.36-.25ZM60.01,23.88c-.06-.1-.06-.22-.16-.29-.25-.02-.25.49-.2.67.02.09.18-.02.16.17,0,.02-.31.13-.16.28.12.13.55-.49.48-.75-.01-.06-.11-.06-.12-.09ZM73.81,24.02c-.4-.16-.27.12-.37.25-.08.1-.25-.05-.31.27-.08.45.12.17.31.3.1.07.07.26.08.37.07-.01.22.02.24,0,.05-.05.05-.72.08-.83.02-.08.15-.02.16-.09.01-.06-.15-.24-.18-.26ZM58.03,25.29c-.07-.04-.22,0-.31,0-.1.35.12.43.16.73.21-.03.23-.67.15-.72ZM129.74,26.27c-.14-.06-.93-.13-1.06-.03-.1.07-.24.84-.21,1.01.17.91.08,1.08.07,1.94,0,.48.24,1.24,0,1.68-.07.12-.2.08-.23.25-.08.49.16.51.17.64.03.22.03.92,0,1.14-.02.14-.24.09-.17.56.02.14.14.11.16.18.09.31.08,1.84,0,2.14-.02.08-.22.02-.16.26,0,.03.15.03.16.09.03.13.03.65,0,.8s-.15.08-.17.23c-.07.59.26,1.05.17,1.44-.02.07-.15.02-.17.17-.03.21-.03.85,0,1.06.02.16.18.05.18.32,0,.22-.25.23-.18.73.02.15.15.08.17.23.05.39.08,2.24-.01,2.57-.02.07-.14.05-.16.11-.18.75.29.9.32,1.45.01.27-.19.93-.15,1.1s.3.19.31.26c.07.26-.2.2-.24.33-.03.11.09.26.06.45-.05.27-.39.41-.31.71h.32s-.15.5-.08.56c.03.03.23-.05.25.05s.02.45,0,.55c-.01.06-.14.02-.17.17-.07.5.16.51.17.64s.02.51,0,.63c0,.04-.29.18-.29.34,0,.08.13.23.13.4.04.91-.04,1.42.16,2.27.03.14.03.79,0,.96-.02.15-.16.08-.17.23-.18,1.53,0,3.18-.31,4.61-.18.8,0,3.05,0,4.02,0,.29-.18,1.19.27,1.25.19.02.96.03,1.12,0,.06-.01.06-.12.11-.16.18-.12.35-.14.4-.46.01-.08-.11-.83-.15-.93s-.24-.07-.24-.42c0-.37.19-.38.25-.56.36-1.1.37-2.58.4-3.79.06-2.45.05-4.85-.01-7.26,0-.38-.27-1.49-.23-1.67.02-.07.15-.02.17-.17.07-.53.07-2.3,0-2.83-.02-.15-.15-.08-.17-.23-.1-.82.04-1.82,0-2.67-.06-1.9-.12-3.65-.09-5.56.02-1.22-.02-2.51.24-3.64.02-.08.03-.73,0-.75-.02-.02-.25.02-.32,0l.08-7.25c-.31.12-.39-.12-.42-.14ZM59.47,26.59s-.45-.12-.46-.1c-.14.14.15.27.16.3.04.23-.12,1.11.2,1.14.47.04.24-1.2.1-1.33ZM16.93,27.47s-.18-.06-.23-.09c-.07.45-.13.84,0,1.29.16,0,.05-.3.08-.43.01-.06.14-.05.16-.11.02-.09.02-.61-.01-.66ZM75.69,29.71c-.12-.43,0-1.02-.08-1.41-.03-.14-.09-.23-.24-.2l.03,1.41.29.2ZM130.8,64.93s-.48-.09-.51-.08c-.09.03-.1.17-.16.21-.18.12-.43.08-.38.43.26-.04.76.19.97.05.1-.07.1-.57.07-.6ZM122.48,65.93c-.49-.12-1.75-.1-2.27-.04-.09.01-.28.22-.64.25-.46.03-1.33-.28-1.25.4.03.03.53-.09.3.23-.03.04-.17-.04-.14.09l2.28-.16c.33-.39.73.08,1.31,0,.15-.02.08-.15.23-.17.76-.1,1.86-.12,2.66-.16.56-.03,1.26.08,1.78,0,.14-.02.13-.18.28-.17.02-.14-.18-.08-.28-.08-.86-.03-2,.03-2.83-.07-.15-.02-.08-.15-.23-.17-.5-.07-.56.24-1.06.17-.14-.02-.12-.13-.14-.14ZM107.52,67.83h1.97c.14,0,.08-.39.17-.41.13-.02.3.02.44,0,.1.42-.28.08-.24.4.4.07.73-.08,1.1-.15.22-.04.59-.17.63-.18.58-.08,1.44.03,2.02-.07.21-.04.13-.23.32-.25.49-.06.63.24,1.13.25.57.02,1.26-.09,1.72-.24.78-.25.82,0,.82-.97-.24.03-.54-.04-.77,0-.15.02-.11.15-.17.17-.52.12-.68-.17-.87-.17-.14,0-.37.22-.73.25-.99.07-1.89-.14-2.96.08-.07.01-.06.2-.26.22-.39.02-.68-.25-.88-.22-.15.02-.11.14-.18.16-1.09.29-2.36.1-3.44.33-.18.04-.87.18-.51.34.26.11.66.14.95.14l-.24.32ZM101.23,66.54c-.16-.16-.36.15-.38.16-.17.05-.57-.04-.67.16l1.05-.08c0-.07.01-.23,0-.24ZM99.12,66.89c-.12-.06-2.47-.22-2.68-.19-.15.02-.08.15-.23.17-.63.08-1.8-.14-2.33,0-.08.02-.02.15-.09.16-.19.04-.08-.14-.17-.16-.38-.1-1.68,0-2.16,0-.6,0-1.46-.08-2.02-.01-.16.02-.05.18-.32.18s-.16-.16-.32-.18c-.24-.03-.93-.08-.97.17-.07.01-.02-.12-.05-.14-.12-.08-2.56-.06-2.85-.03-.15.02-.08.15-.23.17-.88.11-2.48.04-3.39,0-.26-.01-.75.05-.95,0-.06-.02-.05-.29-.21-.16-.02.01.05.25-.27.16-.06-.02,0-.23-.42-.17-.19.03-.13.2-.25.24-.24.08-.7-.03-1.04.09-.14.04-.12.15-.17.17-.91.21-2.27-.04-3.18.1-.18.03-.38.13-.47.3,1.11,0,2.23,0,3.35,0,.86,0,1.8.08,2.66.07.48,0,.6-.3.72-.31,1.53-.18,3.28.04,4.76-.15.15-.02.08-.15.23-.17,1.08-.14,4.65-.14,5.73,0,.16.02.05.16.31.18.36.02.24-.15.4-.18.45-.06,1.98-.06,2.43,0,.15.02.11.15.17.17.55.13,1.11-.24,1.68-.24.21,0,.41.09.64.09.82-.02,1.64-.14,2.46-.08-.11-.18-.48-.04-.67-.08-.06-.01-.06-.12-.08-.13ZM73.51,67.18l-.72.44c.43.29.88.11.72-.44ZM106.54,67.52c-.34-.33-1.67-.1-2.11-.1-1.15.01-2.31-.07-3.45.08l-.38.32c.19-.01.17.22.36.25.16.02.37-.09.56-.09.35,0,.81.05,1.14,0,.15-.02.08-.15.23-.17.86-.11,2.41-.01,3.16.17.25.06.64-.04.91,0,.06-.29-.21-.1-.31-.17-.05-.03-.04-.22-.11-.29ZM49.98,67.75c-.05-.05-1.26.01-1.29.32.16.14,1.24.05,1.29,0,.01-.01.01-.31,0-.32ZM48.52,67.84c-.06-.04-.18-.02-.26-.01l-.38.32.73-.08c-.03-.05-.08-.22-.09-.23ZM92.53,67.83c-.16-.12-.15.12-.17.13-.12.09-.36-.1-.3.18h.89c-.05-.19-.25-.12-.38-.19-.03-.02-.02-.12-.03-.13ZM99.22,67.83c-.45-.02-.71-.08-.97.32.13.02.93-.05.97-.08.02-.02-.01-.18,0-.24ZM97.04,68.31c.07-.29-.43-.21-.59-.16-.07.02-.05.14-.11.16-.12.03-.36-.07-.35.08.38.12.67-.1,1.05-.08ZM100.51,68.15c-.06-.06-.74-.18-.64.16.06,0,.88.06.64-.16ZM28.06,68.96l-.56.08c.01.08.31.18.16.32-.09.09-.75-.08-.92-.07-.3,0-.64.15-.97.16-.39,0-.68-.15-1.05-.17-.92-.06-2.43.21-3.21,0-.08-.02-.03-.22-.26-.16-.02,0-.09.29-.4.16-.19.15.25.26.28.38.1.48-.2,1.3.6,1.4.3.04,1.25.01,1.52-.1.06-.03.42-.55.46-.24.04.25.14.24.44.18.26-.06.7-.47.74-.48.23-.05.54.05.77,0,.02,0,.32-.29.37-.31.34-.11.94-.22,1.06.19l-.4.04c-.07.38.09.37.45.33.31-.04.22-.21.38-.27.56-.24,2.59.05,3.33.03.92-.03,1.77-.38,2.66-.4.31,0,.99.21,1.27,0,.08-.06.02-.2.1-.26.16-.11.96-.11,1.14-.02.17.08.05.25.14.27s1.16.02,1.28,0c.31-.06.15-.35.2-.4.03-.03.38.02.5,0,.05-.01.05-.12.12-.15.42-.19.34.08.47.16.39.24,1.11-.1,1.56,0,.04-.23-.05-.13-.19-.17-.36-.1-1.21-.14-1.62-.15-.23,0-.86-.04-1.04,0-.14.03,0,.29-.25.33-.44.07-.23-.18-.28-.25-.95.09-1.91-.05-2.86,0-.43.02-.75.07-1.06.25-.14.08-1.76.02-2.14.1-.25.05-.2.21-.35.28-.44.21-.91.01-1.35.01-.35,0-.66.12-1.01.09-.07-.29.24-.09.39-.18.04-.02.04-.17.15-.21.29-.1,1.25.02,1.67-.02.35-.04.45-.21.51-.23.48-.13,1.06,0,1.51-.09.11-.02.23-.08.2-.2-.08-.11-.14-.12-.27-.12-.25.01-.67.04-.9.07-.15.02-.1.15-.17.17-.53.12-1.03,0-1.51,0-.24,0-1.6.06-1.66,0-.02-.02.02-.25,0-.32Z"/>
  <path d="M132.65,27.14c-.04.56.09,1.27.02,1.81-.02.15-.15.11-.17.17-.04.18-.08,1.32-.09,1.59,0,1.68.32,3.15.41,4.76.03.55-.11,1.73,0,2.16.02.09.21.06.25.26.06.32.07,1.29.08,1.69.03.89-.12,2.08,0,2.91.02.15.22.6.25.96.03.49-.02,1,0,1.49-.16,0-.05-.3-.08-.43-.02-.07-.15-.02-.17-.17-.17-1.35.01-2.86-.15-4.12-.02-.15-.15-.08-.17-.23-.11-.84.05-1.41-.15-2.35s-.11-2.22-.33-3.21c-.3-1.33-.24-3.08-.24-4.53,0-.64.1-1.45.08-2.01-.02-.41-.44-.98.48-.76Z"/>
  <path d="M28.63,25.52c.07.04.23.07.25.13.03.12-.09.42.08.43.11-.21.04-.47.08-.67.02-.07.13-.06.16-.11.14-.28.1-.64,0-.93-.02-.05-.13-.05-.15-.12-.01-.04-.08-.51-.08-.55,0-.16.28-.15.3-.49.02-.43.09-.85.11-1.27,0-.16-.11-.37-.08-.47.06-.22.52-.09.56-.13.04-.04-.04-.74.01-.92.06-.21.28-.02.31-.05.13-.15-.19-.23-.17-.45.02-.16.15-.11.17-.17.07-.28-.03-.77,0-1.11.06-.57.08-1.21.15-1.78.02-.13.14-.1.2-.29.1-.36.15-.75.13-1.12-.1.08-.34.05-.39.09-.07.06-.08.52-.1.54-.01.01-.36.09-.32-.12.04-.22.31-.47.32-.5.11-.46,0-1.37.16-1.74.05-.1.23-.05.29-.13.23-.32-.37-.88.84-.73-.02.17.03.37,0,.53s-.29.25-.3.3c-.05.13,0,.27-.04.37-.04.07-.73.32-.41.5.18.1.52-.04.43.28,0,.03-.15,0-.17.16-.08.65-.11,1.5-.16,2.18-.03.43.08,1.05,0,1.44-.01.07-.3.21-.32.28-.03.15.02.3,0,.45,0,.02-.3.16-.16.29.22.22.3-.35.32-.48.43.02,0,.27,0,.3-.03.14.02.29-.02.45-.11.4-.43.38-.3.97.01.05.31.15.24.41-.07.24-.4.04-.56.05v1.25c0,.54-.19.16-.32.28-.04.04,0,.95-.08,1.13l.32-.16c-.05.27-.03.67-.08.91,0,.03-.27.19-.31.44-.05.32.12.52-.02.92-.03.08-.16.02-.16.26s.13.17.18.31c.21.55-.11.43-.2.63-.11.25.05.42.01.64-.04.25-.3.41-.31.44-.07.33.05.88-.09,1.26.68.41.74-.69.73-1.16.55-.13.24.39.32.76.02.1.23,0,.25.09s.01.46-.02.55c-.11.32-.48.11-.58.14-.16.05-.09.24-.14.33-.05.08-.14.04-.16.18-.07.47.15.44.17.5.14.49-.9.79-1.19.21-.25-.49-.02-1.44-.09-2.01-.02-.14-.24-.14-.17-.64.02-.14.14-.11.16-.18.13-.41.41-.96.41-1.35v-1.57Z"/>
  <path d="M32.74,26.81c-.04.27.06.66,0,.91,0,.04-.26.67-.28.7-.05.09-.29.04-.2.35.02.06.14.05.16.11.12.52,0,.95,0,1.43,0,.16.11.66.09.68s-.53.08-.57.37c-.05.46.29.25.33.42.08.33-.2,1.07-.08,1.48-.32.05-.25-.04-.24-.32-.38.16-.02.59-.04.73-.02.23-.32.14-.41.32-.08.16,0,.35-.04.51-.01.07-.14.02-.17.17-.06.46.18.28.42.12.08-.06.27-.38.23.04s-.27.39-.34.55c-.11.26.07.5-.47.42-.36-.05-.26-1.03-.31-1.27-.01-.06-.24-.04-.17-.5.03-.17.48-.69.49-.74.03-.16-.02-.33.02-.53.06-.28.36-.45.38-.58.12-.6-.18-.39-.29-.52-.22-.27.16-.38.21-.47.23-.37,0-1.33,0-1.75.03-.95.51-1.52.93-2.25.1-.17-.02-.44.35-.37Z"/>
  <path d="M36.15,51.53c.3.68.1,1.15.3,1.73.03.09.21.04.16.26-.01.04-.19-.02-.17.24.01.16.16.08.17.23.02.2-.03.44,0,.65.14,1.07.17,2.38.44,3.35.04.15.19.14.21.21.12.56-.06,1.42.17,2.06.3.86.02,1.93.31,2.85.19.6.11.68.17,1.28.07.75.23,1.53.34,2.24.08.47.31.78.38,1.23.03.16-.03.1-.12.13-.61.23-.44-.38-.59-.72-.04-.1-.16-.1-.19-.15-.22-.39-.09-1.74-.15-2.25-.02-.15-.16-.08-.17-.23-.04-.34.15-.24.17-.4.02-.18.02-.71,0-.9-.02-.15-.15-.1-.17-.17-.13-.54-.13-.75-.32-1.3-.07-.22-.29-.8,0-.9l.24.32c.15-.68-.18-.5-.29-.64s.05-.54.05-.77c0-.24-.12-1.22-.17-1.44-.01-.06-.14-.02-.17-.17-.12-.82,0-2.11-.16-2.81-.01-.07-.16-.05-.21-.21-.11-.4.07-.68.03-.99-.03-.25-.31-.69-.31-.74-.1-.8-.07-1.62-.07-2.42.15-.09.05.3.11.42Z"/>
  <path d="M33.52,19.83s.02.08.06.1c.06.04.18.02.19.04.05.06-.02.26.02.31.03.04.22-.04.24.05.04.2.07.6-.17.64.44.17.02.45,0,.5-.09.31-.02.82-.08,1.11-.01.07-.31-.07-.32.41-.01.38.08.5-.1.94-.04.09-.21.04-.16.26,0,.03.25.01.16.31-.02.07-.22.02-.16.25,0,.03.23,0,.17.41-.02.15-.15.1-.16.17-.11.4-.13.93-.08,1.35-.44.22-.12-.51-.65-.2-.16-.15-.03-1.81,0-2.14.04-.37.23-.46.24-.5.16-.7.03-1.66.03-2.33,0-.25.05-1.16.13-1.34.04-.1.19-.02.25-.1.1-.13-.02-.41.37-.25ZM33.7,21.09c-.37-.09-.22.25-.33.5-.32.75-.16,1.01-.32,1.7,0,.03-.31.21-.16.54.45.08.21-.41.29-.72.05-.2.26-.17.19-.37-.02-.07-.2.01-.16-.12.22.04.14-.21.23-.37.07-.12.22-.2.24-.26.09-.27-.01-.63,0-.91Z"/>
  <path d="M32.41,21.34c.04.06-.02.24,0,.34.02.07.15.05.16.11.04.18-.1.8-.17,1.01-.04.14-.46.8-.47.85-.08.4,0,1.04-.17,1.41-.06.12-.58.6-.68.87-.06.18.17.54-.13.81-.19-.03-.02-.51-.08-.56-.07-.07-.24.01-.3.14-.1.2-.18,1.07-.02,1.19s.38.01.24.55c-.02.08-.2.1-.27.23-.12.25.07.48-.3.55,0-.31.02-.63-.08-.93-.04-.13-.13-.13-.16-.18-.36-.87-.01-.44.16-.71.07-.12.07-.35.13-.49.09-.2.47-.7.53-.84.08-.18.05-.48.14-.64.2-.37.17-.01.32-.73.01-.07.51-.95.62-1.17.04-.09.17-.09.18-.16.11-.5-.14-.58-.16-.64s-.09-.82-.08-.86c.05-.17.49-.22.55-.12Z"/>
  <path d="M18.2,32.27c-.32.85-.21,1.52-.47,2.31-.08.23-.28.79-.31.91-.08.32.18,1.02-.4.99,0-.24-.01-.48.05-.72.05-.18.18-.15.2-.29.12-1.04-.08-1.16.3-2.28.05-.16-.02-.35.06-.51.06-.12.25-.11.28-.22.16-.51-.05-1.32.48-1.63-.06.36-.07,1.12-.19,1.43Z"/>
  <path d="M34.53,42.66c.36.83.36,1.82.61,2.73.15.54.11.61.17,1.2.04.35.26.69.16,1.09-.16-.02-.1-.3-.16-.42-.06-.1-.21-.07-.24-.26-.06-.28.09-.55.09-.81,0-.5-.24-.83-.32-1.15-.2-.73,0-.83-.39-1.61-.12-.24-.21-1.1.06-1.23.01.15-.04.31.03.46Z"/>
  <path d="M44.34,9c.12.11-.14.17-.17.27-.15.41-.07.79-.15,1.12-.01.06-.13.04-.16.11-.23.74.29,1.91.24,2.72l-.08.69c-.02-.16.04-.37,0-.51-.02-.08-.2-.08-.23-.19-.13-.38-.15-2.43-.09-2.89.04-.32.29-.64.32-.74.01-.04.06-.82.33-.59Z"/>
  <path d="M59.04,67.32c.03.05.16-.02.13.11-.39-.06-.87.06-1.24.05-.24,0-.5-.1-.74-.13s-.93.12-.92-.2c0-.25.9.02,1.09.03.23.02.49.03.72,0s.7-.24.85-.13c.05.04.05.18.11.26Z"/>
  <path d="M44.18,15.77c-.1-.01-.26.05-.33-.05-.13-.18-.08-1.33-.15-1.67-.01-.07-.14-.02-.16-.17-.04-.26.19-.28.25-.21.12.14-.08.91.28.97.16-.15-.23-.55.12-.48v1.61Z"/>
  <path d="M80.85,6.1c-.03.16-.16.14-.28.16-.47.08-.98.27-1.53.32-.28.03-.57-.01-.84,0,.24-.34.89-.07,1.23-.16.09-.02.06-.21.25-.25.33-.06.81.04,1.17-.08Z"/>
  <path d="M35.82,49.92s.14.02.18.17c.05.19.04.38.03.57l-.23-.31c-.14-.37-.09-.89-.17-1.25-.01-.06-.24-.03-.16-.33.02-.06.14-.05.16-.11.04-.17-.02-.41,0-.59.12.04.15.42.16.52.02.32-.07,1.09.02,1.31Z"/>
  <path d="M44.42,17.22s-.08.47-.08.6c-.01.33.04.73,0,1.05-.01.11-.05.24-.16.12-.06-.07-.09-1.24-.07-1.4.02-.14.11-.57.31-.37Z"/>
  <path d="M54.9,67.1c-.06.06-.07.24-.08.24h-1.29c-.07-.12.12-.24.2-.24h1.17Z"/>
  <path d="M44.42,16.82s-.54-.05-.56-.08c-.05-.08.25-.55.28-.56.35-.12.29.47.28.64Z"/>
  <path d="M28.95,24.56s.11.7.08.72c-.01.01-.31.01-.32,0-.03-.03-.11-.7-.08-.72.01-.01.31-.01.32,0Z"/>
  <path d="M18.39,52.2v.76c-.04.3-.79-.74,0-.76Z"/>
  <path d="M114.93,5.78c.06.22-.13.12-.19.26-.51,1.22-.17,2.14-.32,3.32-.05.39-.36.51-.37,1.07,0,.4.2.54.23.65.14.49-.32.13-.48.22-.04.02-.51.85-.64.69-.18-.57.27-.46.32-.61.04-.12-.07-.29-.04-.44s.19-.14.21-.21c.04-.2.17-1.09.17-1.28,0-.08-.32-.39-.33-.42-.08-.36-.06-.87,0-1.23.11.02.17.15.2.24.05.14-.02.4.12.41.03-.21-.04-.48,0-.67s.1-.31.16-.66c.03-.19.14-1.11.17-1.16.05-.09.7-.24.79-.17ZM114.28,9.07c.04-.07.11-1.06-.23-.95v1.05c.05-.03.22-.08.23-.09Z"/>
  <path d="M112.44,4.25c.12.38-.24.56-.3.7-.06.15-.01.7-.33.5-.13-.08-.08-1-.09-1.2h.73Z"/>
  <path d="M111.7,5.63c.12.18.04.72-.31.63l.08-.73c.05.03.22.08.23.09Z"/>
  <path d="M74.82,14.26c-.06.1,0,.35-.02.5-.09.47-.81.63-.78.19.03-.4.2-.25.35-.38.25-.21.02-.69.13-.88.18-.3.72-.09.53.42-.04.11-.19.11-.21.15Z"/>
  <path d="M74.73,12.85c.06.03.12.01.19.02.06-.02.03-.14.04-.16.02-.04.67.53.06.53-.37,0-.55-.27-.54-.61.2-.06.2.19.25.23Z"/>
  <path d="M90.9,7.09c.22.07.22.62.19.83-.02.15-.14.1-.16.17-.06.23-.01.56-.14.81-.07.13-.18.09-.18.1-.11.17.15.15.16.21.01.05.01.89,0,.96,0,.09-.32.34-.33.81-.01.3.18.47.15.62-.08.44-.62.54-.7.76-.14.44.11,1.56-.05,1.8l-.69.08c-.02-.18.04-.42,0-.59-.01-.06-.14-.05-.16-.11-.08-.29.14-.26.16-.32.1-.37-.15-.37-.16-.39-.05-.21.38-.44.51-.61.1-.13.59-.86.61-.93.07-.31.07-.81.16-1.15-.44-.07-.26.1-.36.24-.07.1-.23.06-.29.13-.08.11-.05.41-.08.43-.04.04-.23-.03-.31.01-.04.03-.04.18-.09.25-.03.05-.13.05-.14.08-.12.26-.06.91-.12,1.21-.04.21-.18.19-.22.28-.04.1-.06.46-.1.49-.34.27-.52-.51-.31-.83.07-.11.22-.13.3-.27.18-.34.02-.81.1-1.09.02-.08.24-.11.29-.29.03-.13-.07-.26-.04-.36s.19-.11.24-.19c.07-.12.09-.3.18-.4.25-.27.63,0,.46-.78-.01-.06-.15-.03-.17-.17-.03-.32.17-.44.18-.65,0-.1-.27-.14-.17-.62.04-.18.38-.2.45-.24.04-.02.05-.12.09-.13.24-.11.43-.23.72-.14Z"/>
  <path d="M88.5,11.42v.48s-.48,0-.48,0c-.13-.13.36-.61.48-.48Z"/>
</svg>