<?xml version="1.0" encoding="UTF-8"?>
<svg id="Layer_1" data-name="Layer 1" xmlns="http://www.w3.org/2000/svg" viewBox="0 0 133.16 178.78">
  <path d="M90.36,142.29c-.76-.05-.75-.93-1.19-1.44-.2-.23-.43-.34-.68-.77-.16-.28.22-.08.38-.21-.16-.19-.15-.83-.28-.94-.01-.01-.19.19-.34.15-.19-.04-.07-.49-.69-.07l-.28-.94c-.46.36-.78.39-1.08.92-.51.92-.46,1.1-1.53,1.69-.62.34-.81.43-1.31.8-.55.4-1.66.78-1.86-.15.2-.15.61-.07.77-.22.19-.17-.05-.41-.01-.55.01-.04.15-.08.21-.16.38-.54.84-.61,1.32-.98.07-.06,0-.19.06-.25.63-.52,1.41-.69,2.03-1.32.11-.11.43-.27.45-.34.02-.05-.14-.94-.17-1.02-.16-.38-.34-.82-.51-1.2-.14-.31-.48-.61-.54-1,.6-.2.46,1,1.07.6l-.67-1.59c-.1.04-.18.06-.25.15-.28.36-.23.58-.31.74-.13.22-.44.07-.07.67-.18.1-.14-.17-.24-.28-.06-.07-.2,0-.25-.06-.07-.1-.4-.87-.42-.96-.02-.14.49-.22.23-.58-.09-.13-.21-.07-.3.04-.14.16.03.27-.13.32-.2-.41-.31-.89-.61-1.26-.21-.25-.4-.11-.54-.32-.16-.25-.1-.58-.22-.84-.16-.35-.51-.76-.71-1.12-.13-.23-.19-.59-.33-.78-.08-.11-.36.02-.52-.18-.29-.34-.43-1.16-.68-1.58-.1-.17-.23-.06-.29-.14-.33-.42-.54-1.01-1.25-.95-.59.05-1.16.55-1.64.62-.12.02-.2-.2-.35-.19-.35.02-.74.55-1.46.45-.03,0-.15-.29-.3-.07-.01.02.13.17-.08.34-.48.38-.56.05-.85.02-.69-.07-1.53-.04-2.2-.21-.28-.07-1.04-.45-.89-.8.12-.27.48-.02.56-.01.59.04.88.17,1.53.06.32-.05.57-.07.8-.1s.52-.17.77-.2c.05.3-.75.17-.47.55.16.04,2.59-1.08,3.2-1.11.12,0,.17.14.29.14.3,0,1-.32,1.19-.54.09-.11-.02-.22,0-.23l1.4-.59c-.23-.15-.68-.26-.71-.57-.01-.11.26-.09.11-.3-.02-.03-.47-.03-.47-.56-.33.09.48,1.34.02,1.16-.2-.07-.7-1.4-.97-1.73-.06-.07-.17-.03-.2-.05-.1-.08-.13-.24-.15-.24-.27-.14-.03.44-.31.37-.24-.06-.27-1.03-1.05-.26l.2-.55c.32-.25.4-.05.71-.07l-.11.28.52.13c-.15-.32-.42-.78-.47-1.13-.01-.08.14-.13.13-.22-.02-.21-.28-.62-.1-.81.11.19.14.46.27.63.05.07.2-.01.25.05.78,1.08,1.36,2.2,2.27,3.11.11.11.29.51.32.52.07.03.63-.29.8-.33l-.6-1.15.32.21c-.1-.16-.35-.97-.42-.99-.05-.02-.28.15-.42.12-.29-.06-.68-1.62-1.02-1.96-.1-.11-.24.02-.35-.16-.29-.5-.5-1.25-.75-1.81-.31-.69-.61-1.58-1.12-2.06-.06-.06-.2-.01-.25-.08-.26-.38-.52-1.06-.74-1.48.12-.11.25.36.38.07.09-.19-.22-.74.09-.92l-.58.3c0,.16.44-.08.32.21,0,.02-.22.14-.26.23-.21-.25-.17-.66-.27-.9-.13-.3-.94-1.57-.76-1.84.15-.22.79.29.71-.24-.19-.15-.7.09-.79.02-.4-.28-.12-.59-.06-.78.17-.49.37-.6-.24-.72.12.19-.11.53-.27.47s-.56-1.19-.7-1.38c-.05-.07-.2.01-.25-.06-.26-.34-.16-.69.21-.47.13.08.22.51.46.1.08-.14-.07-.51-.15-.64-.08-.12-.38.21-.58-.01-.12-.56-.68-1.17-.84-1.63-.06-.2.14-.22.12-.27-.1-.21-.41-.74-.54-.91s-.52-.06-.55-.58l.44-.07c-.13-.7-.43-.18-.57-.23-.05-.02-.3-.82-.52-.95l.3-.13c.13.83.53.2.76.46.43.69.72,1.67,1.11,2.34.1.18.23.01.34.19,1.02,1.78,1.77,4.36,2.79,6.11.1.17.24.05.29.12.15.2.71,1.49.74,1.75,0,.1-.14.14-.13.22.01.12.95,1.28,1.14,1.63.23.42.4,1.13.63,1.46.9,1.23,1.6,3.01,2.5,4.27.15.21.74,1.65.83,1.68.35-.14.26-.42.64-.69.32-.22.63-.51.77-.61.2-.14.78-.2.73-.48-.35-.78-.68-1.6-1.07-2.36-.22-.43-.6-.68-.68-.79-.09-.12-.73-1.31-.7-1.38.46-.34.24.31.62.09.03-.1-.36-.72-.39-.93-.02-.13.24-.1.13-.25-.45.31-.51-.33-.71-.58-.14-.17-.49-.15-.52-.66l.15.64-.3.13-1.48-2.97c-.76-.35-.26-1.12-.8-1.86-.05-.07-.19.05-.29-.12-.24-.41-.36-1.02-.6-1.45.01-.04.64-.02.7,0,.25.08.95,1.85,1.16,2.22.1.17.23.05.29.13.55.75.89,2.01,1.37,2.66.2.27.68.67.94,1.16.9,1.7,1.79,3.37,2.67,5.17l.59.3c-.28-.41.11-.33.32-.57.14-.16.07-.38.15-.45.22-.17,1.07-.57,1.35-.56.25.01.71.43.35.61.27.13.61-.18.53.31l-.99.42c-.24-.1.25-.18.33-.26.02-.02.17-.34.15-.41l-1.85.9c.08.23.73.22.59.57-.06.14-.83-.01-.57.88.1.36,1.38,2.91,1.58,3.19.74,1.01,1.29,2.37,1.95,3.55.1.18.23.01.34.19.55.95.69,2.07,1.45,2.88.39.42.32.4.63.94.52.89.68.15,1.22.02.61-.15.54.96-.43.66-.3.66.03.37.15.49.54.55.88,1.95,1.32,2.56.12.17,1.08,1.02,1.2,1.19,1.34,1.89,2.28,4.19,3.84,5.78.1.1.11.4.3.44.56.13.2-.73.05-1.02.11-.11.27.37.38.07.03-.08-.3-.33.07-.38.31.25.16.48.22.79.07.36.45.55-.07.67.11.44.61.15.68.77l-.48-.03c.22.36.44.97.66,1.29.03.05.71.05.07.46.31.23.33.68.52.93.03.04.59.54.67.59.14.09.35.05.44.15.18.2.23.58.37.83l-.28-.38c-.35,0-.45-.42-.68-.54-.21-.11-.58.14-.8.08-.12-.03-.17-.2-.27-.26-.52-.28-.32-.21-.69-.6-.07-.07-.2,0-.25-.06-.12-.15.05-.66-.25-1.17-.1-.17-.24-.05-.29-.12-.15-.22-.66-1.11-.82-1.41-.25-.46-.42-1.21-.67-1.58-.07-.11-.28.13-.36.02-.22-.33-.29-.88-.63-1.22-.1-.1-.35-.07-.59-.43-.17-.25-.23-.53-.36-.72-.06-.08-.3.08-.33-.23-.01-.1.26-.09.14-.23-.07.04-.16.09-.23.01-.3-.35-.56-1.03-.81-1.37-.07-.1-.29.04-.44-.19-.26-.39-.47-1.13-.77-1.54-.06-.08-.19.05-.29-.13-.26-.44-1.1-2.81-1.49-2.94-.15-.05-.93.24-1.13.34.06.23.52-.25.5.08-.01.27-.37.38-.51.52-.07.07-.01.19-.08.25-.34.28-.87.49-1.27.66-.06.16,1.01,2.05,1.23,2.33,1.32,1.69,2.4,3.67,3.71,5.49.05.07.2-.02.25.05.85,1.18,1.59,2.6,2.48,3.66s1.13,1.74,1.84,2.94c.2.34.42.23.47.3.62.88,1,1.92,1.83,2.76.1.1.26.02.31.1.27.39.04.69.77.42.27.53-1.04.9-1.17.83-.06-.03-.07-.24-.14-.3-.49-.42-.95-1.07-1.49-1.43-.15-.1-.76-.3-.88-.39-.06-.05-.8-1.24-.81-1.32-.04-.25.49-.15.18-.68-.11-.18-.24-.05-.29-.13-.18-.24-.3-.65-.61-.8-.4-.2-.28.25-.33.31-.1.13-.54.22-.67.43-.03.01-.29-.51-.48-.15-.02.04.37.64.41.69.07.09.22-.02.23-.01.04.02-.08.73-.42.12-.31-.56-.17-.51-.62-.95-.13-.12-.17-.37-.38-.46-.23-.09-.54.1-.76.08-.15-.01-.21-.2-.53-.17-.38.03-.64.26-.94.32-.04,0-.67-.21-.87-.17-.07-.12,0-.63.06-.72.25-.35.4.03.52.05s.8-.19,1.09-.19c.26,0,.99.12,1.3.14.18.01.48-.08.64-.03.33.1.47.9.71.95.17.04.58-.23.56-.38s-.36-.93-.45-1.06c-.05-.07-.2.01-.36-.15-.29-.3-.42-.78-.63-1.07-.04-.05-.88-.44-.91-.49-.34-.44-.67-1.67-1.11-2.06-.17-.15-.75-.5-.99-.71-.74-.67-.91-.84-1.36-1.8.16.01.3.02.44-.07l-.52-.95c-.57.34-.09.67.08,1.02ZM84.75,122.59c-.41.2-.98.34-1.31.67s-.14.24-.66.64-.28.83.02,1.34c.1.17.24.05.29.12.8,1.13,1.71,3.32,2.41,4.59.66,1.21,1.37,3.02,2.13,3.91.42.5.66,1.84,1.48,1.45.36-.17.31-.74.47-.91.16-.18,1.23-.67,1.21-.82-.06-.54-.42-.48-.46-.52-.31-.39,0-.5-.02-.58-.06-.46-.58-.45-.81-.82-.24-.4-.1-.86-.5-1.17-.83-.62-.71-1.18-1.09-2.01-.17-.37-.59-.87-.74-1.23-.2-.48-.24-1.16-.47-1.68-.08-.19-.68-1.2-.78-1.3-.08-.08-.42.12-.53-.15l-.65-1.54ZM81.41,124.71c-.34-.06-.31.35-.2.59.33.75,1.03,1.3,1.42,2,.26.47.53,1.08.67,1.59.39.16.3-.58.24-.81-.2-.75-1.19-2.08-1.61-2.7-.08-.11-.47-.66-.51-.67ZM81.55,127.81l-.78-1.84s-.4-.51-.45-.52c-.2-.05-.6.24-.82.3,0,.31.27.09.31.17.1.22.09.55.28.92.23.47.46.48.63.68.38.45.84,1.23,1.15,1.66.48.67.82,1.6,1.22,2.33.62-.4.42.17.71.56.05.07.2-.01.25.05.13.18.64,1.29.8,1.34.04.01.21-.1.3-.12.03-.07-.62-1.28-.7-1.39-.07-.09-.19.05-.25-.03-.15-.21.13-.17.11-.3-.11-.8-.63-.52-.8-.84-.08-.15.03-.38-.03-.57-.03-.11-.5-1.22-.54-1.28-.2-.3-.49-.14-.58-.25-.09-.12-.37-.81-.42-.98-.05-.19.13-.21.12-.3-.04-.21-.2-.42-.26-.63-.49.14.26.87-.26,1.05ZM84.55,130.39c-.18-.17-.24-.7-.55-.67-.19.69.11.35.19.46.13.17.13.59.39.65.61-.35.03-.38-.03-.43ZM85.59,132.09l-.3.13.42,1c.47-.21-.03-.77-.12-1.12ZM87.11,134.86l-.25-.51-.6-.66c.12.31.24.62.42.91.09.15.21.44.43.26ZM85.03,139.96c-.2.04-.4.02-.58.13-.06.04-.56.47-.39.63.48.01.55-.45.58-.48.13-.1.48-.09.39-.28Z"/>
  <path d="M120.84,131.08c.23.24.94.25,1.12.7-.25.16-.21-.08-.49-.1-.23-.01-.4.07-.6.08-.14,0-.24-.27-.69.07-.05.04,0,.4-.38.39.21.56.65.11,1.08.34.11.06.94.67.99.75.39.6,1.01,2.33.17,2.73-.41.19-.53-.06-.61-.05-.49.06-.35.68-.45.95-.08.22-.4.71-.44.91s.07.61.03.69c-.06.14-.45.26-.55.38-.09.1.03.24,0,.35-.12.4-.78.69-.85.89-.11.28.33,1.32.46,1.63-.57.12-.8-.72-.84-1.17l-.8.33-.03-.34-1.29.55.34-.03.12.3c-.64.07-1.22.49-1.79.65-.16.04-1.01-.11-1.22-.16-.14-.03-.31.05-.45-.02-.26-.13-.25-.47-.38-.65-.06-.09-.63,0-.74-.63-.02-.09.2-.11.12-.3-.05-.13-.42-.67-.52-.76s-.82-.34-.92-.44c-.21-.2-.47-.83-.69-.99-.05-.03-.79-.32-.82-.36-.15-.21-.64-1.39-.72-1.68-.02-.08-.16-1.41-.16-1.53,0-.07.25-1,.23-1.09-.16-.94-.48-.62-.32-1.87.07-.53.03-1.08.05-1.6,0-.14.24-1.04.23-1.09-.03-.16-.39-1.04-.48-1.16-.06-.08-.25-.02-.38-.12-.06-.05-.54-.45-.57-.48-.08-.08-.61-.78-.59-.83.56-.23.54.2.73.63.29,0,.12-.23.15-.26.37-.49.48.74.99.6.23-.46.15-.77.13-1.25,0-.1.13-.16.12-.23-.15-.87-.5-.32-.62-.36-.05-.02-.26-.7-.35-.86-.1-.17-.24-.05-.29-.12-.12-.17-.16-.44-.27-.63-.22.07.1.36.07.44-.01.04-.7.2-.76.2-.15,0-.23-.21-.35-.19-.1.02-.25.26-.31.23-.04-.02-.1-.32-.18-.42-.22-.27-.93.1-1.05.29-.06.1.03.33-.03.48-.15.39-1.74,1.03-2.17.62-.65-.05-2.06-.22-2.1-1.04-.01-.23.28-.26.3-.33s-.3-.66-.27-.96c.04-.39.86-.49.2-1.36-.14-.18-.55-.1-.61-.44.05-.15,1.41-.65,1.63-.68.08-.01.13.15.22.14.31-.05.63-.25,1.03-.19.53.07,1.31.77,1.93.58.27-.08.36-.4.68-.47s.54.16.83.19c.38.05.72-.06,1.07-.07.08,0,1.32.8,1.26.96-.04.09-.5,0-.13.52.29-.12.5-.54.76-.14.13.2.38.89.51,1.19.08.18.05.41.12.55.1.21.49.31.56.79.02.11-.44.33-.36.79.05.3.3.33.47.59.05.07.26.45.09.5-.09-.45-.55-.35-.71-.61-.1-.17-.37-.92-.38-1.11-.02-.2.14-.21.09-.38-.07-.24-.3-.79-.43-1.01-.09-.16-.43-.11-.6-.36-.58-.82-.6-.71-1.29-1.34-.14-.13-.27-.54-.49-.59-.05-.01-.89.28-1.06.28.16.67.28.36.52.44.54.18,1.22.53,1.41,1.09-1.07.36.49.57.66.75.32.34.49,1.02.82,1.39.13.15.25.07.29.13.25.31-.03.36-.02.56.05.58.14.58.03,1.12-.06.27.25.11.3.18.7.89-.07.84-.09.9-.06.17.39.31.45.54.06.24-.19.51-.19.61.02.27.21.68.18,1.01-.23.08-.33-.3-.37-.31-.12-.05-.29.41-.29.44.08.4.46.32.59.55.21.37-.09.53-.08.64.01.14.14.27.13.45-.04.49-.66-.31-.71-.29-.25.1-.18.43-.02.63.05.07.19,0,.25.07.23.28.77,1.29.79,1.61,0,.15-.19.22-.18.36.01.24.28.78.21,1.04-.03.12-.24.13-.26.19-.06.16.37.56-.31.7l.5.61.31-.37c.13.42.16.75.4,1.15.03.06.93.88.99.92.13.09.57.16.72.25.73.43,1.14.81,2.04.98.81.15,1.51.03,2.25-.37-.1-.59-.44-.3-.7-.41-.22-.09-.26-.35-.42-.49-.54-.49-.51-.64-.94-1.19-.06-.07-.19.03-.29-.14-.31-.5.01-.51,0-.59-.05-.25-.21-.03-.29-.13s-.22-.46-.26-.59c-.05-.2.15-.17.09-.38-.08-.28-.4-1.05-.55-1.31-.1-.17-.23-.07-.29-.14-.22-.24-.69-1.13-.73-1.41-.02-.12.24-.1.27-.25.1-.46-.33-1.19-.62-1.54-.19-.22-.45-.1-.49-.51l.19.74-.45-.24c-.06-.33-.98-1.71-.91-1.88.02-.05.66-.25.8-.34-.26-.69-1.29-1.55-.22-1.9.08.04.36,1.32.4,1.52s-.08.41.02.59c.03.05.3-.1.33.21.01.1-.27.18-.18.41.2.53.61.45.74.64.1.15.77,1.49.83,1.66.06.2-.18.19-.1.38.12.28.5.54.58.81.06.19-.08.37.04.69.22.54,1.02,2.13,1.34,2.59.03.04.42-.03.36.37,0,.05-.29.35-.22.53.15.33.38-.33.43-.36.17.27.36.75.54.98.08.1.87.53.95.6.1.09.31.55.37.56.47.13.91-1.52.7-1.93l.66.06c.07-.47.33-.79.02-1.21-.05-.06-.18,0-.25-.08-.21-.23-.39-.54-.57-.75-.07-.08-.19.03-.29-.14-.29-.47,0-.53-.01-.61-.03-.19-.3-.97-.4-1.22-.26-.7-.59-1.36-.96-2,.12.07.65.21.68.26.12.15.06.37.13.51.13.26.55,1.09.71,1.2.09.07.26,0,.39.12.19.2.09.54.5.09.07-.08.3-.66.09-.55l-.3.25-.46-1.1,2.09-.88ZM102.62,123.32c-.21,0-.42.05-.62.1.16.35.42,1.34.89.92.08-.07.02-.22.08-.31.13-.21.54-.37.08-.62-.02-.01-.41-.08-.43-.08ZM106.74,122.5c-.62-.33-.84.18-.6.75.14.31.52.98.8.53.04-.07-.08-.34-.06-.46.04-.25.44-.5-.15-.82ZM110.2,134.51c-.5.22-.3.46-.1.87l.3-.13-.19-.74ZM113.66,140.42c-.15-.08-.28-.52-.56-.56-.26.03-.03.4.04.49.04.06,1.1.71,1.19.75.34.15.7-.22.98.05l2.27-.83-.13-.3c-.59.27-1.15.52-1.8.52-.14,0-.9-.27-1-.27-.22,0-.8.25-.99.15Z"/>
  <path d="M29.8,42.95c-.38.31.19.67.34.88.55.73,1.1,1.58,1.55,2.48s.46,1.42,1.13,2.14c.89.97,1.62,3.75,2.33,4.98.1.17.24.05.29.12.85,1.17,1.6,2.96,2.48,4.19.05.07.19-.05.29.12.67,1.15.94,2.79,1.76,3.9.19-.05.19-.43.22-.45.21-.13.15.07.31.11.5.11.42-.07.79-.32.12-.08.52-.2.54-.23.02-.05-.3-.64-.34-.8-.41.05.04.51-.19.66-.18-.4-.17-.7-.6-.85l-1.3-2.86c-.07-.11-.28.13-.36.02-.22-.33-.33-.97-.56-1.34.38-.3.45.23.71.55.69.84,1.2,2.08,1.95,2.96.37.44.54,1.15.9,1.6.15.18.55-.13.7-.01.06.05.33.46.32.49-.12.29-.43-.18-.58.01.07.24.26.5.31.73.02.1-.26.14-.07.4.03.03.2-.04.25.03.09.13.1.32.2.46.02.03.56.25.58.28.43.62.77,1.73,1.24,2.36.05.07.2,0,.25.07.59.87,1.26,2.12,1.87,2.89.15.19.48,0,.56.61.01.09-.32.2-.09.34.01,0,.15-.1.22-.01.31.38.59,1.18.9,1.57.53.67,1.19,1.69,1.7,2.39.13.17.65,1.06.62,1.18-.56-.18-.29.71-.15.77.29.12.17-.44.41-.41.11.19.14.46.27.63.05.07.2-.01.25.05.4.54.76,1.76,1.28,2.47.59.8,1,1.87,1.62,2.71,1.03,1.42,1.75,3.34,2.9,4.68.35.41.32.4.63.9.43.7,1.05,1.76,1.94,1.04.13-.66.31-.24.55-.25.66-.04,1.23-.47,1.77-.52.1-.01.11.16.3.11.14-.04.46-.17.58-.26.06-.04,0-.16.07-.25.07-.08.28-.09.33-.26.04-.12-.13-.77-.2-.92-.14-.3-.36-.35-.51-.6-.28-.47-.42-1.16-.69-1.65l-.23.57-.13-.8c-.48-.48-.6-1.64-.95-2.08-.07-.08-.34.17-.53-.14-.16-.26.24-.16.22-.33-.02-.11-.26-.67-.34-.8-.1-.18-.23-.01-.34-.19-.38-.66-.76-1.5-1.16-2.22-.14-.25-.3-1.07-.59-.6-.03.05.14.19-.04.22-.29-.52-.44-1.25-.73-1.75-.08-.14-.83-.28-.22-.78.28.23.32.65.49.89.25.35.43.6.72,1.1.19.32.7.64.73.68.66.93,1.09,2.41,1.66,3.39.1.18.23.01.34.19.72,1.24,1.27,2.69,2.26,3.76.12.13.24.02.34.19.07.12.22.47.24.59.02.11-.17.1-.15.2.05.25.21.03.29.13s.55,1.25.54,1.32c-.03.19-.86.56-1.03.68-.1.07.05.19-.03.25-.21.15-.17-.13-.3-.11s-.67.26-.77.34c-.12.11.02.61-.27.37-.08-.07-.09-.26-.3-.25-.13,0-1.24.38-1.43.46-.12.05-.78.42-.79.47-.03.07.18.37.2.5-.57.24-.74-.34-1.29.08-.07.05.01.2-.05.25-.31.24-.39-.03-.49-.02-.31.03-1.43.39-1.52.63-.11.29.42.01.37.31-.75.16-1.52.24-2.08.84-.13.14.07.26-.27.4-.04.02-.59.01-.62,0-.06-.03-.5-1.06-.55-1.23-.06-.2.15-.18.09-.38-.08-.3-.44-1.14-.59-1.41-.1-.17-.24-.05-.29-.12-.08-.1-.55-1.17-.52-1.23,0-.02.38-.17.4-.16.06.03.07.43.4.38.29.34,1.18,2.82,1.33,2.88.32.12.47-.41.49-.43.39-.36.95-.47,1.35-.82.09-.08-.06-.29.24-.33.08,0,.25.31.68.18.1-.03.97-.48,1-.53.02-.05-.26-.55-.29-.7.34-.28.37.57.49.61l.3-.13c-.16-.78-.5-1.34-.96-1.97-.37-.5-1.08-1.29-1.45-1.79-.23-.31-.67-2.01-.99-1.94-.07.02-.25.26-.32.23s-.47-1.12-.57-1.34c-.17-.37-.3-.73-.46-1.1-.34-.78-.61-1.6-1.09-2.3-.27-.01-.19.77-.43.65-.25-.13.07-.54-.11-.83-.12-.2-.51-.15-.58-.25-.15-.22-.18-.55-.33-.75-.05-.07-.2.01-.25-.05-.47-.64-.89-2.23-1.35-2.93-.15-.23-.36-.09-.44-.18-.25-.31.04-.41.03-.48-.1-.63-.42-.53-.49-.62-.38-.48-1.2-1.32-1.43-1.73-.15-.27-.39-.79-.47-1.09-.05-.19-.1-.15.14-.23-.01.48.45.55.48.58.16.22.17.88.51.64-.3-.46-.49-1-.76-1.48-.45-.82-.54-.35-1.1-.54-.41-.14-.4-.76-.62-1.07-.05-.07-.19.01-.25-.06-.61-.77-.88-2.03-1.36-2.91-.11-.2-.85-.96-1.07-1.18-.1-.1-.22.02-.23,0l-.82-1.94c-.12-.29-1.73.58-1.7.72l1.48,3.25c1.77,1.92,2.34,5.27,3.63,7.5.1.18.23.01.34.19.8,1.38,1.37,3.65,2.29,4.89.76,1.02,1.09,1.91,1.74,3.05.1.18.23.01.34.19.12.21.88,1.94.86,2.05-.04.14-.49-.08-.51-.1-.3-.44-.27-1.1-.48-1.42-.15-.23-.37-.09-.44-.19-.2-.27-.35-.93-.53-1.28-.52-.98-1.15-2.05-1.7-2.91s-1.47-1.56-1.36-2.63c.06-.54-.29-.27-.4-.41-.19-.24-.25-.79-.45-1.06-.05-.07-.19.02-.25-.06-.55-.71-1.66-2.81-1.82-3.76-.02-.09.17-.1.12-.3-.1-.34-.39-1.2-.54-1.54-.32-.76-.96-1.11-1.2-1.97-.05-.19.13-.21.12-.3-.14-.81-.54-.77-.82-1.19-.32-.48-.54-1.06-.81-1.56-.49.16-.99.52-1.18,1-.05.13.04.32,0,.41-.11.21-.81.49-1,.69-.32.35-.1.29-.73.78-.05.04-.48.86-.59.94-.33.24-1.41.44-1.45.51-.05.08.06.49-.12.67-.22.22-.93.43-.94.48-.02.05.31.54.12.77-.44.55-.71-.2-.94-.08-.42.19-.95,1.42-.94.41-.18.06-.35.18-.53.22-.08.02-.23-.28-.45-.04l.17.4c.67-.37.67.21.16.6-.58.45-.28-.41-.46-.48-.04-.01-.4.22-.56.06.56-.16.25-.53.33-.65.05-.08.24-.08.29-.15.1-.12-.05-.32.33-.37.09-.01.14.27.39.07.06-.04-.02-.34.19-.51.19-.15.6-.08.86-.31.12-.1.03-.31.15-.44.28-.29.84-.37,1.21-.66.23-.18.22-.49.71-.78.53-.31.44-.01.56-.03.6-.1.59-.65.77-.83.21-.21,1.09-.8,1.21-.99.06-.1-.05-.29-.02-.38s.65-.48.8-.61c.32-.27.4-.31.81-.59.3-.2.35-.54.79-.54-.22-.96-.5-.37-.65-.43-.22-.08-1.36-3.96-1.75-4.43v.58c-.25-.46-.38-1.11-.63-1.55-.1-.17-.24-.05-.29-.12-.74-1.04-1.39-2.59-2.04-3.68-.15-.25-.43-.48-.53-.73-.22-.56.29-.82-.1-1.34-.06-.08-.23.02-.36-.16-.25-.33-.5-1.11-.79-1.47-.07-.08-.19.04-.29-.13-.26-.44-.37-1-.7-1.41l.38-.22c-.49-.25-.7-.24-.84-.88l.34-.03c-.14-.26-.21-.6-.35-.86-.06-.1-.52-.26-.69-.53-.15-.24-.19-.57-.33-.77-.05-.07-.2.01-.25-.05-.11-.15-.77-1.25-.83-1.39-.25-.62.15-1.05-.23-1.67-.1-.17-.23-.05-.29-.13-.66-.92-1.09-1.98-1.52-3.03l-.27.47c-.12-.47-.29-.95-.38-1.43-.03-.18.13-.22.11-.3-.06-.34-.32-1.06-.73-.9l.03.34c-.04-.23-.28-.1-.28-.11l-.82-1.94c-.08-.19-.54-.19-.57-.24-.22-.27.1-.33.15-.51.11-.44-.35-.82-.61-1.12-.07-.08-.2.02-.29-.14-.1-.17-.38-.81-.41-.99-.02-.09.17-.1.12-.3-.06-.22-.27-.7-.39-.9-.09-.15-.29-.17-.37-.32-.01-.03.3-.24.06-.43-.51.1-.15.37-.05.72l-.3.13-.8-1.89s.33-.12.4-.17l.21.5.3-.13c-.4-.55-.53-1.35-.91-1.89-.08-.11-.24.1-.27-.08.47-.46.34.1.62.4.12.13.25.02.34.19.14.24.66,1.29.32,1.34l.04.1c.33-.19.4.48.56.76,1.05,1.94,2.07,3.7,3.08,5.63.26.49.4,1.15.67,1.6.1.18.23.01.34.19.98,1.69,2.12,4.66,2.99,6.55.42-.34.34.21.48.26.05.02.21-.12.28-.09.06.02.27.43.37.53-.26.17-.4-.13-.59-.19-.08-.02-.23.09-.27.07-.07-.03-.2-.45-.26-.58ZM43.92,70.76c-.27-.25-.42-1.11-.65-1.45l.24,1.14.96,1.99c.18-.18-.17-.55-.21-.77-.07-.4.31-.3-.35-.9Z"/>
  <path d="M76.32,159.94l.17-.42c-.32.15-.52.38-.9.38.39.6-.39.85-.34.03-.32.19-.88.45-1.23.51-.08.01-.14-.15-.22-.14-.27.05-.58.29-.88.36-.18.04-.36-.06-.59,0-.62.19-.56.69-.65.75-.17.12-1.26.58-1.45.61-.09.02-.15-.15-.29-.14-.41,0-1.36.16-1.69.09-.05,0-.74-.31-.77-.34-.29-.26-.48-.88-.38-1.25.07-.28.38-.4.46-.6.07-.18-.03-.5,0-.59.09-.22.98-.6,1.2-.78.08-.07-.1-.26.34-.38.19-.05.21.11.31.11.28-.01,1.45-.05,1.66.05.04.02.67.42.69.46.2.29.23.76.57,1.01.03.02.71.22.75.23.66.02,1.59-.58,2.14-.66.11-.02.1.17.2.15.25-.05.03-.21.13-.29.14-.1,1.06-.51,1.09-.58,0-.02-.15-.38-.17-.39-.03-.01-.49.18-.7.19-.15,0-1.15-.16-1.32-.21-.4-.11-.47-.1-.86-.12-.17-.01-.26-.2-.36-.22-.16-.04-.41.1-.64.05-.43-.08-2.34-1.17-2.71-1.4-.87-.54-1.38-1.46-2.12-2.16-.65-.61-.69-1.44-1.1-2.15-.11-.19-.56-.24-.77-.96-.18-.63.38-.41.4-.46.04-.12-1.21-1.62-1.05-2.37.03-.14.06-.18.2-.21.08.04.08.53.32.34.02-.01.17-.41.17-.43.04-.24-.18-.28-.24-.42-.03-.07.19-.09.13-.29-.07-.24-.39-.57-.35-.77.02-.13.18-.22.22-.35.03-.1.16-.63.17-.67.03-.23-.11-.45-.09-.57s.44-.37.45-.48c.01-.1-.11-.23-.09-.36.05-.36.37-.83.41-1.07.03-.2-.13-.47,0-.75.15-.32.66-.38.33-.8-.05-.07-.19,0-.25-.07-.29-.31-.54-1.02-.62-1.45-.02-.09.14-.14.15-.29.02-.35.07-.56.09-.81.01-.18-.1-.7-.07-.79.05-.12.35-.21.45-.33.54-.67.92-1.27,1.53-1.96.04-.04.17-.71.37-.42.13.19-.36.34-.05.43.1.03.38-.26.51-.31.51-.19,1.14-.13,1.56.24.39.35.82.93,1.26,1.27.12.1.31.05.45.17.06.05.4,1.22.42,1.35.02.12-.2.19-.19.35.02.27.38.61-.05.77-.09-.31-1-2.18-1.17-2.2-.6-.09.02.94,0,1.15-.01.11-.47.55-.58.51,0-.28-.34-.55-.47-.27-.08.18.77.56.72.87-.54.23-1.58.57-1.68,1.22-.02.14.1.3.05.48s-.45.33-.06.55c.23-.24,1.24-.22,1.05-.56-.16-.27-.52-.02-.59-.16-.05-.09,0-.38.23-.4.21-.01.62.44.66.43.39-.04.27-.33.33-.38.55-.43.73.31.66.41-.08.11-1.71.94-1.94,1.03-.4.15-1.88-.09-2.04.32-.01.04.18.46.04.76-.1.22-.8.93-.82.99-.02.08.1.23.09.33-.02.19-.16.24-.17.36-.02.16.13.44.09.55s-.39.24-.41.33c-.02.1.14.28.16.42.01.09-.14.13-.13.22.04.31.4,1.14.41,1.32.02.21-.26.22-.29.39-.04.22.42,1.4.56,1.59.02.02.26.19.41.34.63.62,2.78,2.19,3.73,2.5.09.03.25-.06.3-.03.1.05.12.35.3.38.14.03.31-.14.46-.07.42.22.07.36.06.39,0,.04.47.62.53.67.09.08.98.57,1.03.61.12.14.13.39.29.51.04.03.77.13.98.23.16.08.99.56,1.14.67.31.23.33.66.71.37-.04-.49-.45-.3-.58-.52-.16-.28.09-.31.07-.4-.03-.18-.32-.48-.12-.57.17.2.3.74.59.57l.04.1c-.51.31.17.44.2.47.24.33.31,1.05.61,1.31.22.01,1.17.42,1.25.41.29-.04.75-.33,1.11-.32.24,0,1.05.19,1.32.24.15.03.57-.04.63.02.07.08.17.33-.05.31-.11-.01-.19-.17-.29-.19-.43-.1-1.2.42-1.66.52-.21.04-1.53-.02-1.82-.01-.8.02-.42.2-.48.39-.03.1-.15.18-.2.3s.03.29.01.29l-1.4.59ZM67.59,137.57c-.63.17-.47.2-.62.62,0,.03-.43.58,0,.47.4-.11.24,0,.43.41.45-.11.21-.2.18-.54v-.95ZM67.7,140.56c-.05,0-.61-.96-.71-.39-.05.3.53,1.11.83,1.06.16-.03.3-.16.46-.19.03,0,.51.32.59.1.12-.32-.57-.34-.6-.36-.11-.08-.13-.35-.18-.37-.05-.02-.28.17-.39.15ZM67.57,151.43c-.24.24-.48.26-.8.34.06.7.66.17.84.31.27.21.54,1.01.77,1.27.08.09.24-.02.43.2.26.29.37.76.56,1.03.04.05.95.65,1.03.75.24.26.36.6.49.92.54-.43.29-.13.59.02.42.22.69.36,1.1.59.58.33,1.37.05,1.93.33.26.13.3.49.6.57.23-.04.07-.35.19-.43.27-.2.75-.09.39-.55-.06-.07-.19,0-.25-.05-.6-.48-.56-.37-1.11-.61-.91-.39-.69-.54-1.28-1.07-.34-.31-1.37-.46-1.49-.55-.19-.13-.29-.54-.42-.71-.04-.05-.8-.49-.94-.61-.16-.13-.41-.54-.52-.59-.05-.03-1,.06-1.14-.04-.09-.06-.16-.38-.32-.53-.21-.19-.58,0-.63-.58ZM69.99,159.28c-.1-.05-.21-.15-.31-.15-.65.05-.32.26-.31.49,0,.1-.13.15-.12.23.06.5.19,1.31.83,1.03.36-.16.08-.4.06-.76-.03-.48.42-.55-.16-.84Z"/>
  <path d="M109.13,162.31s.32-.24.38.07l.1-.04c-.2-.34.49-.39.76-.56.68-.41,2.15-1.6,2.68-2.21,1.39-1.57,2.53-3.49,3.77-5.24.59-.83,1.72-2.09,2.08-2.99.06-.16-.04-.43.01-.59.1-.33.57-1.25.52-1.56-.04-.23-.32-.51-.06-.71l.33.21-.56-1.88c.09-.02.27-.14.3-.12.06.02.27.98.36,1.14.58-.17.24-.81.29-1.04.05-.2.65-.71.77-.89.38-.58.12-1.27.45-1.84.52-.91.49-1.35.83-2.26.13-.34.3-.74.58-.96.4.57,0,.56-.11.78-.02.04-.09.6-.17.88-.4,1.28-.77,2.21-1.06,3.52-.11.49-.73,1.43-.79,1.97-.02.18.17.39.12.67-.1.61-.81,1.61-.87,2-.03.2.13.47,0,.75-.09.2-.63.75-.72.99-.11.28.26.44-.45.6l.31.46c-.56.11-.27.27-.34.48-.11.34-.4.74-.58,1.05-.06.1-.23.12-.25.14-.19.34.57-.07.46.27-.08.26-.68.49-.91.62.06.43.39-.11.52.13-.5.27-.62,1.24-.88,1.62-.11.17-.38.29-.49.48-.11.18-.25.89-.36,1.03-.84,1.12-2.47,3.17-3.41,4.07-.48.46-1.57,1.11-1.98,1.55-.1.11-.02.31-.12.39-.11.09-.33.03-.49.12-.3.17-.45.62-.48.65-.43.3-1.07.59-1.47.86-.06.04-.25.8-.29.83-.46.34-1.48.55-1.96,1.07-.71.78-1.38,1.26-2.27,1.89-.07.05.01.2-.05.25-.3.22-1.18.65-1.29.08.28-.22.73-.2.99-.31.11-.05,1.58-1.19,1.65-1.27.51-.63.51-.48,1.13-.95.83-.64,1.72-1.54,2.53-2.22,2.16-1.82,4.76-3.87,6.35-6.22.11-.16.33-.77.4-.86.14-.18.62-.34.65-.42.03-.06-.09-.22-.02-.38.68-1.47,1.49-2.78,2.1-4.39l.11-.95c-.36-.11-.59,1.04-.71,1.2-.52.69-1.01,1.45-1.55,2.14-.13.16-.52.36-.56.47-.05.11.09.5-.05.7-.12.17-.4.26-.53.42-1.19,1.35-1.82,2.23-3.36,3.33-.07.05.02.2-.05.25-.3.22-1.9.93-1.98,1.06-.09.15.05.68,0,.8-.09.21-.64.26-.49.71l.34-.03c-.3.6-.78.55-1.37.81s-1.84.93-2.47,1.04c-.08.01-.13-.13-.23-.13-.26.02-.55.2-.83.04-.06-.55.69-.1.82-.28-.01-.47-.28-.67-.62-.91-.18.02.02.2-.06.26-.34.28-.28-.2-.44-.18-.4.05-1.04.39-1.43.5-.1.03-.72-.02-1.13.11-.81.25-1.7.56-2.57.49-.14-.01-.22-.19-.36-.18-.38.03-.88.16-1.34.2-.63.06-1.85.47-2.35.33-.09-.02-.17-.11-.21-.2l-.1.04c.17.56-.43.2-.47.21-1.24.08-2.4.18-3.59.11-1.02-.06-1.85-.06-2.84-.19-.15-.02-.34.15-.38.13-.05-.02-.1-.36-.17-.39-.03-.01-.46.16-.68.14-.05,0-.63-.38-.56-.03.05.23.5-.02.35.26-.17.33-.91-.02-1.04-.02-.6-.02-1.21.23-1.87.17-.15-.01-.23-.17-.36-.18-.29-.02-.76.22-1.03.2-.2-.02-.26-.29-.35-.31-.17-.03-.75.36-1.02.41-.09.02-.15-.14-.22-.14-1-.01-2.01.05-2.94-.13-.28-.05-.57-.11-.85-.16-.12-.17.17-.11.14-.23-.02-.06-.28.05-.31-.16l-.1.04c.17.56-.42.2-.47.21-.77.04-1.34-.08-2.03-.08-.27,0-.74.18-.94.16-.16-.02-.34-.4-.54-.44-.31-.07-.8.12-1.28-.21-.14-.1-.52-.82-.7-.4-.03.08.39.41-.28.39-.58-.02-.89-.62-1.45-.7-.22-.03-.42.1-.57.08-.11-.02-.69-.37-.86-.43s-.54,0-.79-.17c-.4-.28-.63-.96-.74-1.04-.06-.05-1-.07-1.11.1-.28-.39.51-.22.56-.35.2-.56-1.06-.02-1.24-.14-.1-.06-.23-.49-.2-.53.16-.31.68.13.77-.1.16-.41-.58-.23-.65-.23-.03,0-.29-.43-.26.15l-.43-.05c.13.2-.01.45.03.64.04.16.84.39.89.46.06.08.02.8.31,1.25.25.4.74.4.92.8.22.5-.11.51-.1.63.04.38.55.05.58.56,0,.03-.19.57-.33.56,0-.47-.43-.54-.48-.59-.29-.36-.8-.96-.99-1.22-.41-.56-.74-1.83-1.24-2.36-.11-.12-.66-.19-.66-.75.12-.02.38.29.48.03.08-.2-.64-.77-.84-.88-.12-.07-.32,0-.4-.09-.21-.29-.39-.9-.72-1.17-.17-.13-1.24-.42-1.44-.63-.29-.31-.46-.94-.69-1.3-.12-.19-.66-.3-.75-.75-.12-.6.56.02.6.04.25.07.14-.2.14-.21.2-.4.27.21.4.39.16.21.74.7.78.76.08.11.13.39.19.42.03.02.55-.17.69-.17-.09-.83-.48-1.5-.87-2.22.43-.1.35.18.48.29.09.08.21.01.25.07.13.17.27.78.36.82.06.02.26-.16.31-.07.36.55-.37.35-.05.73.02.03.2-.04.25.03.46.63.75,1.99,1.37,2.66.1.11.69.22.83.3.9.54,1.6,1.03,2.56,1.55,2.11,1.14,4.41,2,6.72,2.48.84.17,1.64.17,2.49.27,1.66.19,3.33.51,5.01.5,1.12,0,2.27-.22,3.36-.22.1,0,.9.27,1,.26.34,0,.73-.26,1.01-.28.15-.01.22.17.36.18.62.03,1.58-.3,2.23-.27.22.01.32.24.48.25.18,0,.52-.04.78-.05.2,0,.85-.25.56.22-.07.11-.33.07-.22.23.46-.18.84-.49,1.36-.45.3.02.96.15,1.3.15,2.69-.01,5.33-.58,8.05-.8.19-.02.55.11.99.03.98-.18,2.31-.55,3.33-.99.28-.12.87-.35.48-.59-.05-.03-.2.14-.22-.04.2-.21.67-.42.7,0,0,.07-.31.13-.1.33.21-.06.42-.23.63-.26.09-.02.1.17.3.12.16-.04.55-.21.68-.3.06-.04,0-.18.07-.25.1-.1.43-.23.45-.34.02-.1-.27-1.07-.29-1.3,0-.1.13-.14.12-.3-.1-1.17-.37-2.39-1-3.47-.1-.17-.24-.05-.29-.12-.45-.61-.75-1.71-.78-2.38,0-.14-.21-.55-.13-.66.04-.06.34-.18.38-.17.13.04.89,1.58.8,1.89.1-.24.68.18.69.24,0,.09-.12.09-.13.16-.02.11.07.22.02.31-.09.16-.49.29-.5.32-.11.29.35.33.53.13-.08.57.48.63.52.68.08.12.3.63.33.76.02.13-.24.1-.13.25.25-.09.75-.45.9-.08.07.17-.42.33-.43.36-.05.13.73,1.15.72,1.45l-.54.11c.12.19.52,1.37.59,1.4ZM106.8,163.76c-.14-.03-1.31.62-1.59.67.38.46,1.51.6,1.83.06.07-.11-.17-.47.29-.6-.07-.21-.27.09-.43.04-.06-.02-.08-.16-.09-.17ZM108,163.25l-.3.13.29.7.3-.13-.29-.7Z"/>
  <path d="M54.73,119.87c-.06.02-.11.09-.19.06-.47-.38-.74-.83-1.06-1.35s-.13-.37-.54-.73c-.38-.32-.46-1.05-.81-1.36-.11-.1-.29-.02-.38-.12-.23-.26-.44-.95-.65-1.21-.06-.07-1.02-.47-1.04-.52l-.63-1.49s-.19-.2-.21-.21c-.27-.08-.13.4-.22.44-.26.12-.6-.47-.7-.71-.15-.35-.3-.81.15-.73.51.1.7.67,1.03,1.03.06.07.32-.06.37.33.02.12-.25.1-.13.24.23-.3.9-.29.75.14-.03.08-.52.04-.02.77.06.09.22-.07.31-.04.12.04.16.35.38.28l-.43-.76c.08-.33.93.74.98.92.01.05-.36.26-.1.35.06.02.24-.24.36-.27.08.04.62,1.23.84,1.43.1.09.25.03.38.13.28.23.35.66.53.91.05.07.22,0,.25.03.2.26-.08.3-.07.4.09.55,1.36,1.04.68,1.63-.1-.24-.18-.49-.33-.71-.05-.07-.42-.49-.57-.32.12.22.17.53.31.72.03.04.54.44.76.7.11-.03.35-.18.4-.17.07.02.21,1.14.86.93-.12-.56-.55-.91-.81-1.36-.06-.1-.23-.34-.05-.39.06.49.59.65.76.86.59.74,1.26,1.46,1.79,2.13.08.1.57.83.61.92.05.1.07.63.04.69-.04.08-.26.08-.24.19.09.77.86.55,1.11,1.23l.13-.52,2,5.02.43-.65c.53.71-.17.88-.28,1.45l-.08,1.04c.19-.04.26-.17.36-.31.32-.43.35-.63.5-1.07s.44-1,.54-1.41c.12-.5-.43-1.25-.36-1.41,0-.01.28-.13.3-.12.04.01.14.6.3.69.09.03.62-.31.63-.39.02-.14-.72-1.92-.53-1.99.65.09.88.33,1.05.97.35.06-.08-.62.27-.47.16.07.52,1.11.56,1.33.02.1-.25.23.1.81.1.17.24.05.29.12.22.3.31.88.52,1.23-.93.08-.36.42-.44.94-.09.6-.51,1.05-.66,1.46-.05.13,0,.92-.11,1.27-.21.71-.65.79-.05,1.67-.35-.03-1.41.7-1.48.1-.03-.22.42-.33.43-.36.02-.05-.24-.29-.23-.52.06-.77.88-2.03,1.01-2.83.07-.42-.07-.91-.06-1.26,0-.23.25-.37.24-.56-.01-.34-.46-1.7-.93-1.28-.08.07-.02.27-.06.34-.09.14-.4.19-.5.42-.05.12-.03.36.05.39.07.03.38-.29.44-.07-.69.12-.22.5-.28.8-.03.13-.43.37-.53.53s-.23.83-.32.91c-.15.13-.44.04-.55.18-.02.03-.24.61-.25.64-.03.27.16.6.18.88,0,.09-.12.14-.11.23.02.23.19.82.15,1-.04.15-.46.23-.49.37-.06.23.23.82.2,1.09-.01.15-.18.21-.21.35-.12.54.05.93,0,1.39-.02.22-.41.67-.32.92l-.32-.21c-.33.13-.23.38-.04.62.17.21.32.07.34.08.26.18-.11.24-.16.34-.24.42-.08.61-.13.98-.03.21-.22.36-.21.49.01.16.3.39.2.66-.05.15-.26.2-.28.25-.03.08.18.42.15.66-.03.23-.39.41-.45.54-.04.11.04.39-.02.59-.04.13-.36.66-.36.74,0,.28.2.59.17.94-.02.27-.43.64-.44.68-.02.1.16.37.15.6,0,.17-.34,1.02-.3,1.3.06.49.36,1.2.1,1.72-.06.11-.41.29-.42.33,0,.03.24.26.32.5.13.39-.18.47-.11.79.13.54.61,1.32.66,1.9.01.13-.19.2-.19.35.02.26.59,1.29.49,1.48-.02.03-.22.08-.3.13-.15-.06-.53-1.53-.66-1.76-.09-.16-.31-.24-.44-.53-.09-.22-.41-1.36-.36-1.52.4-1.3.25-1.61.15-2.94,0-.09.14-.15.13-.23-.02-.11-.33-.76.05-.43.12.11.09.27.44.19.03-.12-.3-.88-.33-1.07-.01-.1.24-1.33.34-1.49.06-.09.24-.11.26-.14.02-.04-.41-.42-.39-.78.01-.15.21-.27.22-.36.08-.4-.12-1.11.5-1.12-.06-.38-.05-1.35.02-1.73.03-.18.35-.64.38-.79.09-.55.05-1.55.14-2.09.04-.25.43-.78.46-1.05.05-.42-.26-.73-.3-1.01-.02-.12.26-.17.3-.3.04-.17-.15-.38-.18-.56-.01-.08.1-1.23.11-1.46,0-.09-.03-.56-.21-.45.08.12.03.18-.05.27-.37.45-.68.92-.94,1.43-.08.16-.22.81-.29.91-.1.15-.55.31-.59.42-.03.08.14.46.13.66,0,.11-.27.35-.09.6-.12.11-.25-.36-.38-.07-.08.18.17,1.14-.35,1.55-.38.3-.04-.9,0-1,.05-.16.45-.84.45-.89-.04-.35-.39-.13-.58-.38-.26-.35.07-1.25.4-1.12.25.09-.2.59.05.68.21.08.5-.41.49-.59-.01-.24-.16-.36-.18-.49-.02-.17.65-1.27.8-1.5.08-.13.3-.2.37-.33s-.07-.31.02-.42c.11-.14.45-.19.51-.28.04-.05.44-1.09.45-1.15.03-.36-.29-.99-.35-1.43-.14-1.06-.5-1.65-.92-2.7-.46-1.13-.65-2.26-1.54-3.13-.32-.32-.43-.89-.81-1.41-.72-.96-1.62-1.86-2.37-2.79ZM52.68,116.4c-.29-.11-.32.28-.11.55.05.07.2-.01.25.06.05.06.68,1.37.83.86.09-.32-.38-.36-.39-.38-.1-.15-.48-1.05-.58-1.09Z"/>
  <path d="M81.81,61.62s.65-.19.31-.37c-.01,0-.16.11-.23.02-.23-.29-.36-1.02-.58-1.39-.08-.14-.48-.1-.48-.55l-.35.27c-.59-.57-.45-1.63-1.04-2.18-.11-.1-.3.06-.42-.01-.18-.1-.2-.52-.31-.57-.05-.02-.25.11-.38.03-.15-.08-.26-.42-.42-.56s-.78-.32-.92-.41c-.19-.12-.26-.34-.43-.48-.03-.02-.3.1-.25-.16,0-.04.32-.05.11-.28-.4.04-.12.39-.46.43-.05,0-.74-.41-.89-.45-.21-.06-2.31-.25-2.48-.23-.48.04-1.18.38-1.64.44-.12.02-.1-.17-.2-.15-.25.05-.03.21-.13.29s-.53.25-.67.28c-.08.02-.15-.14-.29-.14-1.3-.08-2.22.6-3.44.77-.11.02-.16-.26-.4-.06-.08.07.12.25-.06.26l-.15-.17-2.46.82-.53-.02c.23-.62,1.34-.66,1.94-.82.79-.21,1.59-.36,2.42-.66.23-.08.4-.32.64-.4.51-.16,1.16.08,1.86-.08.44-.1.63-.11.9-.15.39-.07.94-.21,1.24-.46-.33-.05-.52-.45-.69-.55-.05-.03-.95.03-.4-.23.34-.16.29.06.45.1.18.04.71.08.84.19.15.12.17.63.58.61.07,0,1.23-.53,1.29-.58.1-.08-.06-.21.03-.25.34.33.77,0,.27-.34.51-.35.29.26.46.4.33.26,1.09.09,1.14.11.06.02.17.36.32.47.28.2,1.33.49,1.57.66.29.2.59.53.97.77.12.08.87.52.9.56.09.12.18.51.22.53.05.02.35-.19.4-.17.06.03.48.95.71,1.18.16.16.33.06.43.17.52.59.81,1.93,1.14,2.68.23.51.63.96.77,1.54.86-.35,1.07.49.97,1.18l-.43-.76-.3.13.9,2.14c.16.38-.3.68-.29.72.03.23.37,1.05.7.81l-.17-.4c.16-.11.13.13.18.15.05.01.2-.24.25-.21.06.18.19.37.24.55.05.21-.22.46-.22.53,0,.17.12.28.14.41.01.1-.15.14-.13.22.08.62.3.3.46.33.13.02.44.92.42.97-.02.06-.27.04-.26.19.03.62.79,1.38.71,2.09-.03.27-.35-.07-.49.09,0,.24.38.57.4.71s-.18.22-.19.29c-.02.14.14.29.14.41,0,.1-.23.62-.24.66-.02.24.15.47.16.73,0,.13-.17.19-.15.29.05.3.3.6.37.96.06.29-.12.55-.13.71-.04.75.07,1.48,0,2.22-.13,1.24-.14,2.81-.43,4-.06.26-.38.62-.32.92-.19.05-.28-.3-.43-.43-.06-.05-.18-.01-.25-.08-.15-.16-.65-1.18-.56-1.31.11-.17.6.07.78-.09-.05-.35-.03-.77-.01-1.12.04-.81-.09-1.73,0-2.54.09-.88.47-.78.1-1.96-.2-.65-.59-1.12-.42-1.83.19-.8-.04-.78.02-1.37.02-.22.22-.95.19-1.2s-.45-1.49-.41-1.6c.01-.04.62-.45.14-.56-.39-.09-.45.2-.66-.6-.05-.2.13-.21.12-.3-.08-.44-.56-1.35-.59-1.71,0-.15.32-.36.08-.88-.1-.21-.25-.1-.32-.13-.51-.24.29-.73.3-.79.1-.42-.59-1.86-.76-2.31l-.19.67c-.05-.24-.71-1.52-.67-1.59ZM75.03,54.34c-.15-.06-.53-.3-.65-.03-.15.35.82.37.91.2.12-.23-.21-.15-.26-.17Z"/>
  <path d="M32.05,23.22c.23.09,1.86,3.97,2.13,4.5l-.24-.02c.36.52.54,1.15.84,1.7.22.42.71.89.81,1.06.74,1.26,1.3,3.05,2.04,4.32.1.18.23.01.34.19.85,1.47,1.47,3.53,2.33,5.02.1.18.23.01.34.19.83,1.44,1.42,3.38,2.25,4.82.1.18.23.01.34.19.4.7.16,1.33.55,1.87.05.07.19-.05.29.13.33.54.03.6.08.79.08.29.44,1.15.59,1.41.1.17.24.05.29.12.4.55.26,1.49.71,2.27.08.14.48.42.69.89,1.02,2.31,2.07,5.36,3.32,7.51.1.18.23.01.34.19.92,1.59,1.54,3.74,2.46,5.32.1.18.23.01.34.19.77,1.33,1.31,3.58,2.15,4.85.14.21.5.06.74.63.14.33-.37.06-.14.53.08.17.23.07.29.14.58.63.79,1.8,1.21,2.57-.82.25-.99-.32-1.31-.95-1.14-2.24-1.91-5.05-3.34-7.03-.64-.89-1.47-2.99-1.96-4.08-.95-2.08-1.94-4.49-3.33-6.22l-3.87-9.18c.28-.63-.08-.3-.16-.41-.16-.21-.27-.7-.41-.98-.53-1-1.06-2.31-1.58-3.22-.1-.18-.22-.01-.34-.2-.17-.28-.05-.96-.42-1.6-.1-.18-.23-.01-.34-.19-.81-1.4-1.34-3.17-2.12-4.52-.1-.18-.23-.01-.34-.19-.46-.79-1.01-2.74-1.37-3.28-.04-.06-.21.02-.26-.05-.25-.34-.38-1.08-.62-1.49-.1-.17-.24-.05-.29-.12-.48-.65-.88-2.09-1.45-2.87-.06-.08-.19.05-.29-.12-.31-.52-.13-1.01-.25-1.17-.05-.06-.2,0-.25-.06-.49-.54-.76-1.16-1.01-1.83l.55-.23c.09-.31-.67-1.12-.6-1.28,0-.01.28-.13.3-.13ZM33.26,26.11c-.24.09-.19.04-.14.23.1.34.33.7.44,1.05.31-.08.13-.14.1-.33-.07-.39-.24-.61-.41-.95Z"/>
  <path d="M26.21,88.42s-.02-.5-.04-.66c0-.11.16-.11.11-.3-.19-.77-.44-.23-.6-.28-.11-.55-.64-2.54-1.04-2.78-.61-.36-.07,1.13-.1,1.24-.02.06-.2.26-.32.17-.42-.33-.5-1.64-.83-2.12.18-.1.14.17.24.28.06.07.18,0,.26.07.11.12.14.59.51.14.24-.3-.21-.95-.26-1.21-.02-.11.21-.11.24-.19.01-.03.13-.56.13-.59.05-.75-.82-1.61.13-2.19-.04.54.55.44.4,1.11-.08.35-.21.89-.22,1.25-.02,1.13.49,2.92,1,4.01.56,1.21,1.13,2.01,1.42,3.4.36,1.73,1.89,5.72,2.85,7.36.07.12.53.18.52.65-.3.27-.74-.62-.91-.2-.04.1.39.64.46.8.14.3,0,.96.55.77l-.21-.5c.15.06.51-.12.54-.1.07.03.5,1.05.67,1.27.05.07.2,0,.25.07.89,1.2,1.68,3.16,2.88,4.02.17.12.49-.18.1.51l.38.07-.36.27c-.24-.72-.19-.38-.53-.37-.07,0-.88,0-.92-.02-.12-.03-.18-.21-.27-.25-.64-.29-1.29-.59-1.95-.83-.51-1.19-1.11-2.33-1.61-3.53-.34-.83-.38-1.34-1.01-2.12-.06-.08-.2,0-.25-.06-.05-.06-.09-1.16-.18-1.46-.16-.56-.89-2.78-.85-3.22.01-.14.17-.15.16-.16l-.63-1.49s.41-.15.4-.17c-.29-.68-.99-2.01-1.11-2.64ZM30.65,100.14c-.72-.1.26.6.33.69.66.77.64,1.38.95,2.3.8,0,.91-.48.48-1.11-.03-.05-.5-.08-.61-.35-.06-.14.09-.36,0-.59s-.33-.25-.41-.41c-.06-.12,0-.32-.08-.43-.12-.16-.37,0-.55,0-.05,0-.09-.1-.11-.1Z"/>
  <path d="M50.41,69c-.26.17-.19,0-.32-.12-.52-.52-.49-.99-.81-1.43-.05-.08-.19.05-.29-.13-.22-.4.14-.28.18-.39.03-.08-.18-.31-.15-.52.01-.09.2-.16.18-.27-.09-.63-.56-.49-.68-1.04-.29.33.27.62-.29.71-.15-.36-.35-.76-.58-1.08-.05-.07-.21,0-.25-.06-.51-.72-.95-2.23-1.44-2.87-.06-.08-.25,0-.38-.12-.2-.17-.29-.53-.45-.7-.07-.08-.39-.06-.55-.3s-.2-.54-.35-.74c-.05-.07-.2.01-.25-.05-.08-.11-.65-1.28-.77-1.53-.29-.62-.51-1.28-.8-1.9.12-.22.24.35.3.44.05.07.2-.01.25.06.45.6.78,1.25,1.24,1.83.53.67.49,1.16.77,1.73.24.49.6.42.65.49.16.22.21.67.49.88l-.19-.74.52.13c-.11-.3.24-.37.17-.72s-.25.07-.37.09c-.35.04-.73-1.18-.9-1.41-.05-.07-.2.01-.25-.05-.14-.19-.19-.51-.31-.73.31-.26.22.36.47.15.12-.09-.25-.35.12-.4.22.2.41.66.59.83.11.1.3.01.39.12.32.38.72,1.71.84,2.22.16.69.43.53.53.7.14.25.75,1.71.66,1.85-.05.08-.31.02-.32.07.08.12.25.68.29.7.14.05.55-.22.27-.47.1-.06.19-.08.29,0,.11.07,1.18,2.2,1.16,2.33l-.24-.02.39.66.17-.42c.4.48.63,1.26.97,1.74.03.04.46.15.6.59.05.15-.54,1.2.32.51.08.04.33.92.48,1.12.05.06.19,0,.25.07.59.68.51.97.85,1.73.1.21,1.15,1.74,1.29,1.9.11.12.28.02.38.12.52.54.88,1.99,1.36,2.66.05.07.2-.02.25.05.32.45.67,1.32.99,1.77.06.08.28-.09.33.23,0,.03-.26.21-.06.6.13.26.46.04.66.8.05.2-.13.21-.12.3.06.34.38.77.47,1.13l-.62-.91-.35.27c-.15-.26-.21-.61-.35-.86-.08-.14-.48-.11-.48-.55.34-.25.72.71.78.73.02,0,.29-.11.3-.13.02-.04-.41-.72-.45-.78-.09-.11-.62-.18-.78-.18-.3-.51-.65-1.31-.98-1.78-.03-.04-.64-.24-.62-.64.42-.24.37.41.65.43l-.49-1.44c-.4.44-.64-.18-.91-.46-.06-.06-.2,0-.25-.07-.37-.51-.42-1.17-.98-1.77-.83-.86-1.11-2.22-1.83-3.22-.05-.07-.2.01-.25-.05-.26-.36-.48-1.23-.82-1.61-.1-.12-.31-.02-.38-.11-.08-.1-.29-.63-.32-.76-.01-.07.3-.21-.06-.68-.05-.06-.18.01-.25-.06-.12-.13-.12-.48-.43-.44l.84,1.99ZM46.89,62.23c-.11-.11-.14-.22-.19-.36-.28.39.23.79.36,1.14.31-.21.25-.46.03-.75-.05-.06-.18,0-.21-.03ZM55.09,74.53s-.32.09-.28.18c.33.25.36.76.56,1.03.05.07.19-.02.25.06.1.11.06.39.24.28-.08-.23-.65-1.5-.77-1.55Z"/>
  <path d="M100.85,113.45c-.12.03-.25.16-.38.14-.06,0-.87-.63-.83-.8-.18.17.24.52-.3.32-.38-.14-.49-.61-.57-.64-.04-.02-.16.06-.26.05-.06,0-.11-.12-.18-.11-.11.02-.6.22-.62.27-.03.07.18.28.07.31-.02,0-.45.06-.48.05-.06,0-.37-.35-.44-.13-.1.32.51.27.63.38.16.47-.67-.11-.81-.15s-.35.03-.53-.01c-.22-.06-.89-.34-1.04-.33-.35.02-.67.25-.4.59.06.08.23-.1.34.23.04.11-.34.71.27.49.32-.12.39-.48.53.05-.25.02-.52.38-.7.4-.13.02-.23-.16-.36-.2-.11-.03-.31.06-.36.03-.07-.04-.37-1.46-.54-1.53-.02,0-.39.15-.4.17-.02.03.4.52.15.64-.22-.1-.57-.5-.7-.57-.12-.06-.24.05-.31.03-.33-.11-.73-.68-.99-.88-.24-.18-1.09-.36-1.4-.52-.68-.36-3.12-2.17-3.52-2.64-.5-.59-.57-.79-1.19-1.31-.06-.05-.2.02-.26-.05-.08-.11-.27-.54-.28-.66s.26-.09.11-.3c-.05-.08-.16.05-.25-.04-.33-.34-.29-.65-.44-.96-.09-.18-.24-.34-.34-.56-.05-.11-.22-.35-.04-.4.09.75.78.54,1.05.76.26.2.38.62.56.82.07.08.39.08.6.39.14.21.18.47.3.64.04.05.35,0,.35.29l.15-.18c-.01.38.37.34.4.38.33.46.66,1.74,1.06,1.98.1.06.24-.07.31-.03.08.03.12.19.2.23.12.06.44-.04.36.2,0,.02-.35.13-.1.28.01,0,.16-.1.22-.01.14.19.43.78.64.92.09.06.27-.05.36-.02.03,0,.55.23.58.24.09.05.12.21.25.25.31.09.41-.27.63-.36.49-.21.46.61.59.66.04.02.63-.21.94-.2.87.05,1.64.17,2.53.13,1.26-.06,2.3-.21,3.57.1.45.11,2.47.84,2.8,1.07.08.05.27.21.24.28-.03.07-.37.04-.26.23.41-.29.36.17.62.3.38.19.27-.2.29-.21.54-.21.47,1.13,1,1.11.02-.08-.43-.63.04-.6.18,0,.24.25.33.3.03.01.46.17.57.21.37.14.9.14.98.45.16,0-.08-.44.21-.32.09.04.27.48.37.52.12.06.44-.2.65.22.51-.2.71-.09,1.19.13.09.04.15.2.27.26.45.23.67-.05.8.66.21.13.5-.18.68-.15.05,0,.13.15.22.18.55.19,1.28.5,1.74.79.39.24.63.46.74.92.39.01-.09-.45.22-.44.35,0,.52.64.6.67.06.02.21-.14.32-.05.5.39.64.83.99,1.19.13.13.35.05.56.24.22.21.41.8.45.82.05.02.54-.28.6-.25.02,0,.11.3.2.41.41.48.73.85,1.12,1.31.09.11.27.02.38.12.35.3.64,1.76,1.02,1.82.63.11-.11-.7-.18-.97.76.3.44,1.47.98,2.05.38-.28.16-.45,0-.82.6.16.75.85,1.33.93.16.38.52,1.1.81,1.37.08.07.36-.07.3.19,0,.03-.33.08-.05.42.07.08.24,0,.32.06.16.12.22.37.37.53.09.1.26.02.31.09.35.5.47,1.23-.02,1.64.45.93.52,1.83.48,2.8-.06,1.36-.22,2.82-.32,4.2-.04.57.21.85-.55.96.09.51.33.14.43.17.21.08-.14,1.02-.13,1.23l-.41-.29c-.03.28.17.55.2.77.01.1-.13.15-.13.23-.02.27.07.63-.19.81-.24.17-.3-.68-.3-.78,0-.98.49-1.75.58-2.59.03-.27-.14-1.12-.05-1.28.06-.1.28-.12.36-.23.14-.21-.2-.59-.22-.84-.01-.14.17-.22.18-.36.03-.32-.18-.78-.19-1.03,0-.16.22-.95.22-1.1-.02-.41-.28-.91-.3-1.33,0-.11.18-.43.13-.71-.13-.66-.82-1.91-1.25-2.46-.07-.09-.52-.38-.72-.69-.71-1.12-1.52-2.03-2.44-2.97-.72-.73-1.51-1.44-2.12-2.21-.73-.93-2.74-2.55-3.8-3.37-.29-.22-3.14-1.64-3.57-1.78-.16-.05-.42.05-.64-.04s-.37-.38-.49-.42c-.23-.09-.84.12-1.1-.45-.04-.08.23-.08.1-.34-.23.09-.62.42-.77.39-.04,0-.68-.28-.7-.31-.12-.14-.16-.36-.24-.53-.49.15-.26.24.07.44-.13.21-.73-.1-.85-.23-.08-.09-.05-.31-.08-.32-.04-.01-.58.22-.87.1-.15-.06-.28-.3-.44-.4-.57-.38-1.2-.67-1.86-1.09-.13-.08-.83-.35-.88-.42.25-.05.5-.1.74-.2-.24-.33-.53-.27-.86-.1.05.09.07.22.13.3ZM85.3,106.63c.5-.16-.2-.92-.52-.95l.52.95ZM86.56,107.73c.05-.14-.28-.8-.57-.56l.24.84c.06-.12.32-.23.33-.27ZM86.84,108.12c-.53.01-.26.71.15.84.44-.19.22-.85-.15-.84Z"/>
  <path d="M13.98,25.42c.1.02.25-.13.37-.11.1.01.23.28.41.23.17-.05.76-.51.92-.45.07.03.05.27.18.26.24-.01.03-.22.13-.29.19-.14.52-.18.73-.31-.24-.57-.8.51-.91-.2.83-.44,1.89-.62,2.1.52-.25.25-.87.02-.97.05-.86.24-1.66.74-2.5,1.07-.2.08-.66.04-.61.32.01.07.19.17.18.2-.05.24-1.99.71-2.38.89-.63.29-.82.82-1.57.67-.14-.03-.1-.24-.3-.11-.08.06.03.16-.03.25-.25.38-.8.29-.92.43-.18.21.06.64-.75.73l.41-.41c-.02-.44-.77.17-.8.25-.04.1.12.3-.03.44-.13.12-.75.3-.77.47-.02.16.23.4.2.58,0,.03-.26.58-.28.61-.11.14-.78.67-.83.83-.04.1.17.32.14.39-.02.06-.86.52-1.02.68-.07.06-.03.19-.09.25-.42.42-.63.61-1.26.75-.67.15-.52-.15-.79-.49-.15-.2-.28-.25-.44-.54-.13-.25-.64-1.76-.57-1.94.1-.25.2,0,.27.06.54.43.54,1.58,1.02,1.91.36.25,1.48-.37,1.75-.66.09-.1.03-.26.13-.38.14-.17.41-.24.5-.36.02-.03.35-.58.36-.61.21-.65-.54-.8-.64-1.37.27-.12.56-.21.81-.37.65-.41.97-1.07,1.84-1.22.07-.01.18.29.58-.02.07-.06-.05-.19.12-.29.25-.14,1.03-.48,1.31-.55.19-.05.21.13.3.12.54-.09.6-.48.79-.57.05-.02.11.29.49.04.1-.07-.13-.25-.02-.35.4-.36,1.21-.52,1.62-.8.16-.11-.02-.71.5-.55l-.07-.32c.18-.1.26.27.38.29Z"/>
  <path d="M4.45,21.04c.09,0,1.55.6,1.6.67.14.18.4,1.09.47,1.12.3-.14.64-.23.92-.41.26-.17.11-.35.29-.46.31-.18,1.59-.83,1.78-.39l-.46.31c.63-.33.2.51.79.11.64-.44-.17-.61-.19-.65-.06-.13.92-.67,1.13-.78.26-.13,1.62-.61,1.65-.69.06-.15-.74-.98.12-1.11.27.19.14.95.18.98.1.06.62-.18.77-.2.09-.01.13.14.22.13.26-.04.46-.21.81-.19.23.01.93.43.83.68-.03.07-1.19.3-1.27.28-.04,0-.46-.44-.63-.41-1.24.25-.46.74-.56,1.03-.02.05-.22.11-.28.25-.09.21.09.72-.3.83-.14-.15-.15-.65-.25-.72-.05-.03-.19,0-.27-.04-.1-.06-.13-.23-.27-.26-.18-.04-.38.22-.43-.17-.01-.1.25-.09.14-.23l-.7.29.55.47c-.04.08-.76.26-.93.39-.13.1.13.71-.78.65-.2-.01-.45-.29-.74-.22-.27.06-.4.35-.73.28h.58s.13.29.13.29l-2.78,1.06-.12.29c.11-.02.23-.31.33-.2.43.49-.98.61-1.09.75.56.73-.79.67-1.06.93-.16.14-.02.28-.03.39-.02.31-.68-.11-.61-.35.02-.06.5-.29.52-.36.11-.38-.56-.35.32-1.15.3-.27.75-.5,1.05-.81.06-.06.34-.67.33-.71-.13-.95-.52-.45-.92-.53-.15-.03-.48-.42-.69-.42-.3,0-1.01.36-1.07-.12-.02-.18.14-.19.25-.23.2-.08,1.2-.37,1.35-.35Z"/>
  <path d="M27.58,12.7c.21.1.27.44.38.49.06.03.25-.07.38-.03.21.06.26.39.6.1.06-.05-.02-.19.06-.25.1-.08.93-.55.98-.54l.28.69c-.2.02-1.38.75-1.4.83-.08.47.46.13.69.17.04,0,.69.19.72.2.13.05.22.36.33.45.1.08.26-.04.42.03.12.05.61.49.67.59.05.09-.49.1-.14.5.02.02.55.23.58.24.2.03.51-.13.64-.06.43.22.24,1.07,1.27.84.3-.07.73-.48.83-.11l.1-.04c-.23-.26.63-.55.84-.59.08-.02.51.25.99.06.67-.27.53-.78.98-1.1.22-.15.45-.18.64-.31.03-.02.01-.42.28-.35.24.06-.07.27-.08.36s.11.22.08.35c-.01.08-.65.65-.59.88,0,.03.28.51.32.55.07.08.18.01.26.06.1.06.16.22.25.25.23.08.82-.34.95.09-.33.17-.49.6-.73.77-.25-.17-.47-.36-.71-.55-.05-.04-.17,0-.25-.07-.12-.12-.38-.65-.42-.66-.07-.02-.22.12-.31.12-.17,0-.39-.17-.71-.13-.23.03-.4.18-.57.21-.09.01-.19-.32-.34-.09,0,.01.09.13,0,.22-.22.24-.78.44-1.08.58.14.19.69,1.15.65,1.25,0,.02-.27.13-.35.15-.5.15-.81-.83-1.07-.93-.15-.06-.6.05-.79.05-.31,0-.74-.04-1.1.02-.21.03.01.22-.19.32-.35.17-.79-.02-1.14.23-.31-.48.18-.32.56-.47.79-.3,1.85-.56,1.27-1.6-.63.2.19.52-.29.71-.05-.13-.08-.25-.19-.36-.32-.3-.93-.66-1.17-.88-.28-.26-.29-.61-.47-.85-.04-.05-.35,0-.35-.29l-.11.28c-.24-.1-.64-.55-.76-.59-.08-.03-.75-.05-.86,0-.15.06-.6.32-.73.42-.1.07.13.29-.18.31-.09-.58-.46,0-.72-.16-.31-.19-.13-.65.14-.79.41-.19.32,0,.52.02.09,0,.23-.1.35-.08.08.02.4.54.54.19.11-.27-.35-.26-.41-.3-.49-.34-.17-.36-.17-.42,0-.14-.08-.24-.08-.37,0-.06.23-.1.05-.35-.02-.02-.61-.03-.49-.32,0-.02.29,0,.32.01Z"/>
  <path d="M81.41,97.71c-.11-.53-.57-1-.72-1.48-.05-.15-.1-1.24-.07-1.36.03-.14.23-.14.29-.38.08-.38-.16-.67-.16-.93,0-.04.12-.1.13-.17.07-.85.3-1.59.39-2.43.14-.11.13.11.19.12.54.12.1-.76.09-1.04,0-.13.14-.2.15-.29.02-.15-.09-.4-.06-.46.04-.07.24-.09.29-.17.26-.34.42-.69.56-1.1.04-.13.21-.24.21-.28.03-.19-.27-.33-.28-.56,0-.13.3-.92.39-.88,0,.28.31.24.35.29.21.28.16.66.08,1-.03.13-.2.22-.22.34-.03.19.15.51.06.67-.08.14-.41.05-.43.11-.02.07.28.55.31.73.02.12-.19.21-.22.34-.04.14.06.34.04.39-.05.1-.36.12-.38.18-.02.04.14.23.13.38,0,.05-.3.55-.35.69-.17.51-.12.2-.3.49-.06.1.02.29-.01.41-.04.17-.29.2-.09.46.03.04.19-.04.25.03.34.42-.17.47-.2.61-.02.11.14.28.16.42,0,.04-.06.73-.07.81-.03.19-.45.82-.44.98.05.76.45.41.5.42s.21.4.2.48c-.02.12-.45.27-.5.37-.08.15.21.77-.28.79.2.34.32.83.78.73l-.17-.4c.4-.12.59.36.65.7.01.08-.27.14.02.61.11.18.24.05.3.13.13.18.16.46.3.66s.64.78.68.88c.04.12.04.99-.19.87l-.17-.4-.35.27-.37-.31c.06.24.27.52.32.74.03.13-.29.11-.27.24s.22.58.31.67c.09.1.26.03.34.08.11.07.07.32.24.22-.1-.17-.48-1.26-.44-1.34.18-.41.46.26.58.29.49.11.65-.84,1.03.2-.25.22-.62-.17-.73-.16-.73.05.13,1.27.08,1.38-.02.05-.33.07-.38.18-.02.03.06.16.05.26-.03.15-.03.48-.21.49-.06-.77-.56-1.3-.82-1.94-.19-.45-.57-1.37-.65-1.82-.02-.14.23-.17.17-.45-.05-.21-.22,0-.33-.2-.26-.46-.84-1.66-1.02-2.16-.08-.22-.06-.48-.17-.69l.47.27Z"/>
  <path d="M82.47,174.07c.93.08,1.98.26,2.87.39.45.07,2.47-.24,2.93-.31,1.2-.18,2.45-.36,3.6-.56.92-.16,3.11-.76,3.87-.6.15.03.2.26.48.22,1.11-.13.19-.58.22-.63.14-.22.79.12.84.11.65-.08,1.59-.58,2.14-.66.12-.02.18.23.44.17.65-.14,1.5-.73,2.19-.93.09-.03.16.17.15.23,0,.46-1.77.75-2.13.94-.43.23-.52.52-1.23.65-.09.02-.14-.16-.19-.14-.7.34-.38.12-.67.16-1.44.19-2.68.53-4.16.56-.63.01-1.93.1-2.52.27-1,.28-1.28.24-2.27.35-.59.06-.59.11-1.2.28-1.44.4-3.39.33-4.87,0-.16-.04-.19-.3-.46-.1.03.49-.06.12-.22.1-.14-.02-.65.08-.71.06-.25-.11.01-.2.06-.27.29-.41.37-.33.83-.29Z"/>
  <path d="M119,167.07c.17.28-.39.55-.54.71-.5.54-1.55,2.13-1.96,2.45-.89.71-1.41,1.64-2.24,2.38-.94.82-1.88,1.19-2.84,1.88-.07.05.02.2-.05.25-.72.52-3.59,1.77-4.44,1.87-.07,0-.36-.25-.69-.14-.24.08-.43.36-.75.38-.13,0-.23-.16-.3-.16-.96-.09-1.32.48-2.19.64-.08.01-.3-.3-.64-.08.09,1.02-.54.16-.6.15-.11-.02-.28.16-.38.13-.04-.01-.52-.44-.41-.51.09-.05,1.15-.24,1.25-.24.18,0,.29.26.41.24.39-.06,1.02-.48,1.47-.62.24-.07,1.13-.21,1.29-.08l2.41-.78c.29.42-.71.23-.43.65.27-.13.58-.21.84-.36.2-.11.23-.29.32-.37.05-.04.1.17.2.15.55-.08,1.32-.68,1.79-.99.43-.28.43-.27.74-.54.1-.09.62-.43.67-.41.07.03.02.49.46.16.09-.07,0-.34.11-.46.17-.19.43-.19.61-.32.06-.04.7-.97.79-1.03.65-.47.86-.37,1.34-1.09.41-.62.83-.87,1.26-1.41.06-.07.23-.1.3-.19.11-.15-.18-.3-.15-.35.02-.04.48-.27.64-.44.51-.53.87-.78,1.35-1.25.1-.1.15-.22.36-.24Z"/>
  <path d="M98.44,154.49c.18.11.27,1.26.66,1.01l.04.1c-.15-.03-.57.71-.39.75.14.03.77-.34.85.35-.66.36-.57.25-.95-.3-.52.8.3.64.51,1.19l.26-.23.43,1.03c.45,0,.94.26,1.02.74.02.11-.26.14-.07.4.04.05.3-.13.31.16-.66.21-.64-.39-.99-.67-.12-.1-.44,0-.5-.35-.18.07.08.49.14.58.1.15.26.23.35.36.12.16.25.6.54.59.58-.03.69-.91,1.28.32l-.71-.29c.11.27.26.59.45.81.14.16.45.16.61.34.13.15-.08.19-.08.23-.06.51.35.1.47.13.06.02.47.72.59.87.1.11.21.04.34.19.09.1.43.63.41.71-.42.09-.53-.31-.8-.5-.61-.43-.75-.46-1.33-1.03-.1-.1-.26-.02-.31-.1-.09-.12-.18-.51-.22-.53-.06-.02-.28.21-.44.12-.29-.17-.61-1.39-.98-1.82-.12-.14-.24-.07-.29-.14-.25-.35-.56-1.12-.82-1.36-.08-.07-.15-.04-.23,0-.1-.17.18-.08.11-.33-.05-.16-.26-.68-.34-.79-.05-.07-.36.09-.31-.18,0-.03.32-.16.15-.48-.48.26-.66-.56-.38-.83.09-.08.27-.08.38-.2.04-.04-.11-.24.2-.29.1-.01.09.25.23.14-.05-.23-.64-.63-.19-.74Z"/>
  <path d="M76.42,119.53s-.01-.2-.15-.18c-.19.03-.43.22-.64.27.28.48.36,1.01.73,1.45l-.55-.2c-.23-.42-.29-.95-.66-1.28.05-.09.84-.1.92-.29.02-.04-.09-.18-.07-.27.05-.2.33-.29.05-.65-.46.13-.21.16-.2.35.02.46-.72-.31-.83-.57-.1-.23-.06-.47-.19-.7-.19-.34-.71-.65-.82-.85-.47-.86.1-.56.17-.73-.03-.38-.35-.47-.66-.32-.11.05.12.24-.07.27.01-.44-.41-.45-.44-.48-.09-.12-.25-.52-.28-.66-.02-.09.16-.16.15-.2-.01-.08-.76-.95-.94-1.14-.11-.13-.25-.06-.3-.12-.29-.4-.46-1.24-.83-1.68.61-.07.75,1.36,1.08,1.41.74.11-.33-.87-.38-1.16,0-.06.24-.26.04-.45.48.05.47.81.72,1.14.05.07.19-.01.25.06.04.04.32.52.33.55.04.18-.31.24-.29.37.03.24.34.65.4.93.65-.14.27-.38.11-.87.18-.1.14.17.24.28.06.07.2-.01.25.06.24.32.58,1,.82,1.39.54.88,1.2,2.28,1.78,3.1.05.07.19-.05.29.12.06.11.37.81.35.86,0,.02-.31.13-.4.17.16.12.29.14.4.36.05.11.26.85.24.89-.01.02-.37.18-.39.17-.07-.02-.57-1.23-.55-1.3,0-.02.22-.09.3-.13ZM74.42,115.91c-.28-.1-.03.47-.25.51.38.16.33.64.73.34.03-.06-.37-.82-.48-.85Z"/>
  <path d="M35.61,104.16c.83.19,1.53.44,2.32.57.6.1,1.55-.09,1.78.7.18-.03-.03-.19.08-.27.47-.35.59-.03.76-.08.32-.1.26-.14.13-.41l.74-.19c.34.49-.39.23-.05.72.52-.37.87,0,1.14.46.18-.02-.02-.2.06-.26.11-.08.65.06.9.04-.03.16-.4.15-.46.27-.03.06.12.32,0,.45-.21.17-.37-.25-.42-.27-.69-.21-.13,1.18.4.64.28.71.46-.07.58-.14.65-.37,1-.52,1.25.3-.75.04-.68.51-.36,1.09-.7.45-.59-.39-.88-.57-.06-.04-.77-.04-.86-.1-.22-.12-.35-.58-.51-.75-.03-.03-.59-.41-.64-.44-.75-.41-1.93-.24-2.82-.42-.13-.03-.21-.19-.35-.22-.33-.06-.86.23-1.09.2-.37-.04-1.15-.69-1.47-.91-.16-.11-.49.03-.54-.44,0-.03.26.02.32.03Z"/>
  <path d="M84,141.69c.42.39.35.91.59,1.4l-.3.12c-.21-.23.11-.24.09-.35-.04-.26-.29-.38-.53-.41l1.06,2.25c-.28.24-.26-.19-.32-.21-.21-.07-.32.11-.19.36.28.51.47.3.7.5.43.38.61.65.96,1.11.13.17.72.19.73.74-.79-.04.12.52.39.78l.08-.5.39.66c-.1.11-.3-.38-.38-.07-.07.28.27.21.35.29.15.16.2.4.42.54.25.16.7.06.78.62-.23.2-.22-.08-.35-.08-.55,0-.49.03-1.03-.08-.18-.04-.48.03-.58-.03-.24-.15-.36-.64-.48-.89.37-.29.45.2.75.47.11.1.74.34.5,0-.08-.12-.24-.16-.31-.25-.41-.53-.69-.87-1.12-1.47-.05-.07-.2.01-.25-.05-.07-.09-.57-1.56-.76-1.24,0,.01.17.25-.07.26-.25,0-.38-.32-.47-.36-.31-.12-.51.42-.91-.3-.16-.28-.13-.24.19-.36l.4.65c.08-.07.19-.39.16-.48-.1-.32-.26-.16-.34-.23-.22-.18-1.24-2.25-1.22-2.55.03-.72.87-.35,1.09-.84ZM83.87,143.62c-.23-.34-.26-.82-.41-1.16-.03-.08-.16-.28-.27-.19-.1.6-.02,1.24.68,1.35Z"/>
  <path d="M34.47,6.71c.3.09-.29.33-.03.47.03.02.29-.17.36.32-.18.06-.99.47-1.04.57-.02.05.13.42.14.59,0,.2-.25.26-.02.57.29.21,1.19-.38,1.27-.34.26.11.14.54-.21.62.26.18.54.05.79.09.14.02.23.18.29.19.17.02.97-.33,1.23-.37.24.27-.19.26-.21.33-.03.09.34.4.31.46-.71.32-1.15.59-1.93.39-.68-.18-.62-.34-1.48-.37-.13,0-.19-.25-.49-.01-.07.05.05.26-.3.47-.41.25-.88.5-1.21.05.03-.05.65-.35.78-.45.07-.06.06-.61.54-.22,1.21-.4.26-.37-.02-1-.18-.4-.03-.74.14-1.12.03-.08.21-.12.25-.27.03-.09-.07-.24-.04-.3.02-.05.83-.65.88-.63Z"/>
  <path d="M63.43,52.83c.18.47-.86.79-1.2.86-.08.01-.13-.15-.22-.14-.17.03-.92.27-1.06.37-.34.26.01.69-.02.78-.08.2-1.01.07-.52.7-.38.28-.18-.49-.35-.56-.18-.07-.72.63-1.02.78-.26.13-1.16.33-1.19.38-.02.04.15.3.17.4-.15.11-.12-.15-.25-.13-.63.1-.54.45-.69.54-1.01.57-2.15.99-3.17,1.56-.12-.15.2-.15.14-.23-.2-.25-.35-.19-.61-.04-.24-.51.85-.29,1.04-.44.14-.12,0-.35.03-.45.07-.18.87-.63.94-.19l-.6.25c-.15.24,1.75-.17,1.36-.82.58-.16,1-.58,1.51-.86.3-.16.75-.25.99-.41.11-.07-.09-.28-.07-.33.03-.07.4-.1.53-.17.2-.12.37-.33.58-.42.31-.14.53.01.68-.05.29-.12.26-.58.43-.66.37-.19.53-.03.79-.09.59-.14,1.23-.39,1.78-.63Z"/>
  <path d="M61.53,119.19c.31.35.83.78,1.16,1.1.07.07.8,1.65.84,1.79.08.25-.19.32-.17.45s.46,1.16.53,1.26c.06.09.45.05.47,0,.03-.07-.29-.36.07-.38.26.48.31.64.07,1.11-.04.08-.21.11-.23.15-.04.11.28.45.08.66-.21.22-.38-.03-.49-.21-.54-.95-.86-2.08-1.4-3.05-.1-.18-.23-.01-.34-.19-.21-.36-.31-.88-.52-1.26l.34-.03c-.07-.37-.35-.28-.63-.38-.14-.18.19-.3.17-.44-.05-.35-.43-.85-.52-1.22l.56.66Z"/>
  <path d="M55.59,150.85c-.01.47.43.54.48.59.14.18.7,1.02.72,1.16.03.24-.27.37-.24.5.13.72.8,1.59.47,2.23-.24.46-.18-.42-.54-.17.12.54.37,1.05.53,1.58.04.12.23.63,0,.66-.36-.15-.38-.58-.64-.86-.11-.12-.25-.05-.3-.12-.17-.24-.24-.65-.39-.92l.34-.03c-.35-.3-.02-.85-.03-.89-.11-.59-.76-1.67-.85-2.29-.01-.1.16-.19.18-.35.03-.32-.13-.88.27-1.09ZM55.72,151.73c-.49-.22.16,1.39.25,1.42.02,0,.39-.15.4-.17.06-.13-.54-1.04-.65-1.25Z"/>
  <path d="M7.94,7.8c.41-.28.29.08.43.14.08.04.27-.09.39-.02.24.15.04.64.76.15.15-.1.15-.24.27-.34.08.49.21,1.05-.08,1.49-.08.12-.45.27-.4.41.02.04.44.24.43.47-.23.24-.36-.06-.45-.04-.51.09-.35.36-.42.41-.59.42-2.04,1.02-2.75,1.16-.03,0-.45-.21-.54-.24.27-.16.69-.22.93-.39.07-.05-.05-.19.12-.29,1.02-.6.89-.12,1.62-1.24.08-.13.29-.23.28-.25l-.59-1.4Z"/>
  <path d="M109.95,113.79c.51.19,2.14.61,2.39.79.38.28.75.73,1.18,1.01.11.07.35-.02.48.15.15.19.04.56.22.65.16.09.37-.1.49-.07.04.01.08.16.16.2.53.34.33.58.67.9.17.16.32.1.44.19.11.08.41.51.47.53.36.13-.09-.51.27-.47.19.43.03,1.06.68.77-.02.35.11.39-.28.38-.42-.01-.63-.51-.93-.72-1.13-.79-2.4-1.48-3.51-2.23-.14-.09-1.12-.77-1.07-.87.7-.1.23-.48-.04-.45-.14.02-.36.19-.42.17-.03,0-.16-.37-.32-.49-.19-.14-.98-.18-1.05-.52.04-.21.12.02.18.05Z"/>
  <path d="M37.6,4.72s.08.14.16.12c.36-.06.92-.37,1.34-.32.1,0,.76.33.83.43.16.24.77,1.63.79,1.86.01.13-.16.22-.18.36-.02.11.08.28.06.4s-.2.13-.24.2c-.17.36,0,.59-.68.72-.5-.69.21-.54.31-.86.04-.14-.12-.47-.11-.67,0-.18.19-.26.19-.42,0-.2-.44-1.37-.51-1.4-.04-.02-.65.25-.73.33-.12.1-.04.3-.07.34-.31.43-.43-.36-.63-.39-.18-.03-.83.4-1.09.44-.38-.64-.05-.52.16-.78.09-.12-.03-.38.39-.35Z"/>
  <path d="M72.17,99.73c0,.23.07.62.21.79.09.1.27-.09.33-.07.11.05.11.76.31.97.15.16.35-.03.49.07.15.11.41.59.56.76,1.16,1.28,1.19,2.28,1.99,3.66.1.18.23.01.34.19.12.21.54,1.18.57,1.39.02.1-.27.14-.07.4.03.03.2-.04.25.03.52.72.02.67-.02.76s.21.45.24.6c-.31.3-.52-.18-.57-.5-.02-.14.32-.22.13-.55-.11-.2-.48-.05-.69-.54-.11-.26-.62-1.5-.62-1.64s.19-.16.13-.36c-.11-.4-.6-1.55-.8-1.91-.1-.17-.24-.05-.29-.12-.18-.25-.62-1.55-.91-1.6-.14-.02-.37.14-.42.12-.04-.02-.11-.29-.21-.4-.57-.62-1.02-1.02-1.25-1.92l.3-.12Z"/>
  <path d="M15.34,5.66s.08.13.17.12c.42-.05.79-.22,1.12-.46.21.31-.15.22-.28.38-.05.06-.2.75-.24.78-.3.25-.41-.31-.71-.05-.02.02-.23.54-.25.61-.03.1.19.42-.12.36-.02,0-.06-.31-.33-.09-.03.02.04.2-.03.25-.33.23-1.13.49-1.42.73-.13.11.03.29-.18.42-.52.32-.51,0-.54-.02-.28-.06-.12.64-.17.75-.04.09-.44.18-.53.37-.29-.87.13-.76.48-1.17.12-.14.03-.34.11-.38.12-.07.34,0,.42-.05s0-.24.05-.32c.14-.22,1.3-.43,1.32-.49.01-.04-.26-.49-.16-.73.03-.07.27-.25.37-.38.07-.1.02-.26.09-.31.15-.1.64-.31.81-.31Z"/>
  <path d="M-.06,22.79c.38.6.05.46-.04.64-.08.17-.17.62-.24.73-.12.17-.38.22-.52.53-.21.5.15.61.15.92,0,.18-.18.21-.18.22-.05.25.23.12.31.19.3.29.14.51.79.46l-.19.37c.39,0,.34-.36.38-.39.26-.2,1.08.13,1.02.39-.01.05-.46.21-.27.47l-.1.04c-.08-.27-.51-.08-.82-.11-.84-.08-.61-.31-1.08-.76-.07-.07-.19-.03-.25-.08-.35-.36-.54-.53-.58-1.07.56.08.19-.2.32-.49.15-.33.49-.05.04-.6.87.21.33-.23.28-.5-.17-.97.47-.5.97-.97Z"/>
  <path d="M16.04,6.97c.06.02.24.67.35.83.05.07.31-.09.37.32.01.08-.29.16-.03.48.05.06.19-.02.25.06.71.88.85,1.01,1.66,1.77.28.26.28.6.65.34l-.15-.64c.14.2.27.62.55.47l.04.1c-.61.3.61.93.74.63.03-.07-.29-.38-.07-.44.12.44.4.25.64.32.68.19.37.03.89-.07.42-.08.63.41.88.5.23.09.91.05,1.21.27.21.15.3.46.4.69-.27-.06-1,.32-1.17.24-.33-.16-.48-1.68-1.28-1.31l.51.48c-.38.2-.85-.18-1.18-.19s-.16.07-.63-.02c-.84-.16-.58-.25-1.11-.53-.9-.48-.9-.43-1.69-1.15-.57-.53-1.18-1.1-1.64-1.65-.36-.43-.38-.84-.66-1.27l.5-.21Z"/>
  <path d="M70.01,170.59s.44.3.41.41l.15-.18c0,.38.34.33.39.4.45.52.28.42.83.81.16.12.24.42.33.47s.34-.1.47-.07.11.26.25.26c.37,0,1.09-.43,1.14.1l-.84.24c.16.18.59,1.06.71,1.15.11.08.24-.06.31-.03.15.06.87.71.99.88.02.04.46.04.35.29-.14.33-.45-.1-.54-.16-.82-.51-1.51-1.22-2.47-1.69-.18-.09-.85-.23-.97-.32-.15-.11-.13-.4-.3-.6-.2-.24-.67-.2-.86-.52l.52-.16c-.11-.91-.44-.37-.64-.45-.05-.02-.68-.89-.24-.82Z"/>
  <path d="M60.41,163.96c.09.43.82.85.18.98l-.27-.36c.12.27.2.56.38.79.17.21.32.07.33.08.23.15-.1.26-.09.35.1.71,1.2,1.62.67.46.41-.19.46.37.69.62.08.09.21,0,.35.16.32.36.63,1.02.84,1.47l-.55-.21c-.24-.2-.46-.31-.41-.68-.13.01-.28.26-.38.23-.03,0-.45-.3-.47-.32-.3-.32-.42-.79-.68-1.13-.15-.19-.31-.12-.35-.18-.38-.53-.44-1.5-.96-1.98l.7-.3Z"/>
  <path d="M119.6,120.09s-.27.07-.12.23c.17.18.38-.14.42-.12.11.06.24.83.47.98.15.1.44-.05.57-.02.12.03.13.23.2.25.11.04.37-.27.43.24,0,.09-.21.11-.12.29.12.23.75,1.11.93,1.35.04.06.49.13.47.6-.27.18-.38-.26-.61-.44-.97-.78-1.99-1.7-2.8-2.67-.22-.26-.33-.6-.6-.83.17-.09.8-.12.75.14Z"/>
  <path d="M96.42,151.14s.1.2.19.24c.19.1.36,0,.5.22.16.26-.28.19-.26.48s.5.68.35.93c-.11.18-.38.06-.13.63.16.37.27.31.6.13.22.38-.41.15-.31.66.07.36.47-.26.54.18-.45.02-.25.48-.66.5-.2,0-.3-.21-.36-.37-.07-.19.14-.22.12-.3-.04-.19-.33-.47-.44-.73-.23-.57-.3-1.19-.62-1.73.53-.22.02-.56.07-.68,0-.02.33-.16.39-.14Z"/>
  <path d="M63.83,102.39l3.99,6.21-.3.12c-.07-.25-.04-.54-.21-.77-.03-.04-.46-.27-.69-.58-.38-.53-.92-1.77-1.28-2.14-.2-.21-.94-.3-.48-.85-.02-.1-.15.04-.2,0-.17-.12-.93-1.94-1.11-2.27l.27.27Z"/>
  <path d="M58.49,114.88c.54,0,.43.9.59,1.09.1.12.35.05.45.12.29.2.48,1.3.87,1.7.18.18.39.04.48.25.13.29-.29.34-.28.48.06.41.81,1.18.27,1.46-.16-.44-.46-.75-.62-1.2-.12-.34.18-1.49-.53-1.14-.06.03.1.3-.12.29-.27-.01-.42-.68-.44-.9-.01-.13.17-.14.17-.15l-.84-1.99Z"/>
  <path d="M4.21,1.74c.11.14-.15.12-.13.25.09.58.43.17.84.04l-.49-.32c-.05-.07.06-.1.13-.11.53-.13,1.18-.34,1.64.13-.32.24-.32-.16-.64.02-.18.1-.05.23-.13.3-.14.11-.72.33-.76.46-.06.21.48,1.06.18,1.43-.26-.04-.26-.34-.38-.46-.07-.07-.21,0-.25-.06-.13-.18-.15-.46-.28-.66-.09-.14-.93-.11-.92-.52.44.01.75-.41,1.19-.5Z"/>
  <path d="M102.84,111c.12.08.56.85.63.88.35.16.01-.47.08-.5.46,0,.57.31.85.49.15.09.44,0,.5.34.16,0-.08-.43.21-.32.03.01.28.36.42.44.47.27,1.12.19,1.33.93-.14.09-.17-.13-.31-.17-.11-.03-.3.1-.82-.07-.1-.03-.29.06-.36.01-.08-.05-.09-.24-.15-.29-.09-.08-.21,0-.25-.07-.23-.31-.09-.79-.66-.57-.13.05-.37.3-.4.28-.02,0-.05-.19-.14-.25-.07-.05-.58-.33-.61-.34-.25-.09-1.02.18-.89-.24.03-.08.59-.18.13-.53.03-.06.37-.07.43-.04Z"/>
  <path d="M41.71,49.19l.88,2.09-.34.03c.21.38.31.9.52,1.26.1.18.24.05.29.12.25.32-.04.4-.03.48.05.29.31.63.39.93l-.55-.21c-.08-.21-.58-.82-.52-.97.02-.06.29-.06.27-.18-.06-.27-.64-1.62-.8-1.9-.1-.17-.24-.05-.29-.12-.31-.4,0-.51-.01-.58-.08-.43-.55-.73.19-.94Z"/>
  <path d="M5.41,3.47c.17.35.54,1.23.84,1.44.1.07.28.02.4.08.13.07.2.28.25.29.24.09.75-.66,1.06.04-.76.41-1.45.76-2.29.97-.06-.42.1-.42.47-.55-.47-.69-.81-1.09-.83-1.95,0-.16-.22-.25.11-.32Z"/>
  <path d="M54.76,58.71c-.04.28-.41.32-.29.71.52-.37,1.4-.4,1.89-.67.17-.09.05-.24.13-.3.36-.27,1.14-.46,1.44-.02-.19.33-1.66-.24-1.2.5l-4.13,1.62-.13-.3c.34-.16.71-.27,1.04-.45.12-.06.17-.26.24-.29.1-.04.26.16.42.02-.38-.49.19-.58.59-.83Z"/>
  <path d="M38.35,54.6c-.17.1-.19-.19-.25-.31-.11-.23-.2-.6-.33-.78-.05-.07-.2.01-.25-.05-.15-.2-.17-.58-.34-.76-.18-.19-.56.26-.68-.53-.02-.13.2-.11.15-.2s-.15.04-.2,0c-.07-.05-.64-1.34-.67-1.51-.03-.13.29-.11.27-.24-.06-.29-.35-.76-.47-1.09-.05-.12-.23-.34-.05-.39.11.19.14.46.27.63.05.07.19-.05.29.12.15.25.47,1.02.55,1.31.07.25-.24.27-.14.51.03.09.46.88.52.95.03.04.45.23.6.59l.74,1.74Z"/>
  <path d="M66.98,103.56c.17-.1.19.19.25.31.13.29.25.76.42.98.05.07.19-.05.29.12.67,1.14.98,2.79,1.87,3.88.02.02.59.15.3.31-.49.28-.3.05-.49-.18-.08-.1-.29.08-.34-.24,0-.04.32-.16-.05-.66-.01-.01-.29-.18-.31-.19-.29-.05-.04.52-.31.36s.01-.51-.02-.63c-.06-.22-.34-.9-.47-1.08-.02-.03-.8-.25-.01-.31l-1.13-2.69Z"/>
  <path d="M20.99,12.66s.09.12.17.13c.15.03.56-.13.49.26-.01.08-.43.23-.54.24-.2.02-.23-.12-.31-.12-.46.06-.24.39-.37.49-.08.06-.43.06-.63.15-.32.16-2.05,1.05-2.17,1.17-.02.02-.12.5-.4.39-.02,0-.16-.34-.15-.39.01-.04.19-.07.23-.14.05-.09-.01-.26.09-.35.13-.12.5-.11.72-.19.83-.32,1.59-.65,2.28-1.21.07-.06.02-.45.58-.44Z"/>
  <path d="M88.19,105.58c.47.25.5.67.85,1.02.1.1.9.47.96.53.22.22.31.57.43.85l-.81-.04c-.18-.09-.47-.74-.65-.9-.07-.06-.87-.45-.91-.5-.34-.47-.15-.59-.09-1.05.12-.09.11.03.21.09Z"/>
  <path d="M123.5,124.76s.16-.03.2.03c.2.27.15.75.67.46l-.03-.34c.1.38.66.52.7.8.01.11-.17.18-.18.27-.05.26.53.81.56,1.18l.19-.66.49,1.44c-.65.08-.86-.91-1.14-1.31-.16-.22-1.07-.95-1.26-1.18-.32-.38-.58-.99-.78-1.44l.6.77Z"/>
  <path d="M54.9,144.21c.18.05.6,1.29.64,1.53.01.08-.13.12-.13.23s.15.28.13.32c-.02.06-.34.08-.38.18-.03.06.22.34-.24.56-.12-.4-.43-.84-.51-1.23-.03-.15.21-.95.27-1.15.02-.08-.13-.54.23-.44Z"/>
  <path d="M77.67,173.27c.39.04.95.33,1.14.35.65.08,1.54.07,2.17.09.14,0,.3.24.5.14l-.55.35.55.47-.64-.16c-.22-.15-.22-.6-.28-.62-.12-.06-1.02.33-1.27.36-.04,0-.75-.18-.82-.2-.46-.16-.86-.46-1.29-.68.07-.2.35-.12.5-.1Z"/>
  <path d="M47.2,111.2s.69-.43.56.35c-.08.46-.33-.02-.46-.09s-.35-.05-.38-.09c-.21-.26.07-.3.08-.34.05-.25-.37-.16-.53-.27-.03-.02-.4-.32-.41-.34-.08-.11-.35-.73-.38-.87-.03-.13.26-.14.28-.18s-.43-.8-.49-.88c-.05-.06-.63-.31-.64-.7,0-.14.37.09.39.11.28.33.48.82.74,1.14.04.05.38.09.47.3.11.26.68,1.81.78,1.84Z"/>
  <path d="M119.32,144.16c-.21-.57-.39-1.05-.28-1.64.36.1.33.53.5.77.04.06.32-.08.37.32.01.1-.18.1-.16.2.06.26.21.05.26.07.25.13-.1.26-.09.34.03.18.2.38.24.58.05.24-.09,1.21-.34,1.26-.21.05-.4-1.02-.66-1.18-.2-.48.01-.47.15-.72.11.3.26.6.38.9l.3-.13-.46-1.1c-.27.05-.12.15-.21.32Z"/>
  <path d="M67.25,52.98c.23.3-.52.33-.09.62.24.16.93-.62,1.29-.65.28-.02.31.39.37.41.07.03.44-.23.5-.21.14.06-.05.67.71.17.22-.06.16.66-.27.68-.36.02-.85-.53-.9-.54-.33-.07-.16.36-.36.38-.32-.4-.88.17-1.2.1-.11-.02-.16-.24-.26-.27-.12-.05-.48.11-.65-.23.38,0,.46-.42.85-.48Z"/>
  <path d="M16.23,2.43c.19.03.26.68.3.69.04.02.78-.37.59.27-.05.16-.27.13-.34.25-.02.04-.35.8-.35.85,0,.18.19.45.17.49-.03.09-.8.14-.94.28-.11-.03.33-1.14.36-1.3.02-.11.13-.81.12-.85-.01-.19-.43-.76.08-.66Z"/>
  <path d="M124.08,159.64l.15.39c-.31.34-.68.69-.98,1.03-.14.16-.59.61-.63.67-.11.19,0,.4-.06.52-.24.45-.93,1.71-1.3,2.19-.13.16-.69.4-.9.65-.32.38-.65,1.2-1.04,1.6-.18.18-.39.19-.61.26-.17-.27.26-.38.44-.61.39-.49.72-.95,1.17-1.48.08-.09.16-.49.36-.62.04-.02.24.43.67-.28.03-.04.38-.85.38-.89,0-.06-.15-.14-.14-.15.36-.62.87-1.36,1.32-1.96.08-.1,0-.29.12-.39.14-.12.41-.07.59-.25.2-.2.1-.6.47-.68Z"/>
  <path d="M43.96,55.93c-.18-.59-.06-.64,0-1.03.03-.19-.31-.4.06-.47.34.56.36,1.08.47,1.68l.36-.27c.04.22.39.73.36.89-.01.08-.3.2-.32.28-.02.12.17.34.15.39,0,.02-.39.19-.4.17-.22-.52-.53-1.12-.69-1.64Z"/>
  <path d="M125.7,155.67c-.09.39.05.11-.2.62-.03.06-.24,1.47-.51,1.03l.11-.57c-.49.3-.14.71-.18.93-.12.59-.23,1.06-.6,1.56-.05.06.07.25-.22.28-.1.01-.08-.18-.18-.16-.02,0,.03.44-.26.35-.44-.13.52-.6.55-.64.04-.05.28-.75.25-.81-.03-.06-.3.09-.28-.11-.08-.38.25-.45.3-.58.12-.3.16-.73.44-1.1.1-.13.78-.74.79-.8.03-.21-.55-.68.02-1.06.07.04.21.74.19.86-.03.15-.2.19-.21.2Z"/>
  <path d="M25.12,76.37c-.05.24.77.73.83.71.08-.03.05-.46.13-.52.13-.1.4.08.37.19,0,.02-.21.12-.25.27-.04.18.08.35.05.48-.05.26-.39.56-.43.69-.06.19.1.45.06.64-.02.12-.32.69-.44.81-.35-.53-.03-.71.05-1.01.05-.19-.12-.28-.11-.38s.19-.15.18-.27c-.07-.44-.46-.99-.59-1.37-.06-.2-.08-.16.14-.24Z"/>
  <path d="M55.74,139.52c.02-.99,0-.45.41-1.16s.57-.79.97-1.34c.05-.07.15-.8.54-.11.34.6-.89.85-.97.97-.1.14.02.4-.05.53-.03.07-.2.07-.24.2s-.06.85-.13.92c-.21.23-.26-.12-.53-.01,0,.49-.04,1.07-.07,1.58-.02.37.28.81-.19.87-.17-.36-.33-.57-.01-.88-.04-.35-.37-.16-.44-.27-.22-.34.16-.47.19-.53.04-.1-.1-.24.04-.44.07-.11.35-.29.49-.34Z"/>
  <path d="M28.91,22.19l-4.8,2.26c-.02-.17.44-.4.57-.47.73-.38,1.32-.68,2-1.08.55-.32,1.76-1.39,2.23-.7Z"/>
  <path d="M72.15,114.99c.21.06.78,1.43.93,1.64.05.07.19-.05.29.12.12.2.39.7.07.74l.04.1c.45-.16.51.47.78.73-.58.22-.66-.26-.95-.57-.06-.07-.38.01-.39-.39l.34-.03c-.08-.18-.14-.37-.23-.55-.2-.38-.54-.65-.81-1.04-.09-.13-.25-.17-.32-.34-.09-.22.06-.48.26-.42Z"/>
  <path d="M130.63,143.15c.36.41,0,.59-.02.74s.15.34.14.38c-.02.05-.3.07-.37.18-.04.05.03.45,0,.61-.01.09-.33.25-.09.35.07.03.31-.27.36.02-.3.42-.22.97-.82,1.11l.24-1.66c.21-.14.08-.53.12-.59.07-.1.36-.13.38-.17.02-.04-.26-.46-.24-.72,0-.04.31-.72.38-.75.42-.18.61.59-.08.51Z"/>
  <path d="M55.35,77.36c.14.05.93,1.84,1.14,2.14.05.07.19-.05.29.12.32.55.49,1.37.81,1.95-.51.36-.42-.45-.6-.85-.15-.35-.79-1.52-.99-1.81-.05-.07-.19.05-.29-.12-.24-.41-.35-.93-.66-1.31.08-.02.27-.14.3-.13Z"/>
  <path d="M66.42,166.43c.06.05.13-.09.29.2.11.2.16.46.27.66-.74.04-.06.41.12.83.12.28.17.61.2.91-.11-.06-.22.02-.32-.07-.24-.21-1.04-1.84-.89-2.12s.25.18.38.07l-.29-.7c.15-.1.13.11.24.21Z"/>
  <path d="M14.55,28.49c.15.04.34.9.89.44l.13.3-.26.23c.4-.3.37.15.43.17.28.1.11-.26.12-.28.14-.23.24.06.34.09.12.03.36-.05.37-.04.01,0,0,.32,0,.33-.24.35-.59.06-.63.06-.27.02-.87.24-1.04.12-.27-.19-.8-1.52-.35-1.42Z"/>
  <path d="M30.63,18.81c.06.04.08.21.14.23.14.06.71-.3.87-.11-.29.07-.67.36-.94.38-.23.01-.4-.48-.61-.31-.05.04-.07.73-.2.87-.2.21-.58.32-.85.4-.08-.22-.25-.65-.09-.82.2-.21,1.46-.77,1.68-.63Z"/>
  <path d="M42.72,12.62c-.16,0-.65.04-.81-.04-.17-.09-.19-.47-.58-.19,0,.16.43-.08.32.21-.03.08-1.05.64-1.27.77-.33.2-.12-.53-.09-.55.37-.23.53.11.56.12.12.03.26-.3.27-.38,0-.05-.14-.13-.14-.14.01-.02.17-.05.24-.15.03-.04-.02-.16.04-.21.62-.46.57-.13.86.02.1.05.22,0,.31.1.15.14.18.31.27.45.18,0,.58-.16.77-.06.29.16.87,1.29.87,1.67s-.26.33-.29.42c-.05.15.4.46-.18.53-.07,0-.13-.11-.18-.11-.11-.01-.52.15-.3-.15.11-.15.46-.25.51-.44.1-.4-.41-1.39-.72-1.67-.2-.17-.26.12-.47-.18Z"/>
  <path d="M90.32,148.68s.58.23.6.26c.03.04-.05.61.22.77-.45.34-.76-.07-1.05-.14-.19-.05-.62-.05-.82-.12-.04-.01.13-.39.15-.41.15-.1.74-.35.91-.36Z"/>
  <path d="M13.35,3.11c-.04-.07-.24-.14-.25-.31.28-.08.58-.3.85-.37.03,0,.41-.04.62-.07.04,0,.75.05.79.07.08.04.05.42.16.53-.3.23-.52-.39-.72-.4-.29-.02-.88.27-1.17.37l.67,1.59-.3.13c-.25-.48-.39-1.08-.65-1.54Z"/>
  <path d="M15.01,15.19c.18-.01.59.38.45.6-.21.36-1.17.56-1.58.54l.32-.9c.1-.08.67-.23.81-.24Z"/>
  <path d="M101.19,114.83s.11.25.22.36c.38.37,1.22.82,1.76.72.37-.07.25-.41.65.15-.02.04-.57,0-.47.26.05.13.35.15.38.17.12.1.15.27.31.37.15.09,1.29.3,1.2.6-.21,0-.68-.03-.85-.15-.11-.08-.12-.27-.2-.33-.07-.05-.33.07-.52-.04-.17-.1-.25-.35-.38-.45-.5-.38-1.46-.61-1.99-.93-.11-.07-.44-.55-.41-.61,0-.01.28-.13.3-.13Z"/>
  <path d="M107.9,113.38c.05.04.22,0,.33.09.13.1.54.84.52.26,0-.22-.22-.36-.27-.56.83-.23.72.56.94.82.08.1.27.04.34.09.12.08.17.25.33.3.3.1.57-.18.74.5-.03.12-.5-.09-.57-.12-.62-.22-1.35-.67-1.96-.86s-1.37.11-1.11-1.12c.27-.2.56.5.7.61Z"/>
  <path d="M12.35,15.22c.35.68.55.86,1.19.32-.02.23.03.35.21.5-.41.47-1.01,0-1.12.02-.19.02-.44.38-.7.4-.35-.66-.3-.96.42-1.23Z"/>
  <path d="M33.84,42.77c.18-.1.16.23.34.27.15.03.1-.38.33.21.11.29.12.57.22.83.23.59.61,1.04.7,1.65-.17.18-.42-.16-.45-.22l-1.16-2.74Z"/>
  <path d="M63.74,168.95c.3.12.57.29.88.39.23-.01.03-.25.11-.28.33-.15.43.43.65.59.27.2,1.19.5,1.54.75s.32.5.5.73c.09.11.47-.04.5.34l-.93-.35c-.3-.43-.87-.87-1.36-.91-.1-.14.07-.11.08-.15.13-.47-.37-.3-.32-.13.06.21.28.65-.25.37-.22-.11-.31-.48-.46-.59-.09-.06-.79-.31-.87-.39-.13-.13-.21-.28-.27-.45.13-.09.11.05.21.09Z"/>
  <path d="M10.86,13.95c-.03.06-.22.08-.24.14-.07.15.2.88.4,1.02.12.09.55-.02.45.36-.17-.22-.35-.07-.52-.14-.39-.17-.69-.71-.78-1.12-.03-.15.35-.16.38-.23s-.56-1.03-.11-1.36c.1.21.49,1.19.42,1.33Z"/>
  <path d="M83.84,84.24c.57.78.1.87-.02,1.36-.04.16.06.37.05.39-.2.39-.75-.36-.66-.71.05-.17.34-.16.38-.23.06-.13-.45-.75.25-.81Z"/>
  <path d="M129.59,132.08c.1.25.21.53.41.72.22.21.47.03.52.35,0,.06-.18.08-.13.28.04.15.21.57.3.69.07.09.27-.11.29.13-.44.68-.54-.38-.77-.71-.05-.06-.19,0-.25-.07-.31-.37-.49-.83-.66-1.27l.3-.13Z"/>
  <path d="M98.45,113.06s-.06.32.07.42c.11.08.63-.05.76-.03.12.02.9.38.85.54-.31.03-.48.05-.72-.17l-.03.48c-.31,0-.37-.34-.52-.44-.19-.13-.84-.17-.87-.2-.22-.28.3-.31.31-.33,0-.01-.12-.38.14-.26Z"/>
  <path d="M51.13,84.89c.09-.02.27-.14.3-.13.1.04,1.12,1.85.89,1.97-.15,0-.43-.05-.5-.2l-.69-1.64Z"/>
  <path d="M3.09,25.81c.24.13-.26.53-.34.63-.06.07-.01.2-.08.25-.31.22-.96.54-.97,0,.29-.36.88-1.15,1.39-.88Z"/>
  <path d="M51.31,70.02l.9,2.14c.06.13.42.42.41.71l-.3.13c-.48-.89-.88-1.77-1.16-2.74-.06-.19-.1-.15.14-.23Z"/>
  <path d="M70.66,113s.16-.02.2.04c.32.45.42,1.17,1.09,1.45-.4.31-.39-.2-.67-.45-.12-.1-.95-.64-.99-.69-.17-.24-.24-.66-.39-.93.36-.16.56.34.76.58Z"/>
  <polygon points="33.77 33.99 34.97 36.54 34.67 36.67 33.47 34.12 33.77 33.99"/>
  <path d="M39.35,8.52s.23.24.23.26c-.03.07-1.11.79-1.24.83-.19.05-.55-.19-.58-.41.27-.06,1.48-.7,1.59-.67Z"/>
  <path d="M68.33,171.06s.04.2.14.25c.18.1,1.07.37.96.69-.01.04-.66.17-.76.14-.13-.03-.17-.2-.26-.26s-.26,0-.34-.08c-.16-.16.15-.81.26-.75Z"/>
  <path d="M59.28,57.55s.09.13.17.12c.31-.05.7-.34,1.03-.43.11.14-.09.11-.11.2-.04.2.25.3-.27.44-.2.05-.21-.13-.3-.12-.32.06-.62.34-1.03.33-.24,0-.32-.17-.38-.18-.2-.03-.44.29-.53.08.45-.23.93-.36,1.42-.44Z"/>
  <path d="M96.8,177.4s.11.14.23.14c.36,0,.53-.32.63.17-.36.09-.79.42-1.13.47-.08.01-.13-.15-.22-.14-.22.03-.43.28-.69.11.06-.22.67-.14.72-.24.11-.26-.3-.21-.37-.31.24-.03.6-.2.82-.2Z"/>
  <path d="M66.22,101.77s.36.54.39.6c.11.3-.16.56.21.79-.57.4-.57-.2-.72-.27-.12-.05-.33.31-.41-.19l.7-.3c-.02-.35-.3-.05-.37-.09-.33-.17-.06-.64.22-.54Z"/>
  <path d="M65.02,87.78c-.06-.12-.53-.37-.09-.49.1.06.36,1.01.52,1.23.05.07.19-.05.29.12.13.23.62,1.39.53,1.55-.01.12-.24,0-.24-.02-.33-.78-.64-1.64-1.01-2.39Z"/>
  <path d="M68.03,109.1c.05-.21.18-.08.26.06.43.75.73,1.69,1.25,2.41l-.63-.3c-.11-.06-.05-.2-.06-.23l-.82-1.94Z"/>
  <path d="M19.82,17.35c.26.04.98,2,.96,2.4-.11.05-.42-.96-.53-1.11-.05-.07-.19.05-.29-.12-.17-.28-.24-.7-.41-1-.05-.1.23-.18.27-.18Z"/>
  <path d="M1.3,21.29c.1.04,0,.5.56.11.05-.03-.05-.45.18-.31.07.04.12.28.05.39-.14.22-.76.31-1.01.48-.03.02-.19.58-.54.58l.17-.9c.09-.12.49-.39.59-.35Z"/>
  <path d="M71.92,138.92c.1.17-.18.08-.11.33.04.15.17.47.26.58.03.04.65.12.22.68s-.71.11-.26-.23c-.02-.18-.19.02-.26-.06-.21-.23.1-.27.04-.48-.04-.13-.14-.38-.21-.49-.07-.1-.29.13-.31-.18l.64-.15Z"/>
  <path d="M42.7,15.72s.2.22.4.03c.11.18-.19.13-.24.24-.03.07.11.23.09.28-.02.06-1.08.64-1.14.61-.03-.01-.08-.22-.13-.3l.4-.17-.18-.15c.38-.19.2-.49.8-.53Z"/>
  <path d="M55.52,142.9c-.08.28-.4-.32-.48-.03-.01.05.36.67.14.76-.06.03-.34-.14-.4-.24-.1-.16.12-.18.1-.37-.03-.42-.34-.81.03-1.14.1.18.66.87.61,1.03Z"/>
  <path d="M77.79,123.35s-.2-.05-.2-.21c.46-.24,1.31,1.45,1.25,1.58,0,.02-.39.19-.4.17-.2-.47-.41-1.12-.65-1.54Z"/>
  <path d="M99.34,177.23s.02.27.18.16c-.17-.55.28-.17.37-.17.3,0,.71-.31.65.21-.09.76-.85.19-1.05.16-.15-.03-.14.31-.29-.12-.06-.16-.04-.3.14-.23Z"/>
  <path d="M38.69,43.42l.65,1.25c-.47-.03-.87.33-.96-.33,0-.08.11-.12.12-.23.01-.22-.21-.55.19-.69Z"/>
  <path d="M84.66,63.94c.16.71.58,1.49.01,2.11-.22-.04-.18-.09-.23-.26-.14-.46.18-.36.21-.45s-.13-.25-.12-.38c.01-.11.33-.18.12-.49-.03-.05-.19.04-.21.02-.15-.09.11-.61.22-.55Z"/>
  <path d="M9.81,11.12l.46,1.1c-.16.12-.14-.2-.23-.14-.18.14-.09.35-.22.45-.12-.19-.61-.91-.55-1.05.01-.03.46-.26.55-.35Z"/>
  <path d="M127.58,129.53s.34.71.24.02c.17-.06.39.19.37.32-.02.08-.46-.12-.28.18.41.26.69.16.8.78-.15.11-.11-.15-.25-.13-.11.02-.28.15-.33.14-.03,0-.1-.32-.18-.43-.05-.07-.2.01-.25-.05s-.49-1.02-.11-.81Z"/>
  <path d="M69.26,99.78s.04.17.1.2c.1.06.21.03.25.08.19.25.38.79.58,1.08-.52.11-.37-.31-.64-.56-.15-.14-.5.04-.68-.36-.11-.24.35-.47.39-.45Z"/>
  <path d="M116.5,130.8c-.18.1-.14-.17-.24-.28-.06-.07-.2.01-.25-.06-.18-.25-.35-.75-.56-1.03l-.26-.89c-.03.52.6.58.7.82l.61,1.44Z"/>
  <path d="M82.78,58.63c-.2.07-.22-.34-.32-.49-.05-.07-.25.03-.42-.22-.24-.37-.36-.86-.66-1.22l.52.23c.07.05.25.21.27.25l.61,1.44Z"/>
  <path d="M6.84.75s.04.14.22.18l.81.03c-.09.43-.57.24-.81.4-.03.02-.02.45-.48.44.06-.19-.06-1.1.26-1.05Z"/>
  <path d="M8.63,0c.23.13.06.5,0,.69-.23.17-.17-.16-.28-.21-.09-.04-.4.09-.56.09-.1,0-.15-.17-.21-.15s-.4.61-.52.28c-.1-.27,1.44-.78,1.57-.71Z"/>
  <path d="M62.11,56.68c.08.04.11.28.18.38-.52.21-1.11.46-1.6.09.23-.1,1.26-.56,1.43-.47Z"/>
  <path d="M58.59,161.32s.35.21.37.22c.49.49-.16.6.17,1.19-.86-.1-.37-.4-.39-.5-.04-.2-.56-.99-.15-.91Z"/>
  <path d="M70.36,101.55c.08.31.92,1.15.26,1.29-.15.03-.49-.38-.53-.52,0-.04.3-.33-.03-.65l.3-.13Z"/>
  <path d="M67.46,106.64l-.71-1.69c.45-.22,1.19,1.52.71,1.69Z"/>
  <path d="M80.62,177.38s.19.3.3.38c.15.1.36.05.43.25.18-.03.01-.17.04-.22.17-.28.44-.03.54.21-.02.05-1.09.25-1.17.23-.23-.07-.48-.95-.15-.85Z"/>
  <path d="M58.01,113.45c-.02.22.48,1.04.46,1.09-.01.03-.28.1-.31.24-.04.18.23.4.03.47-.15-.36-.49-1.25-.45-1.61.02-.17.16-.13.27-.19Z"/>
  <path d="M70.45,109.84c-.05-.02-.25.18-.32.08-.17-.26-.02-.46.25-.52.29.58.7,1.17.88,1.8.05.19.1.15-.14.23-.14-.22-.59-1.56-.67-1.59Z"/>
  <path d="M65.32,52.65c.05,0,.63.27.56.43-.02.03-.64.36-.67.35-.38-.06-.61-.79.11-.78Z"/>
  <path d="M67.29,91.22l.71,1.4c-.52.52-.75-.75-.84-1.17-.04-.18-.14-.14.13-.23Z"/>
  <path d="M99.55,110.36c.05.02.1.36.17.39.13.06.75-.45.8.25-.3.29-1.51-.12-1.37-.48.1-.03.37-.18.4-.17Z"/>
  <path d="M103.98,152.04l.3-.13c.03.56.54,1.01.67,1.59l-.3.13-.67-1.59Z"/>
  <path d="M35.45,46.32s.21-.12.26-.23c.18.47.45.9.51,1.41.03.2.14.24-.14.31-.05-.26-.66-1.38-.63-1.49Z"/>
  <path d="M96.35,109.7c.34.04.21-.28.28-.33.29-.22.58-.22.85-.01-.37.09-.26.44-.27.47-.15.23-.25-.07-.35-.09-.37-.06-.86.35-.94-.19.22-.18.35.14.43.15Z"/>
  <path d="M26.83,92.67l-.24-.02c.78,1.76-.61.01-.47-.27.02-.04.24-.07.33-.14.12-.09-.1-.24.09-.27l.29.7Z"/>
  <path d="M103.05,149.85c.14-.48.71.81.75.92.08.23.21.46-.12.57l-.63-1.49Z"/>
  <path d="M64.61,98.22c.06.02.56.98.6,1.15-.15.12-.13-.18-.24-.14s-.26.27-.29.25c-.34-.33-.02-.61-.03-.64-.04-.1-.38-.38-.33-.5,0-.01.28-.13.3-.13Z"/>
  <path d="M40.19,102.65l.69,1.35c-.15.11-.11-.15-.25-.13-.11.02-.22.1-.33.14.05-.35-.27-.9-.28-1.14,0-.15.03-.3.17-.22Z"/>
  <path d="M16.55,14.85c.12.22-.52.16-.29.41.08.09.39-.14.5.08l-.9.38c-.31-.73-.04-.79.69-.87Z"/>
  <path d="M86.42,104.28s-.24.07-.33.14c-.11.08.12.29-.19.31-.11-.12-.09-1.25-.01-1.28.19-.08.55.79.53.83Z"/>
  <path d="M86.68,177.93l.44.12c-.47.19-1.18.06-.63.74-1.06-.01-.76-.86.18-.85Z"/>
  <path d="M68.19,168.77s.32.47.33.5c.02.06-.13.12-.14.16-.02.09.11.15.12.21.1.46-.56.12-.63-.28-.03-.17.08-.67.32-.58Z"/>
  <path d="M37.69,54.41c-.25.13-.16.08-.26-.07-.29-.44-.53-.91-.71-1.4l.38.07.59,1.4Z"/>
  <path d="M101.02,110.8s.05.22.14.26c.06.03.2-.05.3-.02.18.05.24.26.51.06.11.14-.1.11-.11.2-.02.13.09.26.08.28-.07.24-.73-.31-.81-.36-.13-.08-.45.07-.36-.32.08-.02.21-.11.25-.1Z"/>
  <path d="M20.53,13.79c.06.01.04.24.24.1.08-.06-.06-.18.03-.25s.91-.42.72-.07l-1.55.77.24-.45c.1-.06.2-.13.32-.11Z"/>
  <path d="M38.96,51.29c.05-.21.18-.08.26.06.24.43.45.97.71,1.41l-.38-.07-.59-1.4Z"/>
  <path d="M19.46,26.77l.21.5-1.24.4c-.11-.18.19-.14.28-.24.07-.08,0-.19.07-.25.18-.14.48-.27.68-.41Z"/>
  <path d="M126.75,152.88c.13-.56.08-1,.43-1.47.34.24-.18,1.55-.43,1.47Z"/>
  <path d="M40.1,13.37c.1.18-.17.14-.28.24-.07.06,0,.2-.06.25-.19.14-.51.19-.73.31-.14-.61.63-.72,1.07-.8Z"/>
  <rect x="71.23" y="97.45" width=".22" height="1.73" transform="translate(-32.6 35.45) rotate(-22.87)"/>
  <path d="M53.33,58.16c.06.01.26.2.17.32-.32.41-.75.28-.99-.11.02-.04.75-.22.83-.21Z"/>
  <path d="M30.75,20.71c.21.05.08.18-.06.26-.4.23-.89.44-1.31.67.06-.64.88-.64,1.37-.93Z"/>
  <path d="M78.78,62.17s.16-.02.21.02c.36.31.45.87.66,1.28l-.49-.88c-.31-.04-.56-.42-.73-.69-.06-.1-.3-.39-.1-.45.22.18.29.56.45.72Z"/>
  <path d="M92.65,178.06c.1.04.16.37-.07.47s-1.13-.03-1.01-.25c.07-.14.48-.01.63-.04.14-.02.41-.2.45-.18Z"/>
  <path d="M52.02,107.05l.23.59-.39.41c-.23-.36-.32-.82.16-1.01Z"/>
  <path d="M45.88,106.12c.11.15-.15.11-.13.25.03.23.32.43-.2.46-.16,0-.31-.33-.58-.09.04-.37.63-.47.91-.62Z"/>
  <path d="M59.66,162.75s.3.17.31.19c.17.25.24.65.39.92-.26.17-.19.01-.31-.14-.21-.27-.34-.59-.57-.84-.05-.08.14-.14.18-.13Z"/>
  <path d="M114.49,125.77c-.03.07-.55.25-.66.1-.24-.31.26-.52.13-.81l.53.71Z"/>
  <path d="M126.91,127.93l.46,1.1-.3.13c-.15-.29-.24-.58-.28-.9-.03-.19-.19-.25.12-.32Z"/>
  <path d="M35.6,97.89c-.32.22-.22-.21-.43-.38-.04-.03-.24.11-.28-.2,0-.03.31-.25.01-.53.46.06.49.77.7,1.11Z"/>
  <path d="M84.4,103.96c.06.29.32.51.39.78.2.79-1.08-.44-.39-.78Z"/>
  <path d="M28.65,35.22l.42,1-.3.13c-.08-.28-.56-.96-.12-1.12Z"/>
  <path d="M32.89,31.9l.46,1.1c-.43.35-.5-.38-.56-.77-.03-.18-.22-.25.1-.33Z"/>
  <path d="M68.9,108.38c.23.09.55,1.09.69,1.35-.2.07-.22-.34-.32-.49-.05-.07-.19.05-.29-.12-.06-.11-.42-.88-.07-.74Z"/>
  <path d="M93.25,108.79c.11.49.26.15.51.17.16.01.46.3.57.43-.14.28-1.13-.3-1.25-.47l.18-.13Z"/>
  <path d="M111.32,125.47c.09.22.19.43.27.65.06.16.26.35,0,.41-.4,0-.61-1.24-.27-1.06Z"/>
  <path d="M118.55,119.69s.39-.04.1.35c-.27-.46-.81-.45-1-.98.53-.08.62.32.9.64Z"/>
  <path d="M106.1,118.4s-.07-.2-.18-.27c-.09-.05-.55-.06-.45-.4.05-.17.78.3.93.25.14.18-.18.46-.29.41Z"/>
  <path d="M31.1,38.11c.37.22.74.84.21.91l-.4-.95c.02-.18.12-.01.19.03Z"/>
  <path d="M131.09,138.96c.11.07.67,1.32.22,1.08-.07-.04-.7-1.04-.22-1.08Z"/>
  <path d="M82.61,178.19l-.66.1.29-.42-.28-.11c.4-.26.55.1.65.43Z"/>
  <path d="M34.63,46.6s.1.52,0,.53l-.28-.65-.32-1.33c.16.48.47.97.61,1.44Z"/>
  <path d="M57.25,158.13c.15.45.4.87.59,1.3.06.13.18.18-.02.33-.12-.52-.58-.91-.71-1.4-.04-.14-.06-.34.14-.23Z"/>
  <path d="M23.46,25.67c.24.1-.1.28-.09.35.04.23.35.44-.01.52l-.48-.86c.13.06.55-.02.58,0Z"/>
  <path d="M4.65,10.62c.07.05.39.66.11.64l-.78-.61c.02-.05.64-.05.67-.03Z"/>
  <path d="M27.18,75.18s.17.18.24.23l-.73.78c-.17-.26.13-.4.19-.59.02-.06-.19-.5.3-.42Z"/>
  <polygon points="131.11 140.13 131.21 140.56 130.93 141.38 130.84 140.95 131.11 140.13"/>
  <path d="M122.83,122.73c.09.04.55.74.62.91-.1-.02-.54-.18-.55-.2-.08-.1-.41-.85-.07-.71Z"/>
  <path d="M54.85,109.64c.17.13.29.85-.05.94-.02-.43-.16-.67-.42-1,.1.02.44.04.47.06Z"/>
  <path d="M36.35,6.15c.22.39-.44.83-.69.58.15-.37.28-.47.69-.58Z"/>
  <path d="M126.4,153.57c-.04.31-.28.54-.62.36.37-.2.26-.57.52-.86.2.07.12.35.1.5Z"/>
  <path d="M112.76,124.16c-.9.17-.46-.21-.43-.75.26,0,.29.58.43.75Z"/>
  <path d="M29.6,85.05c-.07-.03.07-1.02.12-1.11.2.17.31,1.26-.12,1.11Z"/>
  <path d="M36.88,39.96c-.66.41-.69-.32-.92-.79.2-.07.21.34.34.48.15.17.51,0,.58.3Z"/>
  <path d="M117.53,129.07c.15.28.25.58,0,.82-.3-.38-.53-.56,0-.82Z"/>
  <path d="M77.37,53.88c.05,0,.84.45.83.58-.32.19-.21.09-.37-.02-.23-.16-.55-.2-.64-.43-.04-.08.14-.14.18-.13Z"/>
  <path d="M50.92,84.39c-.5.1-.45-.3-.63-.67.42-.19.5.38.63.67Z"/>
  <rect x="44.98" y="108.57" width=".32" height=".76" transform="translate(-38.79 26.1) rotate(-22.87)"/>
  <path d="M3.46,8.87s-.13.03-.17.16c-.03.1-.05.84-.28.74-.2-.09.18-.79.11-.99.09-.08.34.03.33.09Z"/>
  <path d="M30.99,39.63c.04.06.63,1.31.22,1.08-.04-.06-.63-1.31-.22-1.08Z"/>
  <path d="M105.81,153.36s-.41.33-.44.32c-.21-.33.03-.52.2-.79.11.02.26.42.24.47Z"/>
  <path d="M108.17,157.55c-.39.2-.56-.15-.85-.34.4-.12.75-.14.85.34Z"/>
  <path d="M25.86,90.38c.1.25.22.5.32.75.05.12.23.34.05.39-.22-.26-.41-.57-.5-.91-.04-.14-.06-.34.14-.23Z"/>
  <path d="M94.32,134.16c.05.14.11.27.22.37.12.11.61.23.55.36-.09.21-1.41-.44-.78-.73Z"/>
  <path d="M129.91,131.71c.13.39.75.76.14.88-.03-.25-.55-.8-.14-.88Z"/>
</svg>